<svg width="97" height="97" viewBox="0 0 97 97" fill="none" xmlns="http://www.w3.org/2000/svg">
<path d="M48.4999 0C41.5599 0 35.9338 5.62603 35.9338 12.5661C35.9338 18.9357 40.6729 24.1982 46.8176 25.0203V17.6795L45.1292 19.3684C44.8108 19.6694 44.3875 19.8344 43.9494 19.8283C43.5113 19.8222 43.0928 19.6455 42.7829 19.3357C42.473 19.0259 42.2962 18.6075 42.2899 18.1694C42.2836 17.7313 42.4484 17.308 42.7494 16.9894L47.31 12.4284C47.9413 11.797 49.0585 11.797 49.6894 12.4284L54.25 16.9894C54.4091 17.145 54.5357 17.3306 54.6226 17.5354C54.7094 17.7403 54.7548 17.9603 54.756 18.1828C54.7573 18.4053 54.7144 18.6258 54.6298 18.8316C54.5452 19.0374 54.4207 19.2244 54.2633 19.3817C54.106 19.5391 53.919 19.6636 53.7132 19.7482C53.5074 19.8328 53.2869 19.8757 53.0644 19.8744C52.8419 19.8732 52.6219 19.8278 52.417 19.741C52.2122 19.6541 52.0266 19.5275 51.871 19.3684L50.1822 17.6795V25.0203C56.3269 24.1982 61.0659 18.9357 61.0659 12.5661C61.0659 5.62603 55.4399 0 48.4999 0ZM50.1822 71.6643V79.0073L51.871 77.3184C52.1994 76.9896 52.63 76.8256 53.0605 76.8256C53.4911 76.8256 53.9216 76.99 54.25 77.318C54.4063 77.4742 54.5302 77.6597 54.6148 77.8638C54.6993 78.0679 54.7429 78.2867 54.7429 78.5077C54.7429 78.7286 54.6993 78.9474 54.6148 79.1516C54.5302 79.3557 54.4063 79.5412 54.25 79.6974L49.6894 84.2584C49.0585 84.8898 47.9418 84.8898 47.31 84.2584L42.7494 79.6974C42.4425 79.38 42.2726 78.9548 42.2764 78.5134C42.2802 78.072 42.4572 77.6497 42.7694 77.3376C43.0816 77.0255 43.504 76.8486 43.9454 76.845C44.3868 76.8414 44.8119 77.0115 45.1292 77.3184L46.8176 79.0073V71.6643C40.6707 72.4864 35.9295 77.7507 35.9295 84.123C35.9295 91.0652 41.5572 96.6934 48.4999 96.6934C55.4425 96.6934 61.0703 91.0656 61.0703 84.123C61.0703 77.7512 56.3291 72.4864 50.1822 71.6643ZM84.2816 35.7708C77.9094 35.7708 72.6446 40.5134 71.8243 46.6611H79.1638L77.4749 44.9727C77.1739 44.6543 77.0089 44.2311 77.015 43.7929C77.0211 43.3548 77.1978 42.9363 77.5076 42.6264C77.8174 42.3166 78.2358 42.1397 78.6739 42.1334C79.112 42.1271 79.5353 42.292 79.8539 42.5929L84.4149 47.1535C85.0463 47.7848 85.0463 48.902 84.4149 49.5329L79.8539 54.0935C79.6983 54.2526 79.5127 54.3792 79.3079 54.4661C79.103 54.553 78.883 54.5983 78.6605 54.5996C78.438 54.6008 78.2175 54.5579 78.0117 54.4733C77.8059 54.3887 77.6189 54.2642 77.4616 54.1069C77.3042 53.9495 77.1797 53.7626 77.0951 53.5568C77.0105 53.351 76.9676 53.1304 76.9689 52.9079C76.9701 52.6854 77.0155 52.4654 77.1023 52.2605C77.1892 52.0557 77.3158 51.8701 77.4749 51.7146L79.1638 50.0257H71.8252C72.649 56.1695 77.912 60.9077 84.2812 60.9077C91.2225 60.9077 96.8499 55.2804 96.8499 48.339C96.8503 41.3977 91.223 35.7708 84.2816 35.7708ZM17.836 50.0257L19.5249 51.7146C19.8533 52.0429 20.0177 52.4735 20.0177 52.904C20.0177 53.3346 19.8533 53.7651 19.5253 54.0935C19.3691 54.2498 19.1836 54.3737 18.9795 54.4583C18.7754 54.5429 18.5566 54.5864 18.3356 54.5864C18.1147 54.5864 17.8959 54.5429 17.6917 54.4583C17.4876 54.3737 17.3021 54.2498 17.1459 54.0935L12.5849 49.5329C11.9535 48.902 11.9535 47.7853 12.5849 47.1535L17.1459 42.5929C17.4633 42.286 17.8885 42.1162 18.3299 42.1199C18.7713 42.1237 19.1936 42.3007 19.5057 42.6129C19.8178 42.9251 19.9947 43.3475 19.9983 43.7889C20.0019 44.2303 19.8318 44.6555 19.5249 44.9727L17.836 46.6611H25.179C24.3569 40.5142 19.0926 35.773 12.7203 35.773C5.77768 35.773 0.149902 41.4008 0.149902 48.3434C0.149902 55.2861 5.77768 60.9139 12.7203 60.9139C19.0921 60.9139 24.3565 56.1726 25.179 50.0257H17.836ZM25.6279 27.8504V30.2386C25.6209 30.6801 25.4405 31.1012 25.1258 31.4109C24.8111 31.7207 24.3872 31.8943 23.9456 31.8944C23.5041 31.8944 23.0802 31.7209 22.7654 31.4112C22.4506 31.1016 22.2701 30.6805 22.2629 30.239L22.2625 23.7892C22.2625 22.8961 23.0521 22.1064 23.9448 22.1069L30.3946 22.1073C30.8407 22.1073 31.2686 22.2845 31.584 22.6C31.8995 22.9154 32.0767 23.3433 32.0767 23.7894C32.0767 24.2355 31.8995 24.6633 31.584 24.9788C31.2686 25.2942 30.8407 25.4715 30.3946 25.4715H28.006L33.1958 30.6612C36.9576 25.735 36.5871 18.6638 32.0839 14.1606C27.1765 9.25322 19.2202 9.25322 14.3127 14.1606C9.40531 19.0681 9.40531 27.0244 14.3127 31.9318C18.8172 36.4363 25.891 36.8059 30.8173 33.0411L25.6279 27.8504ZM82.6862 64.7559C78.1812 60.2509 71.1075 59.8805 66.1794 63.644L71.3723 68.8369V66.4482C71.3723 65.9835 71.5604 65.563 71.8647 65.2588C72.1689 64.9545 72.5894 64.766 73.0541 64.766C73.2751 64.7659 73.4939 64.8094 73.698 64.8939C73.9021 64.9784 74.0876 65.1023 74.2438 65.2586C74.4 65.4148 74.524 65.6003 74.6085 65.8044C74.693 66.0085 74.7365 66.2273 74.7364 66.4482L74.7369 72.8981C74.7373 73.7908 73.9477 74.5804 73.0546 74.5804L66.6047 74.5799C66.3838 74.5799 66.165 74.5364 65.9609 74.4518C65.7568 74.3672 65.5713 74.2432 65.4151 74.087C65.2589 73.9307 65.135 73.7452 65.0504 73.5411C64.9659 73.337 64.9224 73.1182 64.9224 72.8972C64.9225 72.6763 64.966 72.4575 65.0506 72.2534C65.1352 72.0492 65.2591 71.8638 65.4154 71.7076C65.5716 71.5514 65.7571 71.4275 65.9613 71.3429C66.1654 71.2584 66.3842 71.2149 66.6052 71.2149H68.9933L63.8005 66.0221C60.0339 70.9501 60.4035 78.0261 64.9097 82.5323C69.8189 87.4415 77.7779 87.4415 82.687 82.5323C87.5954 77.624 87.5954 69.6646 82.6862 64.7559ZM82.6835 14.1528C77.7752 9.24445 69.8172 9.24445 64.9088 14.1528C60.4026 18.659 60.0339 25.7354 63.8014 30.663L68.9929 25.4715H66.6047C66.1632 25.4644 65.7421 25.284 65.4324 24.9693C65.1226 24.6546 64.949 24.2307 64.9489 23.7892C64.9489 23.3476 65.1224 22.9237 65.4321 22.6089C65.7418 22.2941 66.1628 22.1136 66.6043 22.1064L73.0541 22.106C73.9472 22.106 74.7369 22.8956 74.7364 23.7883L74.736 30.2381C74.736 30.6843 74.5588 31.1121 74.2433 31.4275C73.9279 31.743 73.5 31.9202 73.0539 31.9202C72.6078 31.9202 72.18 31.743 71.8645 31.4275C71.5491 31.1121 71.3719 30.6843 71.3719 30.2381V27.8495L66.1812 33.0402C71.1084 36.8016 78.1795 36.4302 82.6831 31.9266C87.5918 27.0191 87.5918 19.0611 82.6835 14.1528ZM33.1976 66.0251L28.0069 71.2158H30.3955C30.8602 71.2158 31.2807 71.4039 31.585 71.7082C31.8893 72.0125 32.0778 72.4329 32.0778 72.8977C32.0778 73.1186 32.0344 73.3374 31.9498 73.5415C31.8653 73.7456 31.7414 73.9311 31.5852 74.0873C31.429 74.2436 31.2435 74.3675 31.0394 74.452C30.8352 74.5365 30.6164 74.58 30.3955 74.5799H23.9457C23.053 74.5804 22.2634 73.7908 22.2634 72.8977L22.2638 66.4478C22.2638 66.2269 22.3074 66.0081 22.392 65.804C22.4765 65.5998 22.6005 65.4144 22.7568 65.2582C22.913 65.1019 23.0985 64.978 23.3026 64.8935C23.5068 64.809 23.7256 64.7655 23.9465 64.7655C24.1675 64.7655 24.3863 64.8091 24.5904 64.8937C24.7945 64.9783 24.98 65.1022 25.1362 65.2585C25.2924 65.4147 25.4163 65.6002 25.5008 65.8044C25.5853 66.0085 25.6288 66.2273 25.6288 66.4482V68.8364L30.8195 63.6457C25.8914 59.88 18.8159 60.2501 14.3101 64.7559C9.40093 69.6651 9.40093 77.624 14.3101 82.5332C19.2193 87.4424 27.1782 87.4424 32.0874 82.5332C36.5919 78.0274 36.962 70.9532 33.1976 66.0251Z" fill="#00AEEF"/>
<path d="M48.4999 4.38437C54.6933 4.38437 59.8366 8.86608 60.8722 14.7626C60.998 14.0493 61.0659 13.3158 61.0659 12.5661C61.0659 5.62603 55.4399 0 48.4999 0C41.5599 0 35.9338 5.62603 35.9338 12.5661C35.9338 13.3153 36.0018 14.0488 36.1276 14.7626C37.1632 8.86608 42.3065 4.38437 48.4999 4.38437ZM48.4999 92.309C42.3043 92.309 37.1593 87.8251 36.1232 81.9264C35.9947 82.6515 35.9299 83.3865 35.9295 84.123C35.9295 91.0652 41.5572 96.6934 48.4999 96.6934C55.4425 96.6934 61.0703 91.0656 61.0703 84.123C61.0698 83.3865 61.005 82.6515 60.8765 81.9264C59.8405 87.8251 54.6954 92.309 48.4999 92.309ZM84.2816 35.7708C83.5319 35.7708 82.7988 35.8387 82.0851 35.9646C87.9829 37.0006 92.466 42.1448 92.466 48.3395C92.466 54.5341 87.9829 59.6788 82.0851 60.7144C82.7984 60.8402 83.5319 60.9082 84.2816 60.9082C91.223 60.9082 96.8503 55.2808 96.8503 48.3395C96.8503 41.3981 91.223 35.7708 84.2816 35.7708ZM4.53428 48.3434C4.53428 42.1479 9.01817 37.0028 14.9169 35.9668C14.1918 35.8383 13.4568 35.7734 12.7203 35.773C5.77768 35.773 0.149902 41.4008 0.149902 48.3434C0.149902 55.2861 5.77768 60.9139 12.7203 60.9139C13.4701 60.9139 14.2031 60.8459 14.9169 60.7201C9.01817 59.684 4.53428 54.539 4.53428 48.3434ZM18.698 18.5446C22.843 14.3996 29.1631 13.756 33.9841 16.6133C33.4548 15.7202 32.8169 14.8962 32.0848 14.1602C27.1774 9.25278 19.221 9.25278 14.3136 14.1602C9.40619 19.0676 9.40619 27.024 14.3136 31.9314C15.0497 32.6635 15.8736 33.3014 16.7667 33.8307C13.9094 29.0101 14.553 22.69 18.698 18.5446ZM82.6862 64.7559C81.9501 64.0238 81.1262 63.3858 80.2331 62.8566C83.0922 67.6794 82.4485 74.0021 78.3018 78.1488C74.1551 82.2956 67.8323 82.9392 63.0095 80.0801C63.539 80.9731 64.1769 81.797 64.9088 82.5332C69.818 87.4424 77.777 87.4424 82.6862 82.5332C87.5954 77.624 87.5954 69.6646 82.6862 64.7559ZM82.6835 14.1528C77.7752 9.24445 69.8172 9.24445 64.9088 14.1528C64.1769 14.8889 63.539 15.7129 63.0095 16.6058C67.8315 13.7476 74.1533 14.3913 78.2992 18.5371C82.445 22.683 83.0886 29.0048 80.2305 33.8268C81.1235 33.2975 81.9475 32.6595 82.6835 31.9274C87.5918 27.0191 87.5918 19.0611 82.6835 14.1528ZM18.6936 78.1484C14.5469 74.0016 13.9032 67.6789 16.7623 62.8561C15.8692 63.3854 15.0453 64.0234 14.3092 64.7554C9.40005 69.6646 9.40005 77.6236 14.3092 82.5328C19.2184 87.4419 27.1774 87.4419 32.0866 82.5328C32.8186 81.7967 33.4566 80.9727 33.9859 80.0797C29.1631 82.9387 22.8403 82.2951 18.6936 78.1484Z" fill="#07074E"/>
<path d="M48.5 32.8257C39.9299 32.8257 32.9824 39.7732 32.9824 48.3433C32.9824 56.9134 39.9299 63.8609 48.5 63.8609C57.0702 63.8609 64.0176 56.9134 64.0176 48.3433C64.0176 39.7732 57.0702 32.8257 48.5 32.8257ZM48.5 55.1404C44.7461 55.1404 41.7029 52.0972 41.7029 48.3433C41.7029 44.5894 44.7461 41.5462 48.5 41.5462C52.2539 41.5462 55.2971 44.5894 55.2971 48.3433C55.2971 52.0972 52.2539 55.1404 48.5 55.1404Z" fill="#F1F2F2"/>
<path d="M38.5605 57.4104C38.2975 57.4104 38.0519 57.2964 37.8853 57.0991V57.0948C37.8115 57.0062 37.7559 56.9038 37.7216 56.7937C37.6874 56.6836 37.6752 56.5678 37.6858 56.4529C37.6964 56.3381 37.7295 56.2264 37.7833 56.1244C37.8371 56.0224 37.9105 55.932 37.9993 55.8584C38.3588 55.5602 38.9376 55.6172 39.2357 55.9772L39.2401 55.9816C39.5426 56.3542 39.49 56.9062 39.1173 57.2136C38.9595 57.3403 38.7622 57.4104 38.5605 57.4104ZM36.7191 54.4422C36.5493 54.4418 36.3833 54.3923 36.2409 54.2998C36.0986 54.2072 35.986 54.0755 35.9167 53.9205C35.1342 52.1656 34.7323 50.2649 34.7374 48.3436C34.7374 40.7538 40.9106 34.5806 48.4999 34.5806C51.3322 34.5806 54.0549 35.4355 56.3742 37.0577C56.5628 37.1937 56.6943 37.391 56.7338 37.6233C56.7732 37.8557 56.7206 38.0881 56.5891 38.281C56.3216 38.6624 55.7517 38.7633 55.3658 38.4958C53.355 37.0842 50.9568 36.329 48.4999 36.3339C41.8883 36.347 36.4999 41.7315 36.4911 48.3431C36.4911 50.035 36.8375 51.6709 37.517 53.2054L37.5214 53.2098C37.7143 53.6526 37.5127 54.1699 37.0742 54.3629C36.9602 54.4159 36.8419 54.4422 36.7191 54.4422Z" fill="white"/>
<path d="M57.0583 35.4009C58.7415 37.9375 59.6374 40.915 59.6333 43.9592C59.6333 52.5293 52.6858 59.4768 44.1157 59.4768C41.0715 59.4809 38.0939 58.585 35.5574 56.9018C38.3353 61.0946 43.0937 63.8612 48.5 63.8612C57.0702 63.8612 64.0177 56.9137 64.0177 48.3435C64.0177 42.9372 61.2511 38.1788 57.0583 35.4009Z" fill="#E6E7E8"/>
<path d="M58.3207 36.3301C60.5915 39.0989 61.8302 42.5703 61.8252 46.1511C61.8252 54.7212 54.8777 61.6687 46.3076 61.6687C42.5809 61.6687 39.1619 60.3538 36.4866 58.1643C39.3325 61.6411 43.6563 63.8609 48.4998 63.8609C57.0699 63.8609 64.0174 56.9134 64.0174 48.3433C64.0174 43.4999 61.7976 39.176 58.3207 36.3301ZM48.4998 32.8257C50.0812 32.8257 51.6065 33.0655 53.0442 33.5053L52.0664 28.6645C51.9938 28.3043 51.7987 27.9805 51.5143 27.7478C51.23 27.5152 50.8739 27.3881 50.5065 27.3882H46.4935C46.1261 27.3882 45.77 27.5153 45.4857 27.7479C45.2014 27.9805 45.0063 28.3044 44.9335 28.6645L43.9558 33.5053C45.4283 33.0543 46.9598 32.8253 48.4998 32.8257Z" fill="#D1D3D4"/>
<path d="M63.602 44.8258L67.387 41.4867C67.6625 41.2436 67.8454 40.9127 67.9047 40.5501C67.964 40.1876 67.896 39.8157 67.7123 39.4975L65.7056 36.022C65.5218 35.7039 65.2336 35.4591 64.8899 35.3291C64.5462 35.1992 64.1682 35.1921 63.8199 35.3091L58.99 36.9326C61.2471 39.0082 62.8847 41.7366 63.602 44.8258ZM33.398 44.8258C34.1153 41.7366 35.7528 39.0082 38.0095 36.9326L33.1797 35.3091C32.8314 35.192 32.4533 35.199 32.1095 35.3289C31.7658 35.4589 31.4776 35.7037 31.2939 36.022L29.2872 39.4975C29.1035 39.8157 29.0355 40.1876 29.0948 40.5501C29.1541 40.9127 29.337 41.2436 29.6125 41.4867L33.398 44.8258ZM63.6234 51.7759C62.9311 54.838 61.3348 57.5501 59.1277 59.6288L63.6975 61.1651C64.0458 61.2821 64.4238 61.275 64.7674 61.1451C65.111 61.0151 65.3991 60.7703 65.5828 60.4522L67.5895 56.9767C67.7732 56.6585 67.8412 56.2866 67.7819 55.924C67.7226 55.5614 67.5397 55.2306 67.2642 54.9875L63.6234 51.7759ZM33.3765 51.7759L29.7357 54.9879C29.4603 55.231 29.2773 55.5619 29.218 55.9244C29.1587 56.287 29.2267 56.6589 29.4104 56.9771L31.4171 60.4526C31.6009 60.7707 31.889 61.0155 32.2326 61.1454C32.5762 61.2753 32.9542 61.2824 33.3024 61.1655L37.8723 59.6292C35.6652 57.5501 34.0688 54.838 33.3765 51.7759ZM48.5 63.861C46.9185 63.861 45.3932 63.6212 43.9556 63.1814L44.9333 68.0222C45.006 68.3824 45.2011 68.7062 45.4854 68.9389C45.7698 69.1715 46.1259 69.2986 46.4932 69.2985H50.5063C50.8736 69.2985 51.2297 69.1714 51.514 68.9388C51.7984 68.7061 51.9935 68.3823 52.0662 68.0222L53.0439 63.1814C51.5714 63.6324 50.04 63.8614 48.5 63.861ZM48.5 38.3918C43.0037 38.3918 38.5483 42.8472 38.5483 48.3434C38.5483 53.8397 43.0042 58.295 48.5 58.295C53.9958 58.295 58.4516 53.8397 58.4516 48.3434C58.4516 42.8472 53.9962 38.3918 48.5 38.3918ZM48.5 55.1405C44.7461 55.1405 41.7029 52.0973 41.7029 48.3434C41.7029 44.5895 44.7461 41.5463 48.5 41.5463C52.2539 41.5463 55.2971 44.5895 55.2971 48.3434C55.2971 52.0973 52.2539 55.1405 48.5 55.1405Z" fill="#D1D3D4"/>
</svg>
