<svg width="97" height="97" viewBox="0 0 97 97" fill="none" xmlns="http://www.w3.org/2000/svg">
<path d="M15.2627 73.9416V46.7476C15.2627 36.3177 23.8367 27.8628 34.2664 27.8628H23.3132C12.8834 27.8628 4.42847 36.3177 4.42847 46.7476V73.9416C4.42847 84.3715 12.8834 92.8264 23.3132 92.8264H34.2664C23.8367 92.8264 15.2627 84.3715 15.2627 73.9416Z" fill="#CEE1F2"/>
<path d="M47.9333 96.6899H22.8165C10.3208 96.6899 0.154785 86.5239 0.154785 74.0282V46.8341C0.154785 34.3384 10.3208 24.1724 22.8165 24.1724H74.1831C86.6788 24.1724 96.8448 34.3384 96.8448 46.8341V49.2891C96.8448 51.3751 95.1539 53.0661 93.0679 53.0661C90.9819 53.0661 89.2909 51.3751 89.2909 49.2891V46.8341C89.2909 38.5036 82.5135 31.7263 74.1831 31.7263H22.8165C14.4861 31.7263 7.70869 38.5036 7.70869 46.8341V74.0282C7.70869 82.3586 14.4861 89.136 22.8165 89.136H47.9333C50.0193 89.136 51.7102 90.8269 51.7102 92.9129C51.7102 94.999 50.0193 96.6899 47.9333 96.6899ZM50.1994 67.4185C50.1994 65.3325 48.5085 63.6415 46.4225 63.6415H39.2463C32.0612 63.6415 26.2158 57.7961 26.2158 50.6111C26.2158 48.525 24.5248 46.8341 22.4388 46.8341C20.3528 46.8341 18.6619 48.525 18.6619 50.6111C18.6619 61.9614 27.896 71.1955 39.2463 71.1955H46.4225C48.5085 71.1955 50.1994 69.5045 50.1994 67.4185ZM48.4998 44.1902C45.8924 44.1902 43.7786 46.304 43.7786 48.9114C43.7786 51.5188 45.8924 53.6326 48.4998 53.6326C51.1072 53.6326 53.221 51.5188 53.221 48.9114C53.221 46.304 51.1072 44.1902 48.4998 44.1902Z" fill="#07074E"/>
<path d="M53.4099 7.55391H43.5898C40.5701 7.55391 38.1132 10.0106 38.1132 13.0305C38.1132 15.1165 36.4223 16.8075 34.3363 16.8075C32.2503 16.8075 30.5593 15.1165 30.5593 13.0305C30.5593 5.8454 36.4047 0 43.5898 0H53.4099C60.595 0 66.4404 5.8454 66.4404 13.0305C66.4404 15.1165 64.7495 16.8075 62.6634 16.8075C60.5774 16.8075 58.8865 15.1165 58.8865 13.0305C58.8865 10.0106 56.4296 7.55391 53.4099 7.55391ZM96.3067 85.6026C95.5985 86.7829 94.3474 87.4369 93.0643 87.4369C92.4028 87.4369 91.733 87.2632 91.1247 86.8981L88.562 85.3605C86.5079 87.4191 83.8984 88.9207 80.9817 89.6271V92.9129C80.9817 94.9989 79.2907 96.6899 77.2047 96.6899C75.1187 96.6899 73.4278 94.9989 73.4278 92.9129V89.6271C70.4443 88.9046 67.7848 87.3476 65.7099 85.2164L62.9071 86.8981C62.3215 87.2507 61.6509 87.4369 60.9674 87.4369C59.6844 87.4369 58.4334 86.7829 57.7251 85.6026C56.6519 83.814 57.232 81.4939 59.0206 80.4208L61.854 78.7208C61.3883 77.2002 61.1519 75.6187 61.1527 74.0283C61.1519 72.438 61.3883 70.8564 61.854 69.3358L59.0206 67.6358C57.2318 66.5626 56.6519 64.2426 57.7253 62.4538C58.7987 60.6651 61.119 60.0855 62.9071 61.1583L65.7099 62.84C67.785 60.7089 70.4443 59.1518 73.4278 58.4293V55.1435C73.4278 53.0575 75.1187 51.3666 77.2047 51.3666C79.2907 51.3666 80.9817 53.0575 80.9817 55.1435V58.4293C83.8986 59.1356 86.5081 60.6373 88.5622 62.6959L91.1247 61.1583C92.9127 60.0851 95.2333 60.6649 96.3065 62.4538C97.3799 64.2426 96.7998 66.5626 95.0112 67.6358L92.495 69.1455C92.988 70.6861 93.2568 72.3262 93.2568 74.0283C93.2568 75.7304 92.9882 77.3706 92.495 78.9112L95.0112 80.4208C96.7999 81.4939 97.3799 83.814 96.3067 85.6026ZM85.7029 74.0283C85.7029 69.3424 81.8906 65.5302 77.2047 65.5302C72.5188 65.5302 68.7066 69.3424 68.7066 74.0283C68.7066 78.7142 72.5188 82.5265 77.2047 82.5265C81.8906 82.5265 85.7029 78.7142 85.7029 74.0283Z" fill="#00AEEF"/>
</svg>
