<svg width="97" height="97" viewBox="0 0 97 97" fill="none" xmlns="http://www.w3.org/2000/svg">
<path d="M96.8459 20.2725C96.8459 12.534 90.5484 6.23661 82.81 6.23661C75.0715 6.23661 68.7741 12.534 68.7741 20.2725C68.7741 27.4838 74.2434 33.4366 81.2504 34.2163V48.6951C79.8074 45.3443 77.4127 42.4906 74.3633 40.4877C71.3139 38.4848 67.7438 37.4208 64.0955 37.4274C59.9518 37.4274 56.028 38.8014 52.8278 41.2234C52.026 39.9733 51.0984 38.8085 50.0596 37.7471V27.9797C57.0666 27.2 62.5359 21.2472 62.5359 14.0359C62.5359 6.29743 56.2385 0 48.5001 0C40.7616 0 34.4642 6.29743 34.4642 14.0359C34.4642 21.2472 39.9335 27.2 46.9405 27.9797V35.0975C43.2798 32.5484 38.925 31.1842 34.4642 31.1893C30.6933 31.1783 26.9846 32.1495 23.7031 34.0074C20.4216 35.8653 17.6805 38.5457 15.7497 41.7848V34.2163C22.7567 33.4366 28.226 27.4838 28.226 20.2725C28.226 12.534 21.9286 6.23661 14.1902 6.23661C6.45172 6.23661 0.154297 12.534 0.154297 20.2725C0.154297 27.4838 5.62361 33.4366 12.6306 34.2163V46.8861C5.62517 47.6658 0.154297 53.6108 0.154297 60.8206C0.154297 68.559 6.45172 74.8564 14.1902 74.8564H32.9047V77.9755C32.9047 80.3179 33.987 82.4717 35.7087 83.9267C33.8803 85.1672 32.3841 86.8374 31.3514 88.7907C30.3187 90.7441 29.7811 92.9209 29.7856 95.1305V96.69H67.213L67.2146 95.132C67.2201 92.922 66.6825 90.7444 65.6492 88.7908C64.6158 86.8372 63.1183 85.1674 61.2883 83.9283C63.0116 82.4763 64.0955 80.3211 64.0955 77.9755V74.8564H84.3695C91.2487 74.8564 96.8459 69.2592 96.8459 62.3801C96.8459 55.501 91.2487 49.9038 84.3695 49.9038V34.2163C91.3765 33.4366 96.8459 27.4838 96.8459 20.2725ZM45.381 12.4748C45.381 10.7546 46.7799 9.35569 48.5001 9.35569C50.2202 9.35569 51.6192 10.7546 51.6192 12.4748C51.6192 14.1949 50.2202 15.5939 48.5001 15.5939C46.7799 15.5939 45.381 14.1949 45.381 12.4748ZM48.5001 18.7129C51.3197 18.7129 53.8587 20.2132 55.2388 22.6056C53.3215 24.1254 50.9467 24.9524 48.5001 24.9524C46.0534 24.9524 43.6786 24.1254 41.7613 22.6056C42.442 21.4205 43.4237 20.4364 44.6071 19.7528C45.7905 19.0693 47.1335 18.7105 48.5001 18.7129ZM48.5001 3.11752C54.5199 3.11752 59.4169 8.01448 59.4169 14.0343C59.4173 16.2735 58.7249 18.458 57.4347 20.2881C56.3487 18.7056 54.8616 17.4403 53.1257 16.6216C54.1585 15.4869 54.7331 14.0091 54.7382 12.4748C54.7382 9.03442 51.9404 6.23661 48.5001 6.23661C45.0597 6.23661 42.2619 9.03442 42.2619 12.4748C42.267 14.0091 42.8417 15.4869 43.8745 16.6216C42.1386 17.4403 40.6515 18.7056 39.5655 20.2881C38.2752 18.458 37.5829 16.2735 37.5833 14.0343C37.5833 8.01448 42.4802 3.11752 48.5001 3.11752ZM79.6909 18.7129C79.6909 16.9928 81.0898 15.5939 82.81 15.5939C84.5302 15.5939 85.9291 16.9928 85.9291 18.7129C85.9291 20.4331 84.5302 21.832 82.81 21.832C81.0898 21.832 79.6909 20.4331 79.6909 18.7129ZM82.81 24.9511C85.6296 24.9511 88.1686 26.4514 89.5488 28.8437C87.6314 30.3636 85.2566 31.1906 82.81 31.1906C80.3633 31.1906 77.9885 30.3636 76.0712 28.8437C76.7519 27.6587 77.7336 26.6746 78.917 25.991C80.1004 25.3074 81.4434 24.9487 82.81 24.9511ZM82.81 9.35569C88.8298 9.35569 93.7268 14.2526 93.7268 20.2725C93.7272 22.5117 93.0348 24.6961 91.7446 26.5262C90.6586 24.9438 89.1715 23.6784 87.4356 22.8598C88.4684 21.725 89.043 20.2473 89.0481 18.7129C89.0481 15.2726 86.2503 12.4748 82.81 12.4748C79.3696 12.4748 76.5718 15.2726 76.5718 18.7129C76.5769 20.2473 77.1516 21.725 78.1844 22.8598C76.4485 23.6784 74.9614 24.9438 73.8754 26.5262C72.5851 24.6961 71.8928 22.5117 71.8932 20.2725C71.8932 14.2526 76.7902 9.35569 82.81 9.35569ZM11.0711 18.7129C11.0711 16.9928 12.47 15.5939 14.1902 15.5939C15.9103 15.5939 17.3092 16.9928 17.3092 18.7129C17.3092 20.4331 15.9103 21.832 14.1902 21.832C12.47 21.832 11.0711 20.4331 11.0711 18.7129ZM14.1902 24.9511C17.0098 24.9511 19.5488 26.4514 20.9289 28.8437C19.0116 30.3636 16.6368 31.1906 14.1902 31.1906C11.7435 31.1906 9.36872 30.3636 7.45139 28.8437C8.13208 27.6587 9.11382 26.6746 10.2972 25.991C11.4806 25.3074 12.8236 24.9487 14.1902 24.9511ZM14.1902 9.35569C20.21 9.35569 25.107 14.2526 25.107 20.2725C25.1074 22.5117 24.415 24.6961 23.1248 26.5262C22.0388 24.9438 20.5517 23.6784 18.8158 22.8598C19.8486 21.725 20.4232 20.2473 20.4283 18.7129C20.4283 15.2726 17.6305 12.4748 14.1902 12.4748C10.7498 12.4748 7.952 15.2726 7.952 18.7129C7.95712 20.2473 8.53179 21.725 9.56457 22.8598C7.82867 23.6784 6.34156 24.9438 5.25556 26.5262C3.96533 24.6961 3.27294 22.5117 3.27338 20.2725C3.27338 14.2526 8.17034 9.35569 14.1902 9.35569ZM40.7928 85.0153L42.3009 84.6394C42.4315 87.827 43.4372 90.9171 45.2079 93.5709H33.0169C33.318 91.5343 34.2181 89.6332 35.6028 88.1097C36.9875 86.5862 38.7941 85.509 40.7928 85.0153ZM50.0596 77.9755H46.9405C44.3611 77.9755 42.2619 75.8764 42.2619 73.2969V66.9402C44.6865 66.572 46.8993 65.3483 48.5001 63.4905C50.1009 65.3483 52.3137 66.572 54.7382 66.9402V73.2969C54.7382 75.8764 52.6391 77.9755 50.0596 77.9755ZM46.9405 81.0946H50.0596C50.4339 81.0946 50.7926 81.0353 51.1529 80.9839L51.6192 82.846V83.8347C51.6192 83.9626 51.6036 84.0858 51.6004 84.2137H45.3997C45.3966 84.0873 45.381 83.9626 45.381 83.8347V82.8444L45.8473 80.9823C46.2076 81.0353 46.5662 81.0946 46.9405 81.0946ZM51.1762 87.3328C50.6855 89.3191 49.7728 91.1766 48.5001 92.7787C47.2268 91.1769 46.314 89.3194 45.8239 87.3328H51.1762ZM63.9816 93.5709H51.7923C53.5622 90.918 54.568 87.829 54.6992 84.6425L56.2198 85.0231C58.2145 85.5193 60.017 86.5965 61.3988 88.1182C62.7807 89.64 63.6796 91.5377 63.9816 93.5709ZM56.9777 81.9976L54.4653 81.3691L54.1051 79.9312C56.3446 78.5588 57.8573 76.1103 57.8573 73.2969V63.9396H56.2978C55.1151 63.9408 53.9505 63.6493 52.9078 63.0912C51.8651 62.5331 50.9766 61.7257 50.3216 60.741L48.5001 58.0087L46.6785 60.741C46.0235 61.7257 45.1351 62.5331 44.0924 63.0912C43.0496 63.6493 41.885 63.9408 40.7024 63.9396H39.1428V73.2969C39.1428 76.1103 40.6556 78.5588 42.8951 79.9296L42.5364 81.366L40.0396 81.9866C39.6767 82.0775 39.3177 82.1831 38.9635 82.3032C38.099 81.9556 37.3576 81.3582 36.834 80.5874C36.3104 79.8166 36.0283 78.9073 36.0237 77.9755V65.4992C36.0237 58.62 41.6209 53.0228 48.5001 53.0228C55.3792 53.0228 60.9764 58.62 60.9764 65.4992V77.9755C60.9714 78.909 60.6881 79.8199 60.1628 80.5916C59.6374 81.3633 58.894 81.9609 58.0273 82.3079C57.6818 82.1904 57.3316 82.0869 56.9777 81.9976ZM93.7268 62.3801C93.7268 67.5406 89.53 71.7373 84.3695 71.7373H64.0955V65.4992C64.0955 56.8999 57.0994 49.9038 48.5001 49.9038C39.9008 49.9038 32.9047 56.8999 32.9047 65.4992V71.7373H14.1902C8.17034 71.7373 3.27338 66.8404 3.27338 60.8206C3.27338 54.8007 8.17034 49.9038 14.1902 49.9038C14.2744 49.9038 14.3555 49.91 14.4381 49.9162L15.9696 49.988L16.2659 48.7294C17.2178 44.6201 19.5366 40.9555 22.8426 38.3357C26.1486 35.7159 30.246 34.296 34.4642 34.3083C41.0595 34.3083 47.0965 37.7471 50.4807 43.3475C49.7155 44.1465 49.022 45.0112 48.4081 45.9316L51.0219 47.6362C52.4361 45.4571 54.3733 43.6668 56.6569 42.4284C58.9405 41.1901 61.4977 40.5431 64.0955 40.5465C67.5908 40.5401 70.9862 41.7123 73.7331 43.8737C76.48 46.0351 78.418 49.0595 79.234 52.4583L79.6394 54.1332L81.266 53.5609C82.2627 53.2075 83.3121 53.0255 84.3695 53.0228C89.53 53.0228 93.7268 57.2196 93.7268 62.3801ZM34.4642 37.4274C35.6339 37.4274 36.7988 37.5569 37.9279 37.8142L37.2386 40.8553C36.3281 40.65 35.3976 40.5464 34.4642 40.5465C31.6335 40.5326 28.8831 41.4873 26.6698 43.2521C24.4565 45.0169 22.9134 47.4857 22.2967 50.2484L19.2556 49.5591C20.8759 42.4164 27.1297 37.4274 34.4642 37.4274Z" fill="#07074E"/>
</svg>
