<svg width="97" height="97" viewBox="0 0 97 97" fill="none" xmlns="http://www.w3.org/2000/svg">
<g clip-path="url(#clip0_118_885)">
<path fill-rule="evenodd" clip-rule="evenodd" d="M83.2479 13.5979H78.7152C77.8797 13.5979 77.2051 14.2747 77.2051 15.1103C77.2051 15.9458 77.8797 16.6204 78.7152 16.6204H83.2479C89.088 16.6204 93.8235 21.3537 93.8235 27.196V66.4756H3.17853V27.1938C3.17853 21.3515 7.91184 16.6182 13.7519 16.6182H18.2779C19.1113 16.6182 19.7881 15.9414 19.7881 15.1081C19.7881 14.2747 19.1113 13.5957 18.2779 13.5957H13.7519C6.24295 13.5979 0.156006 19.6848 0.156006 27.1938V67.9836C0.156006 75.4925 6.24295 81.5794 13.7519 81.5794H40.9458V87.6223H33.3928C29.2216 87.6223 25.8398 91.0041 25.8398 95.1775C25.8398 96.0108 26.5144 96.6876 27.3499 96.6876H69.6499C70.4854 96.6876 71.1622 96.0108 71.1622 95.1775C71.1622 91.0041 67.7804 87.6223 63.607 87.6223H56.054V81.5794H83.2479C90.7569 81.5794 96.8438 75.4925 96.8438 67.9836V27.1938C96.8438 19.6848 90.7569 13.5957 83.2479 13.5957V13.5979ZM63.607 90.6448C65.5802 90.6448 67.2601 91.9058 67.8818 93.6651H29.118C29.7596 91.8551 31.4726 90.6448 33.3928 90.6448H63.607ZM43.9683 87.6245V81.5816H53.0315V87.6245H43.9683ZM83.2479 78.5613H13.7519C8.49606 78.5613 4.03613 74.6988 3.28435 69.4959H93.7155C92.9637 74.6988 88.5037 78.5613 83.2479 78.5613Z" fill="#07074E"/>
<path fill-rule="evenodd" clip-rule="evenodd" d="M53.0314 74.0268C53.0314 74.8601 52.3568 75.5369 51.5213 75.5369H45.4784C44.6451 75.5369 43.9683 74.8601 43.9683 74.0268C43.9683 73.1934 44.6451 72.5166 45.4784 72.5166H51.5213C52.3568 72.5166 53.0314 73.1934 53.0314 74.0268Z" fill="#00AEEF"/>
<path fill-rule="evenodd" clip-rule="evenodd" d="M37.9254 55.8979H33.3927C32.5594 55.8979 31.8826 56.5748 31.8826 57.4081C31.8826 58.2415 32.5594 58.9183 33.3927 58.9183H37.9254C38.7588 58.9183 39.4356 58.2415 39.4356 57.4081C39.4356 56.5748 38.7588 55.8979 37.9254 55.8979Z" fill="#07074E"/>
<path fill-rule="evenodd" clip-rule="evenodd" d="M80.2255 58.9207H84.7582C85.5915 58.9207 86.2683 58.2439 86.2683 57.4106C86.2683 56.5772 85.5915 55.9004 84.7582 55.9004H80.2255C79.3922 55.9004 78.7153 56.5772 78.7153 57.4106C78.7153 58.2439 79.3922 58.9207 80.2255 58.9207Z" fill="#00AEEF"/>
<path fill-rule="evenodd" clip-rule="evenodd" d="M27.3498 55.8979H12.2416C11.4083 55.8979 10.7314 56.5748 10.7314 57.4081C10.7314 58.2415 11.4083 58.9183 12.2416 58.9183H27.3498C28.1832 58.9183 28.86 58.2415 28.86 57.4081C28.86 56.5748 28.1832 55.8979 27.3498 55.8979Z" fill="#00AEEF"/>
<path fill-rule="evenodd" clip-rule="evenodd" d="M59.0744 58.9207H74.1826C75.0159 58.9207 75.6928 58.2439 75.6928 57.4106C75.6928 56.5772 75.0159 55.9004 74.1826 55.9004H59.0744C58.241 55.9004 57.5642 56.5772 57.5642 57.4106C57.5642 58.2439 58.241 58.9207 59.0744 58.9207Z" fill="#07074E"/>
<path fill-rule="evenodd" clip-rule="evenodd" d="M72.6614 14.9298C72.6063 14.4668 72.3395 14.0523 71.9383 13.812L49.2771 0.213973C48.7987 -0.0726265 48.2012 -0.0726265 47.7228 0.213973L25.0616 13.812C24.6603 14.0523 24.3936 14.4646 24.3385 14.9298C22.4315 31.1337 30.2777 46.932 44.3409 55.2037L47.7338 57.2011C48.2078 57.4788 48.7943 57.4788 49.266 57.2011L52.6589 55.2037C66.7222 46.932 74.5684 31.1337 72.6614 14.9298ZM51.1267 52.6022L48.501 54.1477L45.8731 52.6022C33.0731 45.0735 25.8111 30.7986 27.2596 16.0189L48.501 3.27398L69.7403 16.0167C71.1887 30.7964 63.9267 45.0713 51.1267 52.6022Z" fill="#00AEEF"/>
<path fill-rule="evenodd" clip-rule="evenodd" d="M15.2641 49.855H12.2416C11.4083 49.855 10.7314 50.5318 10.7314 51.3651C10.7314 52.1985 11.4083 52.8753 12.2416 52.8753H15.2641C16.0975 52.8753 16.7743 52.1985 16.7743 51.3651C16.7743 50.5318 16.0975 49.855 15.2641 49.855Z" fill="#07074E"/>
<path fill-rule="evenodd" clip-rule="evenodd" d="M68.1396 49.855H65.1171C64.2838 49.855 63.6069 50.5318 63.6069 51.3651C63.6069 52.1985 64.2838 52.8753 65.1171 52.8753H68.1396C68.973 52.8753 69.6498 52.1985 69.6498 51.3651C69.6498 50.5318 68.973 49.855 68.1396 49.855Z" fill="#00AEEF"/>
<path fill-rule="evenodd" clip-rule="evenodd" d="M31.8826 49.855H21.307C20.4737 49.855 19.7969 50.5318 19.7969 51.3651C19.7969 52.1985 20.4737 52.8753 21.307 52.8753H31.8826C32.7159 52.8753 33.3927 52.1985 33.3927 51.3651C33.3927 50.5318 32.7159 49.855 31.8826 49.855Z" fill="#00AEEF"/>
<path fill-rule="evenodd" clip-rule="evenodd" d="M84.7581 49.855H74.1825C73.3492 49.855 72.6724 50.5318 72.6724 51.3651C72.6724 52.1985 73.3492 52.8753 74.1825 52.8753H84.7581C85.5914 52.8753 86.2682 52.1985 86.2682 51.3651C86.2682 50.5318 85.5914 49.855 84.7581 49.855Z" fill="#07074E"/>
<path fill-rule="evenodd" clip-rule="evenodd" d="M13.7518 43.8125H12.2416C11.4083 43.8125 10.7314 44.4893 10.7314 45.3227C10.7314 46.156 11.4083 46.8328 12.2416 46.8328H13.7518C14.5851 46.8328 15.2619 46.156 15.2619 45.3227C15.2619 44.4893 14.5851 43.8125 13.7518 43.8125Z" fill="#00AEEF"/>
<path fill-rule="evenodd" clip-rule="evenodd" d="M72.6723 45.3246C72.6723 46.158 71.9955 46.8348 71.1622 46.8348H69.6498C68.8165 46.8348 68.1396 46.158 68.1396 45.3246C68.1396 44.4913 68.8165 43.8145 69.6498 43.8145H71.1622C71.9955 43.8145 72.6723 44.4891 72.6723 45.3246Z" fill="#07074E"/>
<path fill-rule="evenodd" clip-rule="evenodd" d="M27.35 43.8125H19.797C18.9637 43.8125 18.2869 44.4893 18.2869 45.3227C18.2869 46.156 18.9637 46.8328 19.797 46.8328H27.35C28.1834 46.8328 28.8602 46.156 28.8602 45.3227C28.8602 44.4893 28.1834 43.8125 27.35 43.8125Z" fill="#07074E"/>
<path fill-rule="evenodd" clip-rule="evenodd" d="M86.2682 45.3246C86.2682 46.158 85.5913 46.8348 84.758 46.8348H77.205C76.3694 46.8348 75.6926 46.158 75.6926 45.3246C75.6926 44.4913 76.3694 43.8145 77.205 43.8145H84.758C85.5913 43.8145 86.2682 44.4891 86.2682 45.3246Z" fill="#00AEEF"/>
<path fill-rule="evenodd" clip-rule="evenodd" d="M78.7154 39.2816C78.7154 40.115 78.0385 40.7918 77.2052 40.7918H72.6725C71.837 40.7918 71.1624 40.115 71.1624 39.2816C71.1624 38.4483 71.837 37.7715 72.6725 37.7715H77.2052C78.0385 37.7715 78.7154 38.4461 78.7154 39.2816Z" fill="#00AEEF"/>
<path fill-rule="evenodd" clip-rule="evenodd" d="M24.3275 37.7695H22.8173C21.9839 37.7695 21.3071 38.4463 21.3071 39.2797C21.3071 40.113 21.9839 40.7899 22.8173 40.7899H24.3275C25.1608 40.7899 25.8376 40.113 25.8376 39.2797C25.8376 38.4463 25.1608 37.7695 24.3275 37.7695Z" fill="#00AEEF"/>
<path fill-rule="evenodd" clip-rule="evenodd" d="M86.2683 39.2816C86.2683 40.115 85.5915 40.7918 84.7581 40.7918H83.248C82.4124 40.7918 81.7356 40.115 81.7356 39.2816C81.7356 38.4483 82.4124 37.7715 83.248 37.7715H84.7581C85.5915 37.7715 86.2683 38.4461 86.2683 39.2816Z" fill="#07074E"/>
<path fill-rule="evenodd" clip-rule="evenodd" d="M60.5866 28.7064C60.5866 30.4988 60.1876 32.2669 59.4204 33.885C56.5588 39.9147 49.3497 42.4852 43.3201 39.6237C37.2883 36.7621 34.7199 29.5552 37.5815 23.5234C40.4409 17.4937 47.65 14.9231 53.6796 17.7847C53.7016 17.7958 53.7237 17.8046 53.7435 17.8156C54.4887 18.1904 54.7885 19.0987 54.4137 19.8439C54.0367 20.589 53.1284 20.8888 52.3833 20.5141C51.1707 19.9386 49.8458 19.6388 48.5032 19.6388C43.4965 19.6388 39.4378 23.6953 39.4356 28.702C39.4334 33.7065 43.4921 37.7674 48.4965 37.7674C53.5032 37.7696 57.5641 33.7131 57.5641 28.7064C57.5641 27.8731 58.2409 27.1962 59.0743 27.1962C59.9076 27.1962 60.5866 27.8731 60.5866 28.7064Z" fill="#07074E"/>
<path fill-rule="evenodd" clip-rule="evenodd" d="M16.7743 37.7695H12.2416C11.4083 37.7695 10.7314 38.4463 10.7314 39.2797C10.7314 40.113 11.4083 40.7899 12.2416 40.7899H16.7743C17.6076 40.7899 18.2845 40.113 18.2845 39.2797C18.2845 38.4463 17.6076 37.7695 16.7743 37.7695Z" fill="#07074E"/>
<path fill-rule="evenodd" clip-rule="evenodd" d="M78.7153 33.2392C78.7153 34.0725 78.0385 34.7493 77.2051 34.7493H75.6928C74.8594 34.7493 74.1826 34.0725 74.1826 33.2392C74.1826 32.4058 74.8594 31.729 75.6928 31.729H77.2051C78.0385 31.729 78.7153 32.4036 78.7153 33.2392Z" fill="#07074E"/>
<path fill-rule="evenodd" clip-rule="evenodd" d="M13.7518 31.7266H12.2416C11.4083 31.7266 10.7314 32.4034 10.7314 33.2367C10.7314 34.0701 11.4083 34.7469 12.2416 34.7469H13.7518C14.5851 34.7469 15.2619 34.0701 15.2619 33.2367C15.2619 32.4034 14.5851 31.7266 13.7518 31.7266Z" fill="#00AEEF"/>
<path fill-rule="evenodd" clip-rule="evenodd" d="M21.3072 31.7266H19.797C18.9637 31.7266 18.2869 32.4034 18.2869 33.2367C18.2869 34.0701 18.9637 34.7469 19.797 34.7469H21.3072C22.1405 34.7469 22.8173 34.0701 22.8173 33.2367C22.8173 32.4034 22.1405 31.7266 21.3072 31.7266Z" fill="#07074E"/>
<path fill-rule="evenodd" clip-rule="evenodd" d="M86.2683 33.2392C86.2683 34.0725 85.5915 34.7493 84.7581 34.7493H83.248C82.4124 34.7493 81.7356 34.0725 81.7356 33.2392C81.7356 32.4058 82.4124 31.729 83.248 31.729H84.7581C85.5915 31.729 86.2683 32.4036 86.2683 33.2392Z" fill="#00AEEF"/>
<path fill-rule="evenodd" clip-rule="evenodd" d="M60.1435 22.2182L49.5679 32.7938C49.5172 32.8467 49.4599 32.8952 49.4026 32.9393C48.7346 33.4353 47.7888 33.2986 47.2906 32.6329L42.7601 26.59C42.2574 25.922 42.3941 24.974 43.0621 24.4736C43.7279 23.9731 44.6759 24.1098 45.1764 24.7756L48.6641 29.4273L58.0072 20.082C58.5936 19.5176 59.5218 19.5176 60.106 20.082C60.7057 20.6618 60.7233 21.6186 60.1435 22.2182Z" fill="#00AEEF"/>
<path fill-rule="evenodd" clip-rule="evenodd" d="M19.7946 25.6836H12.2416C11.4083 25.6836 10.7314 26.3604 10.7314 27.1938C10.7314 28.0271 11.4083 28.7039 12.2416 28.7039H19.7946C20.628 28.7039 21.3048 28.0271 21.3048 27.1938C21.3048 26.3604 20.628 25.6836 19.7946 25.6836Z" fill="#07074E"/>
<path fill-rule="evenodd" clip-rule="evenodd" d="M86.2682 27.194C86.2682 28.0274 85.5913 28.7042 84.758 28.7042H77.205C76.3694 28.7042 75.6926 28.0274 75.6926 27.194C75.6926 26.3607 76.3694 25.6816 77.205 25.6816H84.758C85.5913 25.6816 86.2682 26.3585 86.2682 27.194Z" fill="#07074E"/>
</g>
<defs>
<clipPath id="clip0_118_885">
<rect width="96.6878" height="96.69" fill="white" transform="translate(0.156006)"/>
</clipPath>
</defs>
</svg>
