<svg width="107" height="20" viewBox="0 0 107 20" fill="none" xmlns="http://www.w3.org/2000/svg">
<g clip-path="url(#clip0_122_2051)">
<path d="M106.132 9.81748L104.059 12.0013L100.41 8.15855L98.3367 5.97473L96.8082 4.36548L95.2818 5.97473L93.2105 8.15855L92.1421 9.28178L89.3627 12.2087L88.9705 11.7939L87.2915 10.0248L88.9705 8.25575V4.03499H92.1421V4.91414L92.9795 4.03499L93.2105 3.79307L94.7369 2.18166L96.8103 0L98.8815 2.18166L100.41 3.79307L100.641 4.03499L102.483 5.97473L106.132 9.81748Z" fill="#F4F4F2"/>
<path d="M102.53 13.6106L100.457 15.7944L96.8082 11.9516L92.9625 16.0017L92.1421 15.1356L90.8892 13.8179L92.1421 12.5003L94.737 9.76565L96.8103 7.58398L98.8816 9.76565L102.53 13.6106Z" fill="#F4F4F2"/>
<path d="M98.7586 17.5831L96.611 19.8446L94.5122 17.6327C94.8705 16.7968 95.6909 16.2114 96.6428 16.2114C97.5947 16.2114 98.3833 16.773 98.7564 17.5831H98.7586Z" fill="#F4F4F2"/>
<path d="M1.54793 10.2257C1.60517 10.122 1.71541 10.1069 1.87653 10.1804L3.65521 10.8975C3.72941 10.9277 3.76757 10.9688 3.77605 11.0206C3.78241 11.0725 3.77181 11.1286 3.74425 11.1891C3.50893 11.606 3.28633 12.0963 3.07433 12.6536C2.86233 13.2131 2.75633 13.8287 2.75633 14.4983C2.75633 15.0794 2.84749 15.5676 3.02981 15.9628C3.21213 16.3581 3.44745 16.6757 3.73153 16.9133C4.01773 17.1509 4.33573 17.3194 4.68765 17.4166C5.03957 17.5138 5.38301 17.5613 5.72009 17.5613C6.56809 17.5613 7.25073 17.3345 7.76165 16.8787C8.27469 16.4229 8.52909 15.6885 8.52909 14.6755V0.224646C8.52909 0.0756021 8.60117 0 8.74745 0H10.772C10.9162 0 10.9904 0.0756021 10.9904 0.224646V14.7446C10.9904 15.5956 10.8632 16.3409 10.6067 16.9824C10.3502 17.6239 9.98553 18.1575 9.51065 18.583C9.03577 19.0085 8.46973 19.3239 7.81253 19.5334C7.15533 19.743 6.42393 19.8466 5.62045 19.8466C4.81697 19.8466 4.13433 19.743 3.48349 19.5334C2.83265 19.3239 2.26661 19.0085 1.78537 18.583C1.30201 18.1575 0.926768 17.6239 0.655408 16.9824C0.384048 16.3409 0.250488 15.587 0.250488 14.723C0.250488 13.9173 0.375568 13.1116 0.623608 12.3059C0.871648 11.5002 1.17905 10.8068 1.54581 10.2257H1.54793Z" fill="#F4F4F2"/>
<path d="M13.8672 0.224646C13.8672 0.0756021 13.9393 0 14.0855 0H16.1101C16.2543 0 16.3285 0.0756021 16.3285 0.222486V11.7918C16.3285 12.2389 16.4133 12.5478 16.5808 12.7184C16.7483 12.8891 17.0154 12.9755 17.3821 12.9755H18.1496C18.4421 12.9755 18.6626 13.0619 18.8089 13.2347C18.9552 13.4075 19.0294 13.7056 19.0294 14.1268C19.0294 14.5934 18.9594 14.8915 18.8216 15.0189C18.6838 15.1463 18.4591 15.2111 18.1517 15.2111H16.4175C15.5017 15.2111 14.8487 14.9843 14.4565 14.5286C14.0643 14.0728 13.8693 13.3621 13.8693 12.3923V0.224646H13.8672Z" fill="#F4F4F2"/>
<path d="M18.1709 15.2134C17.8784 15.2134 17.677 15.1378 17.5667 14.9866C17.4565 14.8354 17.4014 14.5568 17.4014 14.1507C17.4014 13.6992 17.4522 13.3903 17.554 13.224C17.6558 13.0577 17.8614 12.9756 18.1688 12.9756H20.804C21.0965 12.9756 21.317 13.0577 21.4633 13.224C21.6096 13.3903 21.6838 13.6754 21.6838 14.0837C21.6838 14.5503 21.6138 14.857 21.476 14.9996C21.3361 15.1421 21.1135 15.2134 20.8061 15.2134H18.1709Z" fill="#F4F4F2"/>
<path d="M20.8059 15.2134C20.5134 15.2134 20.312 15.1378 20.2017 14.9866C20.0915 14.8354 20.0364 14.5568 20.0364 14.1507C20.0364 13.6992 20.0873 13.3903 20.189 13.224C20.2908 13.0577 20.4964 12.9756 20.8038 12.9756H23.439C23.7315 12.9756 23.952 13.0577 24.0983 13.224C24.2446 13.3903 24.3188 13.6754 24.3188 14.0837C24.3188 14.5503 24.2488 14.857 24.111 14.9996C23.9711 15.1421 23.7485 15.2134 23.4411 15.2134H20.8059Z" fill="#F4F4F2"/>
<path d="M23.4412 15.2134C23.1486 15.2134 22.9472 15.1378 22.837 14.9866C22.7268 14.8354 22.6716 14.5568 22.6716 14.1507C22.6716 13.6992 22.7225 13.3903 22.8243 13.224C22.926 13.0577 23.1317 12.9756 23.4391 12.9756H26.0742C26.3668 12.9756 26.5873 13.0577 26.7336 13.224C26.8798 13.3903 26.954 13.6754 26.954 14.0837C26.954 14.5503 26.8841 14.857 26.7463 14.9996C26.6064 15.1421 26.3838 15.2134 26.0764 15.2134H23.4412Z" fill="#F4F4F2"/>
<path d="M26.0764 15.2134C25.7839 15.2134 25.5825 15.1378 25.4722 14.9866C25.362 14.8354 25.3069 14.5568 25.3069 14.1507C25.3069 13.6992 25.3578 13.3903 25.4595 13.224C25.5613 13.0577 25.7669 12.9756 26.0743 12.9756H28.7095C29.002 12.9756 29.2225 13.0577 29.3688 13.224C29.5151 13.3903 29.5893 13.6754 29.5893 14.0837C29.5893 14.5503 29.5193 14.857 29.3815 14.9996C29.2416 15.1421 29.019 15.2134 28.7116 15.2134H26.0764Z" fill="#F4F4F2"/>
<path d="M28.7115 15.2134C28.4189 15.2134 28.2175 15.1378 28.1073 14.9866C27.997 14.8354 27.9419 14.5568 27.9419 14.1507C27.9419 13.6992 27.9928 13.3903 28.0945 13.224C28.1963 13.0577 28.4019 12.9756 28.7093 12.9756H31.3445C31.6371 12.9756 31.8575 13.0577 32.0038 13.224C32.1501 13.3903 32.2243 13.6754 32.2243 14.0837C32.2243 14.5503 32.1543 14.857 32.0165 14.9996C31.8766 15.1421 31.654 15.2134 31.3466 15.2134H28.7115Z" fill="#F4F4F2"/>
<path d="M31.3467 15.2134C31.0541 15.2134 30.8527 15.1378 30.7425 14.9866C30.6323 14.8354 30.5771 14.5568 30.5771 14.1507C30.5771 13.6992 30.628 13.3903 30.7298 13.224C30.8315 13.0577 31.0372 12.9756 31.3446 12.9756H33.9797C34.2723 12.9756 34.4928 13.0577 34.6391 13.224C34.7853 13.3903 34.8595 13.6754 34.8595 14.0837C34.8595 14.5503 34.7896 14.857 34.6518 14.9996C34.5119 15.1421 34.2893 15.2134 33.9819 15.2134H31.3467Z" fill="#F4F4F2"/>
<path d="M33.9817 15.2134C33.6892 15.2134 33.4878 15.1378 33.3775 14.9866C33.2673 14.8354 33.2122 14.5568 33.2122 14.1507C33.2122 13.6992 33.263 13.3903 33.3648 13.224C33.4666 13.0577 33.6722 12.9756 33.9796 12.9756H36.6148C36.9073 12.9756 37.1278 13.0577 37.2741 13.224C37.4204 13.3903 37.4946 13.6754 37.4946 14.0837C37.4946 14.5503 37.4246 14.857 37.2868 14.9996C37.1469 15.1421 36.9243 15.2134 36.6169 15.2134H33.9817Z" fill="#F4F4F2"/>
<path d="M36.617 15.2134C36.3244 15.2134 36.123 15.1378 36.0128 14.9866C35.9025 14.8354 35.8474 14.5568 35.8474 14.1507C35.8474 13.6992 35.8983 13.3903 36.0001 13.224C36.1018 13.0577 36.3075 12.9756 36.6149 12.9756H39.25C39.5426 12.9756 39.7631 13.0577 39.9093 13.224C40.0556 13.3903 40.1298 13.6754 40.1298 14.0837C40.1298 14.5503 40.0599 14.857 39.9221 14.9996C39.7821 15.1421 39.5595 15.2134 39.2521 15.2134H36.617Z" fill="#F4F4F2"/>
<path d="M39.2522 15.2134C38.9597 15.2134 38.7583 15.1378 38.648 14.9866C38.5378 14.8354 38.4827 14.5568 38.4827 14.1507C38.4827 13.6992 38.5335 13.3903 38.6353 13.224C38.7371 13.0577 38.9427 12.9756 39.2501 12.9756H41.8853C42.1778 12.9756 42.3983 13.0577 42.5446 13.224C42.6909 13.3903 42.7651 13.6754 42.7651 14.0837C42.7651 14.5503 42.6951 14.857 42.5573 14.9996C42.4174 15.1421 42.1948 15.2134 41.8874 15.2134H39.2522Z" fill="#F4F4F2"/>
<path d="M41.8853 15.2134C41.5927 15.2134 41.3913 15.1378 41.2811 14.9866C41.1708 14.8354 41.1157 14.5568 41.1157 14.1507C41.1157 13.6992 41.1666 13.3903 41.2684 13.224C41.3701 13.0577 41.5758 12.9756 41.8832 12.9756H44.5183C44.8109 12.9756 45.0314 13.0577 45.1776 13.224C45.3239 13.3903 45.3981 13.6754 45.3981 14.0837C45.3981 14.5503 45.3282 14.857 45.1904 14.9996C45.0504 15.1421 44.8278 15.2134 44.5204 15.2134H41.8853Z" fill="#F4F4F2"/>
<path d="M44.5203 15.2134C44.2277 15.2134 44.0263 15.1378 43.9161 14.9866C43.8059 14.8354 43.7507 14.5568 43.7507 14.1507C43.7507 13.6992 43.8016 13.3903 43.9034 13.224C44.0051 13.0577 44.2108 12.9756 44.5182 12.9756H47.1533C47.4459 12.9756 47.6664 13.0577 47.8127 13.224C47.9589 13.3903 48.0331 13.6754 48.0331 14.0837C48.0331 14.5503 47.9632 14.857 47.8254 14.9996C47.6855 15.1421 47.4629 15.2134 47.1555 15.2134H44.5203Z" fill="#F4F4F2"/>
<path d="M47.1555 15.2134C46.863 15.2134 46.6616 15.1378 46.5513 14.9866C46.4411 14.8354 46.386 14.5568 46.386 14.1507C46.386 13.6992 46.4369 13.3903 46.5386 13.224C46.6404 13.0577 46.846 12.9756 47.1534 12.9756H49.7886C50.0811 12.9756 50.3016 13.0577 50.4479 13.224C50.5942 13.3903 50.6684 13.6754 50.6684 14.0837C50.6684 14.5503 50.5984 14.857 50.4606 14.9996C50.3207 15.1421 50.0981 15.2134 49.7907 15.2134H47.1555Z" fill="#F4F4F2"/>
<path d="M49.7906 15.2134C49.498 15.2134 49.2966 15.1378 49.1864 14.9866C49.0761 14.8354 49.021 14.5568 49.021 14.1507C49.021 13.6992 49.0719 13.3903 49.1736 13.224C49.2754 13.0577 49.481 12.9756 49.7884 12.9756H52.4236C52.7162 12.9756 52.9366 13.0577 53.0829 13.224C53.2292 13.3903 53.3034 13.6754 53.3034 14.0837C53.3034 14.5503 53.2334 14.857 53.0956 14.9996C52.9557 15.1421 52.7331 15.2134 52.4257 15.2134H49.7906Z" fill="#F4F4F2"/>
<path d="M52.4258 15.2134C52.1333 15.2134 51.9319 15.1378 51.8216 14.9866C51.7114 14.8354 51.6562 14.5568 51.6562 14.1507C51.6562 13.6992 51.7071 13.3903 51.8089 13.224C51.9107 13.0577 52.1163 12.9756 52.4237 12.9756H55.0589C55.3514 12.9756 55.5719 13.0577 55.7182 13.224C55.8645 13.3903 55.9386 13.6754 55.9386 14.0837C55.9386 14.5503 55.8687 14.857 55.7309 14.9996C55.591 15.1421 55.3684 15.2134 55.061 15.2134H52.4258Z" fill="#F4F4F2"/>
<path d="M55.0611 15.2134C54.7685 15.2134 54.5671 15.1378 54.4569 14.9866C54.3466 14.8354 54.2915 14.5568 54.2915 14.1507C54.2915 13.6992 54.3424 13.3903 54.4441 13.224C54.5459 13.0577 54.7515 12.9756 55.0589 12.9756H57.6941C57.9867 12.9756 58.2071 13.0577 58.3534 13.224C58.4997 13.3903 58.5739 13.6754 58.5739 14.0837C58.5739 14.5503 58.5039 14.857 58.3661 14.9996C58.2262 15.1421 58.0036 15.2134 57.6962 15.2134H55.0611Z" fill="#F4F4F2"/>
<path d="M62.2627 6.77823C62.9517 6.43478 63.7149 6.14101 64.5502 5.89476C65.3855 5.64851 66.2525 5.52539 67.1472 5.52539C68.1012 5.52539 68.9195 5.65283 69.6 5.90556C70.2827 6.16045 70.8402 6.51686 71.2727 6.97911C71.7052 7.44136 72.0211 8.00514 72.2182 8.66828C72.4154 9.33142 72.515 10.0658 72.515 10.8715C72.515 11.7658 72.4387 12.4981 72.2839 13.064C72.1313 13.6321 71.8811 14.0749 71.5377 14.3946C71.1943 14.7164 70.7512 14.9325 70.2085 15.0448C69.6657 15.1571 69.0085 15.2133 68.2326 15.2133H64.1262C63.8909 15.2133 63.6322 15.2089 63.346 15.2025C63.0598 15.196 62.7821 15.1765 62.5107 15.1463C62.2394 15.1161 61.9956 15.0793 61.7751 15.034C61.5546 14.9886 61.3935 14.9217 61.2917 14.8331C61.0437 15.0124 60.7617 15.1204 60.4459 15.1571C60.13 15.1938 59.7611 15.2133 59.3371 15.2133H57.6899C57.3973 15.2133 57.1768 15.142 57.0305 14.9994C56.8843 14.8569 56.8101 14.5739 56.8101 14.1527C56.8101 13.671 56.88 13.3535 57.0178 13.2044C57.1577 13.0532 57.3803 12.9776 57.6877 12.9776H58.8304C59.0636 12.9776 59.2481 12.9452 59.3795 12.8782C59.5109 12.8113 59.6106 12.7033 59.6763 12.5542C59.742 12.4052 59.7781 12.2151 59.7865 11.9861C59.795 11.7572 59.7971 11.4764 59.7971 11.1502V6.06541C59.7971 5.91636 59.8692 5.84076 60.0155 5.84076H62.0401C62.1843 5.84076 62.2585 5.91636 62.2585 6.06541V6.78039L62.2627 6.77823ZM66.7995 7.76321C65.9769 7.76321 65.1692 7.89066 64.3763 8.14122C63.5835 8.39395 62.8796 8.66828 62.2627 8.96421V11.9948C62.2627 12.1719 62.2542 12.3447 62.2415 12.5067C62.2267 12.6709 62.2055 12.8264 62.1758 12.9754H66.9543C67.586 12.9754 68.0948 12.9646 68.4849 12.943C68.875 12.9214 69.1739 12.8394 69.388 12.6968C69.6 12.5564 69.7442 12.3339 69.8184 12.0293C69.8926 11.7248 69.9286 11.2971 69.9286 10.7484C69.9286 10.2732 69.882 9.84983 69.7866 9.4783C69.6912 9.10677 69.5216 8.79572 69.2799 8.54299C69.0382 8.29027 68.7181 8.09802 68.3217 7.9641C67.9252 7.83017 67.4185 7.76321 66.8016 7.76321H66.7995Z" fill="#F4F4F2"/>
<path d="M79.0615 15.2133C78.3725 15.2133 77.762 15.1356 77.2277 14.9779C76.6935 14.8202 76.2441 14.561 75.8773 14.1959C75.5105 13.8309 75.2307 13.3578 75.0314 12.7746C74.8343 12.1936 74.7346 11.4764 74.7346 10.6275C74.7346 9.71814 74.8555 8.93836 75.0971 8.29034C75.3388 7.64016 75.6695 7.11311 76.0872 6.7027C76.5048 6.29229 76.9861 5.9942 77.5288 5.80843C78.0715 5.62267 78.6439 5.52979 79.246 5.52979C79.9053 5.52979 80.5116 5.61835 81.0628 5.79763C81.6119 5.97692 82.0868 6.25989 82.4832 6.6487C82.8797 7.03751 83.1871 7.54296 83.4075 8.16938C83.628 8.7958 83.7383 9.56478 83.7383 10.4742V15.7102C83.7383 17.112 83.3906 18.1337 82.6973 18.7753C82.002 19.4168 80.995 19.7365 79.6763 19.7365H76.7126C76.5663 19.7365 76.4921 19.6609 76.4921 19.5119V17.7212C76.4921 17.5721 76.5663 17.4965 76.7126 17.4965H79.282C79.5746 17.4965 79.8459 17.4706 80.094 17.4188C80.342 17.3669 80.554 17.2589 80.73 17.0947C80.9059 16.9306 81.0416 16.6995 81.137 16.4014C81.2324 16.1033 81.2791 15.708 81.2791 15.2155H79.0615V15.2133ZM79.2587 7.76329C78.5845 7.76329 78.0651 8.01602 77.7005 8.52147C77.3337 9.02692 77.1514 9.70302 77.1514 10.5498C77.1514 11.4851 77.338 12.1245 77.7111 12.4657C78.0842 12.807 78.6227 12.9777 79.3244 12.9777H81.2791V10.4374C81.2791 9.56046 81.1179 8.89732 80.7957 8.44371C80.4735 7.99009 79.9604 7.76329 79.2587 7.76329Z" fill="#F4F4F2"/>
<path d="M50.9099 17.9352V17.8229C50.9099 17.8056 50.9184 17.7969 50.9354 17.7969H51.1728C51.1898 17.7969 51.1982 17.8056 51.1982 17.8229V18.6739C51.1982 18.7258 51.2088 18.7625 51.2279 18.7819C51.247 18.8014 51.2788 18.8122 51.3233 18.8122H51.4208C51.4908 18.8122 51.5247 18.8554 51.5247 18.9461C51.5247 19.0001 51.5162 19.0346 51.4993 19.0519C51.4823 19.0692 51.4569 19.0778 51.4208 19.0778H51.211C51.1262 19.0778 51.0604 19.0627 51.0138 19.0325C50.9672 19.0022 50.9354 18.9482 50.9205 18.8726C50.8845 18.905 50.8421 18.9288 50.7912 18.9461C50.7403 18.9612 50.6894 18.9698 50.6343 18.9698C50.5665 18.9698 50.5029 18.9612 50.4435 18.9418C50.3842 18.9223 50.3312 18.8921 50.2888 18.8532C50.2442 18.8122 50.2103 18.7625 50.1849 18.6998C50.1595 18.6372 50.1467 18.5616 50.1467 18.4752C50.1467 18.3737 50.1616 18.2873 50.1891 18.2203C50.2167 18.1512 50.2548 18.0972 50.3036 18.0561C50.3502 18.0151 50.4054 17.9849 50.4647 17.9676C50.5241 17.9503 50.5877 17.9417 50.6534 17.9417H50.912L50.9099 17.9352ZM50.416 17.6133C50.399 17.6133 50.3905 17.6047 50.3905 17.5874V17.3584C50.3905 17.3412 50.399 17.3325 50.416 17.3325H50.6322C50.6492 17.3325 50.6576 17.3412 50.6576 17.3584V17.5874C50.6576 17.6047 50.6492 17.6133 50.6322 17.6133H50.416ZM50.6661 18.7042C50.7488 18.7042 50.8103 18.6804 50.8506 18.6329C50.8909 18.5854 50.9099 18.5141 50.9099 18.4212V18.1987H50.6788C50.6046 18.1987 50.5453 18.2181 50.5008 18.257C50.4562 18.2959 50.4329 18.3672 50.4329 18.4687C50.4329 18.5486 50.4541 18.6091 50.4944 18.6458C50.5347 18.6826 50.5919 18.7042 50.664 18.7042H50.6661ZM50.7509 17.6133C50.734 17.6133 50.7255 17.6047 50.7255 17.5874V17.3584C50.7255 17.3412 50.734 17.3325 50.7509 17.3325H50.9672C50.9841 17.3325 50.9926 17.3412 50.9926 17.3584V17.5874C50.9926 17.6047 50.9841 17.6133 50.9672 17.6133H50.7509Z" fill="#F4F4F2"/>
<path d="M52.0103 18.9395C51.987 18.9914 51.9509 19.0259 51.9022 19.0454C51.8534 19.0648 51.7877 19.0735 51.705 19.0735H51.4655C51.4315 19.0735 51.4061 19.0648 51.387 19.0475C51.3701 19.0303 51.3616 18.9979 51.3616 18.9482C51.3616 18.8985 51.3701 18.8618 51.387 18.8402C51.404 18.8186 51.4294 18.8099 51.4655 18.8099H51.6329C51.6647 18.8099 51.6881 18.8056 51.705 18.7948C51.722 18.7862 51.7326 18.7711 51.7411 18.7495C51.7495 18.7279 51.7538 18.7041 51.7559 18.6717C51.758 18.6393 51.758 18.5982 51.758 18.5529V18.0064C51.758 18.0064 51.7623 17.9891 51.7729 17.9848C51.7835 17.9805 51.7919 17.9805 51.8025 17.9805H52.023C52.04 17.9805 52.0485 17.9891 52.0485 18.0064V18.6479C52.0485 18.6998 52.0675 18.7408 52.1057 18.7689C52.1439 18.797 52.1969 18.8121 52.2626 18.8121H52.3071C52.341 18.8121 52.3665 18.8229 52.3855 18.8402C52.4025 18.8596 52.411 18.892 52.411 18.9395C52.411 18.9914 52.4025 19.0259 52.3855 19.0454C52.3686 19.0648 52.3431 19.0735 52.3071 19.0735C52.2393 19.0735 52.182 19.0648 52.1311 19.0475C52.0803 19.0303 52.0421 18.9935 52.0124 18.9374L52.0103 18.9395ZM51.6096 19.5811C51.5927 19.5811 51.5842 19.5724 51.5842 19.5552V19.3262C51.5842 19.3089 51.5927 19.3003 51.6096 19.3003H51.8259C51.8428 19.3003 51.8513 19.3089 51.8513 19.3262V19.5552C51.8513 19.5724 51.8428 19.5811 51.8259 19.5811H51.6096ZM51.9467 19.5811C51.9297 19.5811 51.9213 19.5724 51.9213 19.5552V19.3262C51.9213 19.3089 51.9297 19.3003 51.9467 19.3003H52.1629C52.1799 19.3003 52.1884 19.3089 52.1884 19.3262V19.5552C52.1884 19.5724 52.1799 19.5811 52.1629 19.5811H51.9467Z" fill="#F4F4F2"/>
<path d="M52.8369 17.9697C52.9281 17.9697 53.0108 17.9783 53.0871 17.9891C53.1634 17.9999 53.227 18.0237 53.28 18.0582C53.333 18.0928 53.3733 18.1425 53.403 18.2073C53.4326 18.2721 53.4475 18.3585 53.4475 18.4665V18.6242C53.4475 18.7127 53.439 18.784 53.4242 18.8423C53.4093 18.9006 53.386 18.946 53.3542 18.9806C53.3224 19.0151 53.2842 19.0411 53.2355 19.054C53.1867 19.067 53.1316 19.0756 53.0659 19.0756H52.3048C52.2709 19.0756 52.2454 19.0648 52.2264 19.0454C52.2073 19.0259 52.2009 18.9892 52.2009 18.9374C52.2009 18.8855 52.2094 18.8531 52.2264 18.8358C52.2433 18.8207 52.2688 18.8121 52.3048 18.8121H52.945C52.9917 18.8121 53.0277 18.8078 53.0574 18.8013C53.085 18.7948 53.1062 18.784 53.121 18.7667C53.1358 18.7516 53.1443 18.73 53.1486 18.7041C53.1528 18.6782 53.1549 18.6458 53.1549 18.6047V18.4622C53.1549 18.3844 53.1337 18.3261 53.0913 18.2872C53.0489 18.2505 52.9832 18.231 52.8899 18.231H52.4744C52.4574 18.231 52.449 18.2224 52.449 18.2051V18.0215C52.449 18.0085 52.4532 17.9977 52.4638 17.9869C52.4744 17.9761 52.4829 17.9675 52.4892 17.9567L53.0468 17.2871C53.0574 17.2741 53.068 17.272 53.0807 17.2784L53.2482 17.421C53.2609 17.4318 53.2652 17.4448 53.2588 17.4577L52.8327 17.9653L52.8369 17.9697Z" fill="#F4F4F2"/>
<path d="M53.8694 18.1988C53.8524 18.1988 53.844 18.1902 53.844 18.1729V17.9612C53.844 17.9439 53.8524 17.9353 53.8694 17.9353H54.2616C54.4058 17.9353 54.5203 17.972 54.6051 18.0455C54.6899 18.1189 54.7322 18.2399 54.7322 18.4062V18.6524C54.7322 18.7021 54.7513 18.7432 54.7895 18.7712C54.8277 18.7993 54.8785 18.8144 54.9442 18.8144H54.9888C55.0227 18.8144 55.0481 18.8252 55.0672 18.8425C55.0842 18.862 55.0927 18.8944 55.0927 18.9419C55.0927 18.9937 55.0842 19.0283 55.0672 19.0477C55.0503 19.0672 55.0248 19.0758 54.9888 19.0758C54.9167 19.0758 54.8531 19.065 54.8022 19.0477C54.7492 19.0283 54.7089 18.9872 54.6792 18.9246C54.6474 18.9851 54.6029 19.0261 54.5478 19.0456C54.4927 19.065 54.4206 19.0758 54.3337 19.0758H53.7549C53.738 19.0758 53.7295 19.0672 53.7295 19.0499V18.8404C53.7295 18.8231 53.738 18.8144 53.7549 18.8144H54.2362C54.2828 18.8144 54.3188 18.8101 54.3464 18.8036C54.374 18.7972 54.3952 18.7842 54.41 18.7691C54.4249 18.754 54.4333 18.7302 54.4376 18.7043C54.4418 18.6783 54.4439 18.6459 54.4439 18.6071V18.4321C54.4439 18.3522 54.4227 18.2939 54.3782 18.2571C54.3337 18.2204 54.268 18.201 54.181 18.201H53.8715L53.8694 18.1988ZM54.0114 17.7193C53.9945 17.7193 53.986 17.7106 53.986 17.6934V17.4644C53.986 17.4471 53.9945 17.4385 54.0114 17.4385H54.2595C54.2765 17.4385 54.2849 17.4471 54.2849 17.4644V17.6934C54.2849 17.7106 54.2765 17.7193 54.2595 17.7193H54.0114Z" fill="#F4F4F2"/>
<path d="M54.9781 19.0756C54.9442 19.0756 54.9188 19.0669 54.8997 19.0496C54.8827 19.0324 54.8743 18.9978 54.8743 18.9481C54.8743 18.8984 54.8827 18.8639 54.8997 18.8423C54.9167 18.8207 54.9421 18.812 54.9781 18.812H55.1053C55.1477 18.812 55.1795 18.8012 55.2007 18.7818C55.2219 18.7624 55.2304 18.7256 55.2304 18.6716V17.3086C55.2304 17.2914 55.2389 17.2827 55.2559 17.2827H55.4933C55.5103 17.2827 55.5187 17.2914 55.5187 17.3086V18.7429C55.5187 18.8574 55.4954 18.9416 55.4488 18.9935C55.4021 19.0475 55.3258 19.0734 55.2177 19.0734H54.9781V19.0756Z" fill="#F4F4F2"/>
<path d="M56.1484 19.0499C56.1484 19.0672 56.1399 19.0758 56.123 19.0758H55.8855C55.8686 19.0758 55.8601 19.0672 55.8601 19.0499V17.3111C55.8601 17.2938 55.8686 17.2852 55.8855 17.2852H56.123C56.1399 17.2852 56.1484 17.2938 56.1484 17.3111V19.0499Z" fill="#F4F4F2"/>
<path d="M58.6478 18.7818C58.6669 18.7623 58.6775 18.7256 58.6775 18.6738V18.0085C58.6775 17.9912 58.686 17.9826 58.703 17.9826H58.9404C58.9574 17.9826 58.9658 17.9912 58.9658 18.0085V18.7429C58.9658 18.8574 58.9425 18.9416 58.8959 18.9935C58.8493 19.0453 58.7708 19.0734 58.6585 19.0734H57.3674C57.2593 19.0734 57.1808 19.0453 57.1342 18.9913C57.0875 18.9373 57.0642 18.8531 57.0642 18.7386V18.1726C57.0642 18.1554 57.0727 18.1467 57.0897 18.1467H57.3271C57.3441 18.1467 57.3525 18.1554 57.3525 18.1726V18.6695C57.3525 18.7213 57.3631 18.758 57.3822 18.7796C57.4013 18.7991 57.4331 18.8099 57.4776 18.8099H58.5482C58.5927 18.8099 58.6245 18.7991 58.6457 18.7796L58.6478 18.7818ZM57.749 17.8746C57.732 17.8746 57.7235 17.8659 57.7235 17.8486V17.6197C57.7235 17.6024 57.732 17.5938 57.749 17.5938H57.9652C57.9822 17.5938 57.9907 17.6024 57.9907 17.6197V17.8486C57.9907 17.8659 57.9822 17.8746 57.9652 17.8746H57.749ZM58.0839 17.8746C58.067 17.8746 58.0585 17.8659 58.0585 17.8486V17.6197C58.0585 17.6024 58.067 17.5938 58.0839 17.5938H58.3002C58.3171 17.5938 58.3256 17.6024 58.3256 17.6197V17.8486C58.3256 17.8659 58.3171 17.8746 58.3002 17.8746H58.0839Z" fill="#F4F4F2"/>
<path d="M59.2671 17.3111C59.2671 17.2938 59.2756 17.2852 59.2925 17.2852H59.53C59.5469 17.2852 59.5554 17.2938 59.5554 17.3111V18.6741C59.5554 18.7259 59.566 18.7626 59.5851 18.7842C59.6042 18.8037 59.636 18.8145 59.6805 18.8145H59.7717C59.8056 18.8145 59.831 18.8253 59.8501 18.8447C59.867 18.8642 59.8755 18.9009 59.8755 18.9506C59.8755 19.0067 59.867 19.0413 59.8501 19.0564C59.8331 19.0715 59.8077 19.078 59.7717 19.078H59.5681C59.46 19.078 59.3837 19.0521 59.337 18.9981C59.2904 18.9441 59.2671 18.8598 59.2671 18.7475V17.3132V17.3111Z" fill="#F4F4F2"/>
<path d="M60.4966 17.935C60.6959 17.935 60.8401 17.9717 60.9312 18.0473C61.0224 18.1229 61.069 18.2223 61.069 18.3432C61.069 18.3951 61.0606 18.4448 61.0436 18.4923C61.0266 18.5376 61.0054 18.5808 60.98 18.6219C60.9546 18.6608 60.9249 18.6975 60.8931 18.7277C60.8613 18.758 60.8295 18.786 60.7977 18.8055C60.8125 18.8098 60.8274 18.8098 60.8422 18.8098H61.2174C61.2577 18.8098 61.2832 18.8206 61.298 18.8422C61.3128 18.8638 61.3192 18.8984 61.3192 18.9481C61.3192 18.9977 61.3107 19.0301 61.2938 19.0474C61.2768 19.0647 61.2514 19.0733 61.2174 19.0733H60.8316C60.7701 19.0733 60.7108 19.0669 60.6556 19.0561C60.5984 19.0453 60.5454 19.0237 60.4966 18.9913C60.4394 19.0237 60.38 19.0453 60.3164 19.0561C60.2528 19.0669 60.1956 19.0733 60.1468 19.0733H59.7737C59.7419 19.0733 59.7165 19.0647 59.6995 19.0474C59.6826 19.0301 59.6741 18.9977 59.6741 18.9481C59.6741 18.8984 59.6804 18.8681 59.691 18.8444C59.7016 18.8206 59.7313 18.8098 59.7758 18.8098H60.079C60.1066 18.8098 60.1384 18.8098 60.1723 18.8055C60.2062 18.8033 60.2465 18.7968 60.2931 18.786C60.2783 18.7277 60.2613 18.678 60.238 18.637C60.2147 18.5938 60.1892 18.5571 60.1596 18.5247C60.1299 18.4923 60.0981 18.4642 60.0642 18.4383C60.0302 18.4124 59.9963 18.3886 59.9624 18.3627C59.9433 18.3497 59.9327 18.3368 59.9306 18.3238C59.9285 18.3108 59.9264 18.3 59.9264 18.2849V18.1186C59.9264 18.0991 59.9433 18.0775 59.9751 18.0559C60.0069 18.0343 60.0514 18.0127 60.1044 17.9933C60.1574 17.9739 60.2189 17.9587 60.2889 17.9479C60.3588 17.935 60.4288 17.9307 60.5009 17.9307L60.4966 17.935ZM60.5369 18.7299C60.5645 18.7126 60.592 18.691 60.6217 18.6672C60.6493 18.6435 60.6747 18.6154 60.6959 18.5873C60.7171 18.5592 60.7341 18.5268 60.7489 18.4944C60.7638 18.462 60.7701 18.4275 60.7701 18.3929C60.7701 18.3216 60.7447 18.2698 60.6938 18.2417C60.6429 18.2136 60.5772 18.1985 60.4988 18.1985C60.4288 18.1985 60.3694 18.205 60.3186 18.2201C60.2677 18.2352 60.2338 18.246 60.2147 18.2568C60.2931 18.3087 60.361 18.3735 60.4182 18.4556C60.4754 18.5376 60.5136 18.6284 60.539 18.7299H60.5369Z" fill="#F4F4F2"/>
<path d="M61.4804 18.4945C61.4804 18.393 61.4952 18.3066 61.5228 18.2353C61.5503 18.164 61.5864 18.1057 61.6351 18.0625C61.6818 18.0171 61.739 17.9847 61.8026 17.9653C61.8662 17.9459 61.9362 17.9351 62.0125 17.9351C62.0888 17.9351 62.1588 17.9459 62.2245 17.9675C62.2902 17.9891 62.3474 18.0215 62.3941 18.0668C62.4407 18.1122 62.4789 18.1727 62.5064 18.2483C62.534 18.3239 62.5467 18.4146 62.5467 18.5226V18.568C62.5467 18.5831 62.5467 18.5982 62.5446 18.6112C62.5446 18.6846 62.5637 18.7364 62.5955 18.7667C62.6273 18.7969 62.6633 18.812 62.7057 18.812H62.7799C62.8138 18.812 62.8393 18.8228 62.8584 18.8401C62.8753 18.8596 62.8838 18.892 62.8838 18.9395C62.8838 18.9913 62.8753 19.0259 62.8584 19.0453C62.8414 19.0648 62.816 19.0734 62.7799 19.0734C62.7502 19.0734 62.7206 19.0734 62.6888 19.0713C62.657 19.0691 62.6252 19.0648 62.5934 19.054C62.5616 19.0432 62.5319 19.0302 62.5022 19.0108C62.4725 18.9913 62.4471 18.9654 62.4259 18.933C62.3792 18.9892 62.322 19.0302 62.252 19.0561C62.1821 19.0821 62.1036 19.0929 62.0146 19.0929C61.9256 19.0929 61.8514 19.0799 61.7814 19.0561C61.7114 19.0324 61.6542 18.9935 61.6076 18.9373C61.5906 18.9654 61.5694 18.9892 61.5461 19.0064C61.5206 19.0237 61.4973 19.0388 61.4698 19.0475C61.4443 19.0583 61.4168 19.0648 61.3892 19.0669C61.3616 19.0691 61.3362 19.0713 61.3108 19.0713H61.2196C61.1857 19.0713 61.1602 19.0605 61.1412 19.041C61.1221 19.0216 61.1157 18.987 61.1157 18.9395C61.1157 18.8876 61.1242 18.8531 61.1412 18.8358C61.1581 18.8185 61.1836 18.8099 61.2196 18.8099H61.3214C61.3638 18.8099 61.3998 18.7926 61.4316 18.758C61.4634 18.7235 61.4825 18.6608 61.4825 18.5701C61.4825 18.555 61.4804 18.542 61.4804 18.5312V18.4924V18.4945ZM62.0125 18.1986C61.9298 18.1986 61.8683 18.2267 61.8302 18.2807C61.7899 18.3347 61.7708 18.4146 61.7708 18.5161C61.7708 18.6284 61.7899 18.7084 61.8302 18.758C61.8704 18.8077 61.9298 18.8315 62.0125 18.8315C62.0952 18.8315 62.1588 18.8056 62.1969 18.7559C62.2372 18.7062 62.2563 18.6263 62.2563 18.5161C62.2563 18.3044 62.1757 18.1986 62.0125 18.1986Z" fill="#F4F4F2"/>
<path d="M63.3311 18.9397C63.3078 18.9916 63.2717 19.0261 63.223 19.0456C63.1742 19.065 63.1085 19.0736 63.0258 19.0736H62.7863C62.7523 19.0736 62.7269 19.065 62.7078 19.0477C62.6909 19.0304 62.6824 18.998 62.6824 18.9484C62.6824 18.8987 62.6909 18.862 62.7078 18.8404C62.7248 18.8188 62.7502 18.8101 62.7863 18.8101H62.9537C62.9855 18.8101 63.0089 18.8058 63.0258 18.795C63.0428 18.7864 63.0534 18.7712 63.0619 18.7496C63.0703 18.728 63.0746 18.7043 63.0767 18.6719C63.0788 18.6395 63.0788 18.5984 63.0788 18.5531V18.0066C63.0788 18.0066 63.0831 17.9893 63.0937 17.985C63.1043 17.9807 63.1127 17.9807 63.1233 17.9807H63.3438C63.3608 17.9807 63.3693 17.9893 63.3693 18.0066V18.6481C63.3693 18.7 63.3883 18.741 63.4265 18.7691C63.4647 18.7972 63.5177 18.8123 63.5834 18.8123H63.6279C63.6618 18.8123 63.6873 18.8231 63.7063 18.8404C63.7233 18.8598 63.7318 18.8922 63.7318 18.9397C63.7318 18.9916 63.7233 19.0261 63.7063 19.0456C63.6894 19.065 63.6639 19.0736 63.6279 19.0736C63.5601 19.0736 63.5028 19.065 63.4519 19.0477C63.4011 19.0304 63.3629 18.9937 63.3332 18.9376L63.3311 18.9397ZM62.9495 17.7193C62.9325 17.7193 62.9241 17.7106 62.9241 17.6934V17.4644C62.9241 17.4471 62.9325 17.4385 62.9495 17.4385H63.1657C63.1827 17.4385 63.1912 17.4471 63.1912 17.4644V17.6934C63.1912 17.7106 63.1827 17.7193 63.1657 17.7193H62.9495ZM63.2845 17.7193C63.2675 17.7193 63.259 17.7106 63.259 17.6934V17.4644C63.259 17.4471 63.2675 17.4385 63.2845 17.4385H63.5007C63.5177 17.4385 63.5261 17.4471 63.5261 17.4644V17.6934C63.5261 17.7106 63.5177 17.7193 63.5007 17.7193H63.2845Z" fill="#F4F4F2"/>
<path d="M63.7657 18.1489C63.8187 18.0884 63.8823 18.0366 63.9565 17.9955C64.0307 17.9545 64.1218 17.9351 64.2278 17.9351C64.3423 17.9351 64.4398 17.9523 64.5183 17.9891C64.5967 18.0258 64.6582 18.0733 64.7048 18.1338C64.7515 18.1943 64.7854 18.2634 64.8045 18.3433C64.8236 18.4232 64.8342 18.5075 64.8342 18.596C64.8342 18.609 64.8342 18.6198 64.8342 18.6306C64.8342 18.6414 64.8342 18.6522 64.8342 18.663C64.8384 18.7105 64.8596 18.7472 64.8978 18.7732C64.9338 18.7991 64.9847 18.812 65.0483 18.812H65.0928C65.1267 18.812 65.1522 18.8228 65.1712 18.8401C65.1882 18.8596 65.1967 18.892 65.1967 18.9395C65.1967 18.9913 65.1882 19.0259 65.1712 19.0453C65.1543 19.0648 65.1288 19.0734 65.0928 19.0734C65.0207 19.0734 64.9571 19.0626 64.902 19.0453C64.8469 19.0259 64.8066 18.9827 64.7769 18.9179C64.7451 18.9784 64.6985 19.0194 64.6412 19.041C64.584 19.0626 64.514 19.0734 64.4292 19.0734H63.63C63.5961 19.0734 63.5706 19.0626 63.5516 19.0432C63.5325 19.0237 63.5261 18.9892 63.5261 18.9416C63.5261 18.8898 63.5346 18.8552 63.5516 18.838C63.5685 18.8207 63.594 18.812 63.63 18.812H64.3169C64.3614 18.812 64.3974 18.8077 64.425 18.8012C64.4526 18.7948 64.4738 18.7818 64.4886 18.7645C64.5034 18.7472 64.514 18.7235 64.5204 18.6954C64.5268 18.6673 64.5289 18.6306 64.5289 18.5896C64.5289 18.5334 64.5246 18.4816 64.514 18.434C64.5034 18.3865 64.4865 18.3455 64.4632 18.3109C64.4398 18.2763 64.408 18.2483 64.3678 18.2288C64.3275 18.2094 64.2808 18.1986 64.2215 18.1986C64.1621 18.1986 64.1134 18.2094 64.0667 18.2331C64.0201 18.2569 63.9798 18.2871 63.9416 18.326C63.9289 18.339 63.9183 18.339 63.9056 18.3282L63.772 18.1856C63.7572 18.1705 63.7572 18.1597 63.7678 18.1489H63.7657ZM64.1409 19.5767C64.124 19.5767 64.1155 19.5681 64.1155 19.5508V19.3218C64.1155 19.3045 64.124 19.2959 64.1409 19.2959H64.389C64.4059 19.2959 64.4144 19.3045 64.4144 19.3218V19.5508C64.4144 19.5681 64.4059 19.5767 64.389 19.5767H64.1409Z" fill="#F4F4F2"/>
<path d="M65.3515 18.4945C65.3515 18.393 65.3663 18.3066 65.3939 18.2353C65.4214 18.164 65.4575 18.1057 65.5062 18.0625C65.5529 18.0171 65.6101 17.9847 65.6737 17.9653C65.7373 17.9459 65.8073 17.9351 65.8836 17.9351C65.9599 17.9351 66.0299 17.9459 66.0956 17.9675C66.1613 17.9891 66.2185 18.0215 66.2652 18.0668C66.3118 18.1122 66.35 18.1727 66.3775 18.2483C66.4051 18.3239 66.4178 18.4146 66.4178 18.5226V18.568C66.4178 18.5831 66.4178 18.5982 66.4157 18.6112C66.4157 18.6846 66.4348 18.7364 66.4666 18.7667C66.4984 18.7969 66.5344 18.812 66.5768 18.812H66.651C66.6849 18.812 66.7104 18.8228 66.7295 18.8401C66.7464 18.8596 66.7549 18.892 66.7549 18.9395C66.7549 18.9913 66.7464 19.0259 66.7295 19.0453C66.7125 19.0648 66.6871 19.0734 66.651 19.0734C66.6213 19.0734 66.5917 19.0734 66.5599 19.0713C66.5281 19.0691 66.4963 19.0648 66.4645 19.054C66.4327 19.0432 66.403 19.0302 66.3733 19.0108C66.3436 18.9913 66.3182 18.9654 66.297 18.933C66.2503 18.9892 66.1931 19.0302 66.1231 19.0561C66.0532 19.0821 65.9747 19.0929 65.8857 19.0929C65.7967 19.0929 65.7225 19.0799 65.6525 19.0561C65.5825 19.0324 65.5253 18.9935 65.4787 18.9373C65.4617 18.9654 65.4405 18.9892 65.4172 19.0064C65.3917 19.0237 65.3684 19.0388 65.3409 19.0475C65.3154 19.0583 65.2879 19.0648 65.2603 19.0669C65.2327 19.0691 65.2073 19.0713 65.1819 19.0713H65.0907C65.0568 19.0713 65.0313 19.0605 65.0123 19.041C64.9932 19.0216 64.9868 18.987 64.9868 18.9395C64.9868 18.8876 64.9953 18.8531 65.0123 18.8358C65.0292 18.8185 65.0547 18.8099 65.0907 18.8099H65.1925C65.2349 18.8099 65.2709 18.7926 65.3027 18.758C65.3345 18.7235 65.3536 18.6608 65.3536 18.5701C65.3536 18.555 65.3515 18.542 65.3515 18.5312V18.4924V18.4945ZM65.8836 18.1986C65.8009 18.1986 65.7394 18.2267 65.7013 18.2807C65.661 18.3347 65.6419 18.4146 65.6419 18.5161C65.6419 18.6284 65.661 18.7084 65.7013 18.758C65.7415 18.8077 65.8009 18.8315 65.8836 18.8315C65.9663 18.8315 66.0299 18.8056 66.068 18.7559C66.1083 18.7062 66.1274 18.6263 66.1274 18.5161C66.1274 18.3044 66.0468 18.1986 65.8836 18.1986Z" fill="#F4F4F2"/>
<path d="M66.6446 19.0756C66.6107 19.0756 66.5853 19.0669 66.5662 19.0496C66.5493 19.0324 66.5408 18.9978 66.5408 18.9481C66.5408 18.8984 66.5493 18.8639 66.5662 18.8423C66.5832 18.8207 66.6086 18.812 66.6446 18.812H66.7719C66.8143 18.812 66.8461 18.8012 66.8673 18.7818C66.8885 18.7624 66.8969 18.7256 66.8969 18.6716V17.3086C66.8969 17.2914 66.9054 17.2827 66.9224 17.2827H67.1598C67.1768 17.2827 67.1853 17.2914 67.1853 17.3086V18.7429C67.1853 18.8574 67.1619 18.9416 67.1153 18.9935C67.0686 19.0475 66.9923 19.0734 66.8842 19.0734H66.6446V19.0756Z" fill="#F4F4F2"/>
<path d="M67.8127 19.0499C67.8127 19.0672 67.8043 19.0758 67.7873 19.0758H67.5499C67.5329 19.0758 67.5244 19.0672 67.5244 19.0499V17.3111C67.5244 17.2938 67.5329 17.2852 67.5499 17.2852H67.7873C67.8043 17.2852 67.8127 17.2938 67.8127 17.3111V19.0499Z" fill="#F4F4F2"/>
<path d="M69.4619 17.9352V17.8229C69.4619 17.8056 69.4704 17.7969 69.4874 17.7969H69.7248C69.7418 17.7969 69.7503 17.8056 69.7503 17.8229V18.6739C69.7503 18.7258 69.7609 18.7625 69.7799 18.7819C69.799 18.8014 69.8308 18.8122 69.8753 18.8122H69.9729C70.0428 18.8122 70.0767 18.8554 70.0767 18.9461C70.0767 19.0001 70.0683 19.0346 70.0513 19.0519C70.0343 19.0692 70.0089 19.0778 69.9729 19.0778H69.763C69.6782 19.0778 69.6124 19.0627 69.5658 19.0325C69.5192 19.0022 69.4874 18.9482 69.4725 18.8726C69.4365 18.905 69.3941 18.9288 69.3432 18.9461C69.2923 18.9612 69.2415 18.9698 69.1863 18.9698C69.1185 18.9698 69.0549 18.9612 68.9955 18.9418C68.9362 18.9223 68.8832 18.8921 68.8408 18.8532C68.7963 18.8122 68.7623 18.7625 68.7369 18.6998C68.7114 18.6372 68.6987 18.5616 68.6987 18.4752C68.6987 18.3737 68.7136 18.2873 68.7411 18.2203C68.7687 18.1512 68.8069 18.0972 68.8556 18.0561C68.9023 18.0151 68.9574 17.9849 69.0167 17.9676C69.0761 17.9503 69.1397 17.9417 69.2054 17.9417H69.4641L69.4619 17.9352ZM68.968 17.6133C68.951 17.6133 68.9425 17.6047 68.9425 17.5874V17.3584C68.9425 17.3412 68.951 17.3325 68.968 17.3325H69.1842C69.2012 17.3325 69.2097 17.3412 69.2097 17.3584V17.5874C69.2097 17.6047 69.2012 17.6133 69.1842 17.6133H68.968ZM69.2203 18.7042C69.3029 18.7042 69.3644 18.6804 69.4047 18.6329C69.445 18.5854 69.4641 18.5141 69.4641 18.4212V18.1987H69.233C69.1588 18.1987 69.0994 18.2181 69.0549 18.257C69.0104 18.2959 68.9871 18.3672 68.9871 18.4687C68.9871 18.5486 69.0082 18.6091 69.0485 18.6458C69.0888 18.6826 69.1461 18.7042 69.2181 18.7042H69.2203ZM69.3051 17.6133C69.2881 17.6133 69.2796 17.6047 69.2796 17.5874V17.3584C69.2796 17.3412 69.2881 17.3325 69.3051 17.3325H69.5213C69.5383 17.3325 69.5467 17.3412 69.5467 17.3584V17.5874C69.5467 17.6047 69.5383 17.6133 69.5213 17.6133H69.3051Z" fill="#F4F4F2"/>
<path d="M70.5433 18.0819C70.6239 18.0409 70.715 18.0063 70.8125 17.9783C70.9122 17.9502 71.0139 17.9351 71.1178 17.9351C71.2302 17.9351 71.3256 17.9502 71.4061 17.9804C71.4867 18.0107 71.5524 18.0517 71.6033 18.1057C71.6542 18.1597 71.6902 18.2267 71.7157 18.3044C71.739 18.3822 71.7517 18.4686 71.7517 18.5636C71.7517 18.5809 71.7517 18.5982 71.7517 18.6133C71.7517 18.6284 71.7517 18.6414 71.7517 18.6522C71.7517 18.704 71.7729 18.7451 71.8111 18.7732C71.8492 18.8012 71.9001 18.8164 71.9658 18.8164H72.0103C72.0443 18.8164 72.0697 18.8272 72.0888 18.8444C72.1057 18.8639 72.1142 18.8963 72.1142 18.9438C72.1142 18.9956 72.1057 19.0302 72.0888 19.0497C72.0718 19.0691 72.0464 19.0777 72.0103 19.0777C71.9361 19.0777 71.8704 19.0669 71.8153 19.0453C71.7602 19.0237 71.7178 18.9784 71.6902 18.9114C71.6542 18.9827 71.6012 19.0281 71.5312 19.0497C71.4613 19.0691 71.3701 19.0799 71.2556 19.0799H70.7468C70.7193 19.0799 70.6896 19.0799 70.662 19.0799C70.6323 19.0799 70.6048 19.0777 70.5772 19.0734C70.5497 19.0691 70.5242 19.0648 70.4988 19.0604C70.4733 19.0561 70.4521 19.0475 70.4352 19.0367C70.4076 19.0561 70.3779 19.0691 70.344 19.0734C70.3101 19.0777 70.2719 19.0821 70.2274 19.0821H70.0133C69.9794 19.0821 69.9539 19.0734 69.9349 19.0561C69.9179 19.0389 69.9094 19.0064 69.9094 18.9568C69.9094 18.9006 69.9179 18.8617 69.9349 18.8444C69.9518 18.8272 69.9773 18.8185 70.0133 18.8185H70.132C70.1638 18.8185 70.1893 18.812 70.2062 18.7969C70.2232 18.7818 70.2359 18.7624 70.2444 18.7386C70.2529 18.7127 70.2571 18.6846 70.2592 18.65C70.2592 18.6176 70.2613 18.5809 70.2613 18.5442V18.0042C70.2613 17.9869 70.2698 17.9783 70.2868 17.9783H70.5242C70.5412 17.9783 70.5497 17.9869 70.5497 18.0042V18.0884L70.5433 18.0819ZM71.0775 18.1986C70.98 18.1986 70.8846 18.2137 70.7935 18.2439C70.7002 18.2742 70.6175 18.3066 70.5454 18.3412V18.6976C70.5454 18.7192 70.5454 18.7386 70.5433 18.758C70.5433 18.7775 70.5391 18.7948 70.5348 18.8142H71.0966C71.1708 18.8142 71.2302 18.8142 71.2768 18.8099C71.3235 18.8056 71.3574 18.7969 71.3828 18.7818C71.4083 18.7645 71.4252 18.7386 71.4337 18.704C71.4422 18.6673 71.4464 18.6176 71.4464 18.5528C71.4464 18.4967 71.4401 18.447 71.4295 18.4038C71.4189 18.3606 71.3977 18.3239 71.3701 18.2936C71.3425 18.2634 71.3044 18.2418 71.2577 18.2245C71.2111 18.2094 71.1517 18.2007 71.0797 18.2007L71.0775 18.1986Z" fill="#F4F4F2"/>
<path d="M72.5615 18.6503C72.5615 18.7021 72.5806 18.7432 72.6188 18.7712C72.657 18.7993 72.71 18.8144 72.7757 18.8144H72.8202C72.8541 18.8144 72.8795 18.8252 72.8986 18.8425C72.9156 18.862 72.9241 18.8944 72.9241 18.9419C72.9241 18.9937 72.9156 19.0283 72.8986 19.0477C72.8817 19.0672 72.8562 19.0758 72.8202 19.0758C72.7523 19.0758 72.6951 19.0672 72.6442 19.0499C72.5934 19.0326 72.5552 18.9959 72.5255 18.9397C72.5022 18.9916 72.4662 19.0261 72.4195 19.0456C72.3729 19.065 72.3072 19.0736 72.2266 19.0736H72.0231C71.9891 19.0736 71.9637 19.0672 71.9446 19.0564C71.9277 19.0456 71.9192 19.0196 71.9192 18.9808C71.9192 18.9354 71.9277 18.8965 71.9446 18.862C71.9616 18.8274 71.987 18.8101 72.0252 18.8101H72.1503C72.1799 18.8101 72.2033 18.8058 72.2202 18.7972C72.2372 18.7885 72.2499 18.7756 72.2584 18.7561C72.2669 18.7367 72.2711 18.7108 72.2732 18.6805C72.2732 18.6481 72.2753 18.6092 72.2753 18.5639V18.0066C72.2753 17.9893 72.2838 17.9807 72.3008 17.9807H72.5403C72.5573 17.9807 72.5658 17.9893 72.5658 18.0066V18.6481L72.5615 18.6503ZM72.2944 17.7193C72.2775 17.7193 72.269 17.7106 72.269 17.6934V17.4644C72.269 17.4471 72.2775 17.4385 72.2944 17.4385H72.5425C72.5594 17.4385 72.5679 17.4471 72.5679 17.4644V17.6934C72.5679 17.7106 72.5594 17.7193 72.5425 17.7193H72.2944Z" fill="#F4F4F2"/>
<path d="M73.6025 19.095C73.5156 19.095 73.4392 19.0821 73.3693 19.0583C73.2993 19.0345 73.2421 18.9956 73.1955 18.9395C73.1785 18.9676 73.1573 18.9913 73.134 19.0086C73.1085 19.0259 73.0852 19.041 73.0576 19.0497C73.0322 19.0605 73.0046 19.0669 72.9771 19.0691C72.9495 19.0713 72.9241 19.0734 72.8986 19.0734H72.8075C72.7736 19.0734 72.7481 19.0626 72.7291 19.0432C72.71 19.0237 72.7036 18.9892 72.7036 18.9416C72.7036 18.8898 72.7121 18.8552 72.7291 18.838C72.746 18.8207 72.7715 18.812 72.8075 18.812H72.9093C72.9283 18.812 72.9474 18.8077 72.9665 18.7991C72.9856 18.7904 73.0025 18.7775 73.0174 18.7602C73.0322 18.7429 73.0449 18.717 73.0555 18.6868C73.0661 18.6565 73.0704 18.6176 73.0704 18.5723C73.0704 18.5572 73.0683 18.5442 73.0683 18.5334V18.4945C73.0683 18.393 73.0831 18.3066 73.1106 18.2353C73.1382 18.164 73.1742 18.1057 73.223 18.0625C73.2696 18.0171 73.3269 17.9847 73.3905 17.9653C73.4541 17.9459 73.524 17.9351 73.6004 17.9351C73.6767 17.9351 73.7466 17.9459 73.8124 17.9675C73.8781 17.9891 73.9353 18.0215 73.982 18.0668C74.0286 18.1122 74.0668 18.1727 74.0943 18.2483C74.1219 18.3239 74.1346 18.4146 74.1346 18.5226C74.1346 18.6306 74.1219 18.7148 74.0965 18.7861C74.071 18.8574 74.035 18.9157 73.9883 18.9632C73.9417 19.0086 73.8866 19.0432 73.8209 19.0626C73.7551 19.0842 73.6831 19.095 73.6025 19.095ZM73.6025 18.1986C73.5198 18.1986 73.4583 18.2267 73.4202 18.2807C73.3799 18.3347 73.3608 18.4146 73.3608 18.5161C73.3608 18.6284 73.3799 18.7084 73.4202 18.758C73.4605 18.8077 73.5198 18.8315 73.6025 18.8315C73.6852 18.8315 73.7488 18.8056 73.7869 18.7559C73.8272 18.7062 73.8463 18.6263 73.8463 18.5161C73.8463 18.3044 73.7657 18.1986 73.6025 18.1986Z" fill="#F4F4F2"/>
<path d="M49.5279 17.3325H49.1738V19.5833H49.5279V17.3325Z" fill="#F4F4F2"/>
<path d="M49.017 17.3325H48.2432V19.5833H49.017V17.3325Z" fill="#F4F4F2"/>
<path d="M48.0311 17.3325H46.2461V19.5833H48.0311V17.3325Z" fill="#F4F4F2"/>
<path d="M45.945 17.3325H14.675V19.5833H45.945V17.3325Z" fill="#F4F4F2"/>
</g>
<defs>
<clipPath id="clip0_122_2051">
<rect width="106" height="20" fill="white" transform="translate(0.131836)"/>
</clipPath>
</defs>
</svg>
