<svg width="107" height="20" viewBox="0 0 107 20" fill="none" xmlns="http://www.w3.org/2000/svg">
<g clip-path="url(#clip0_165_13)">
<path d="M106.132 9.81748L104.058 12.0013L100.41 8.15855L98.3366 5.97473L96.8081 4.36548L95.2817 5.97473L93.2104 8.15855L92.142 9.28178L89.3626 12.2087L88.9704 11.7939L87.2914 10.0248L88.9704 8.25575V4.03499H92.142V4.91414L92.9794 4.03499L93.2104 3.79307L94.7368 2.18166L96.8102 0L98.8814 2.18166L100.41 3.79307L100.641 4.03499L102.483 5.97473L106.132 9.81748Z" fill="#07074E"/>
<path d="M102.53 13.6106L100.457 15.7944L96.8081 11.9516L92.9624 16.0017L92.142 15.1356L90.889 13.8179L92.142 12.5003L94.7368 9.76565L96.8102 7.58398L98.8814 9.76565L102.53 13.6106Z" fill="#07074E"/>
<path d="M98.7585 17.5831L96.6109 19.8446L94.5121 17.6327C94.8704 16.7968 95.6908 16.2114 96.6427 16.2114C97.5946 16.2114 98.3832 16.773 98.7564 17.5831H98.7585Z" fill="#00AEEF"/>
<path d="M1.548 10.2257C1.60524 10.122 1.71548 10.1069 1.8766 10.1804L3.65528 10.8975C3.72948 10.9277 3.76764 10.9688 3.77612 11.0206C3.78248 11.0725 3.77188 11.1286 3.74432 11.1891C3.509 11.606 3.2864 12.0963 3.0744 12.6536C2.8624 13.2131 2.7564 13.8287 2.7564 14.4983C2.7564 15.0794 2.84756 15.5676 3.02988 15.9628C3.2122 16.3581 3.44752 16.6757 3.7316 16.9133C4.0178 17.1509 4.3358 17.3194 4.68772 17.4166C5.03964 17.5138 5.38308 17.5613 5.72016 17.5613C6.56816 17.5613 7.2508 17.3345 7.76172 16.8787C8.27476 16.4229 8.52916 15.6885 8.52916 14.6755V0.224646C8.52916 0.0756021 8.60124 0 8.74752 0H10.7721C10.9163 0 10.9905 0.0756021 10.9905 0.224646V14.7446C10.9905 15.5956 10.8633 16.3409 10.6068 16.9824C10.3502 17.6239 9.9856 18.1575 9.51072 18.583C9.03584 19.0085 8.4698 19.3239 7.8126 19.5334C7.1554 19.743 6.424 19.8466 5.62052 19.8466C4.81704 19.8466 4.1344 19.743 3.48356 19.5334C2.83272 19.3239 2.26668 19.0085 1.78544 18.583C1.30208 18.1575 0.926837 17.6239 0.655477 16.9824C0.384117 16.3409 0.250557 15.587 0.250557 14.723C0.250557 13.9173 0.375637 13.1116 0.623677 12.3059C0.871717 11.5002 1.17912 10.8068 1.54588 10.2257H1.548Z" fill="#07074E"/>
<path d="M13.8673 0.224646C13.8673 0.0756021 13.9394 0 14.0857 0H16.1103C16.2544 0 16.3286 0.0756021 16.3286 0.222486V11.7918C16.3286 12.2389 16.4134 12.5478 16.5809 12.7184C16.7484 12.8891 17.0155 12.9755 17.3823 12.9755H18.1497C18.4423 12.9755 18.6628 13.0619 18.809 13.2347C18.9553 13.4075 19.0295 13.7056 19.0295 14.1268C19.0295 14.5934 18.9596 14.8915 18.8218 15.0189C18.684 15.1463 18.4592 15.2111 18.1518 15.2111H16.4177C15.5018 15.2111 14.8489 14.9843 14.4567 14.5286C14.0645 14.0728 13.8694 13.3621 13.8694 12.3923V0.224646H13.8673Z" fill="#07074E"/>
<path d="M18.1709 15.2134C17.8784 15.2134 17.677 15.1378 17.5667 14.9866C17.4565 14.8354 17.4014 14.5568 17.4014 14.1507C17.4014 13.6992 17.4522 13.3903 17.554 13.224C17.6558 13.0577 17.8614 12.9756 18.1688 12.9756H20.804C21.0965 12.9756 21.317 13.0577 21.4633 13.224C21.6096 13.3903 21.6838 13.6754 21.6838 14.0837C21.6838 14.5503 21.6138 14.857 21.476 14.9996C21.3361 15.1421 21.1135 15.2134 20.8061 15.2134H18.1709Z" fill="#07074E"/>
<path d="M20.8061 15.2134C20.5135 15.2134 20.3121 15.1378 20.2019 14.9866C20.0916 14.8354 20.0365 14.5568 20.0365 14.1507C20.0365 13.6992 20.0874 13.3903 20.1892 13.224C20.2909 13.0577 20.4966 12.9756 20.804 12.9756H23.4391C23.7317 12.9756 23.9522 13.0577 24.0984 13.224C24.2447 13.3903 24.3189 13.6754 24.3189 14.0837C24.3189 14.5503 24.249 14.857 24.1112 14.9996C23.9712 15.1421 23.7486 15.2134 23.4412 15.2134H20.8061Z" fill="#07074E"/>
<path d="M23.4412 15.2134C23.1487 15.2134 22.9473 15.1378 22.837 14.9866C22.7268 14.8354 22.6717 14.5568 22.6717 14.1507C22.6717 13.6992 22.7226 13.3903 22.8243 13.224C22.9261 13.0577 23.1317 12.9756 23.4391 12.9756H26.0743C26.3668 12.9756 26.5873 13.0577 26.7336 13.224C26.8799 13.3903 26.9541 13.6754 26.9541 14.0837C26.9541 14.5503 26.8841 14.857 26.7463 14.9996C26.6064 15.1421 26.3838 15.2134 26.0764 15.2134H23.4412Z" fill="#07074E"/>
<path d="M26.0764 15.2134C25.7838 15.2134 25.5824 15.1378 25.4722 14.9866C25.362 14.8354 25.3068 14.5568 25.3068 14.1507C25.3068 13.6992 25.3577 13.3903 25.4595 13.224C25.5612 13.0577 25.7669 12.9756 26.0743 12.9756H28.7094C29.002 12.9756 29.2225 13.0577 29.3688 13.224C29.515 13.3903 29.5892 13.6754 29.5892 14.0837C29.5892 14.5503 29.5193 14.857 29.3815 14.9996C29.2416 15.1421 29.019 15.2134 28.7116 15.2134H26.0764Z" fill="#07074E"/>
<path d="M28.7116 15.2134C28.419 15.2134 28.2176 15.1378 28.1074 14.9866C27.9971 14.8354 27.942 14.5568 27.942 14.1507C27.942 13.6992 27.9929 13.3903 28.0946 13.224C28.1964 13.0577 28.402 12.9756 28.7094 12.9756H31.3446C31.6372 12.9756 31.8576 13.0577 32.0039 13.224C32.1502 13.3903 32.2244 13.6754 32.2244 14.0837C32.2244 14.5503 32.1544 14.857 32.0166 14.9996C31.8767 15.1421 31.6541 15.2134 31.3467 15.2134H28.7116Z" fill="#07074E"/>
<path d="M31.3467 15.2134C31.0542 15.2134 30.8528 15.1378 30.7425 14.9866C30.6323 14.8354 30.5772 14.5568 30.5772 14.1507C30.5772 13.6992 30.628 13.3903 30.7298 13.224C30.8316 13.0577 31.0372 12.9756 31.3446 12.9756H33.9798C34.2723 12.9756 34.4928 13.0577 34.6391 13.224C34.7854 13.3903 34.8596 13.6754 34.8596 14.0837C34.8596 14.5503 34.7896 14.857 34.6518 14.9996C34.5119 15.1421 34.2893 15.2134 33.9819 15.2134H31.3467Z" fill="#07074E"/>
<path d="M33.9819 15.2134C33.6893 15.2134 33.4879 15.1378 33.3777 14.9866C33.2674 14.8354 33.2123 14.5568 33.2123 14.1507C33.2123 13.6992 33.2632 13.3903 33.365 13.224C33.4667 13.0577 33.6724 12.9756 33.9798 12.9756H36.6149C36.9075 12.9756 37.128 13.0577 37.2742 13.224C37.4205 13.3903 37.4947 13.6754 37.4947 14.0837C37.4947 14.5503 37.4248 14.857 37.287 14.9996C37.147 15.1421 36.9244 15.2134 36.617 15.2134H33.9819Z" fill="#07074E"/>
<path d="M36.617 15.2134C36.3245 15.2134 36.1231 15.1378 36.0128 14.9866C35.9026 14.8354 35.8475 14.5568 35.8475 14.1507C35.8475 13.6992 35.8984 13.3903 36.0001 13.224C36.1019 13.0577 36.3075 12.9756 36.6149 12.9756H39.2501C39.5426 12.9756 39.7631 13.0577 39.9094 13.224C40.0557 13.3903 40.1299 13.6754 40.1299 14.0837C40.1299 14.5503 40.0599 14.857 39.9221 14.9996C39.7822 15.1421 39.5596 15.2134 39.2522 15.2134H36.617Z" fill="#07074E"/>
<path d="M39.2522 15.2134C38.9596 15.2134 38.7582 15.1378 38.648 14.9866C38.5378 14.8354 38.4826 14.5568 38.4826 14.1507C38.4826 13.6992 38.5335 13.3903 38.6353 13.224C38.737 13.0577 38.9427 12.9756 39.2501 12.9756H41.8852C42.1778 12.9756 42.3983 13.0577 42.5446 13.224C42.6908 13.3903 42.765 13.6754 42.765 14.0837C42.765 14.5503 42.6951 14.857 42.5573 14.9996C42.4174 15.1421 42.1948 15.2134 41.8874 15.2134H39.2522Z" fill="#07074E"/>
<path d="M41.8852 15.2134C41.5927 15.2134 41.3913 15.1378 41.281 14.9866C41.1708 14.8354 41.1157 14.5568 41.1157 14.1507C41.1157 13.6992 41.1666 13.3903 41.2683 13.224C41.3701 13.0577 41.5757 12.9756 41.8831 12.9756H44.5183C44.8108 12.9756 45.0313 13.0577 45.1776 13.224C45.3239 13.3903 45.3981 13.6754 45.3981 14.0837C45.3981 14.5503 45.3281 14.857 45.1903 14.9996C45.0504 15.1421 44.8278 15.2134 44.5204 15.2134H41.8852Z" fill="#07074E"/>
<path d="M44.5204 15.2134C44.2278 15.2134 44.0264 15.1378 43.9162 14.9866C43.806 14.8354 43.7508 14.5568 43.7508 14.1507C43.7508 13.6992 43.8017 13.3903 43.9035 13.224C44.0052 13.0577 44.2109 12.9756 44.5183 12.9756H47.1534C47.446 12.9756 47.6665 13.0577 47.8128 13.224C47.959 13.3903 48.0332 13.6754 48.0332 14.0837C48.0332 14.5503 47.9633 14.857 47.8255 14.9996C47.6856 15.1421 47.463 15.2134 47.1556 15.2134H44.5204Z" fill="#07074E"/>
<path d="M47.1556 15.2134C46.863 15.2134 46.6616 15.1378 46.5514 14.9866C46.4411 14.8354 46.386 14.5568 46.386 14.1507C46.386 13.6992 46.4369 13.3903 46.5386 13.224C46.6404 13.0577 46.846 12.9756 47.1534 12.9756H49.7886C50.0812 12.9756 50.3016 13.0577 50.4479 13.224C50.5942 13.3903 50.6684 13.6754 50.6684 14.0837C50.6684 14.5503 50.5984 14.857 50.4606 14.9996C50.3207 15.1421 50.0981 15.2134 49.7907 15.2134H47.1556Z" fill="#07074E"/>
<path d="M49.7907 15.2134C49.4982 15.2134 49.2968 15.1378 49.1865 14.9866C49.0763 14.8354 49.0212 14.5568 49.0212 14.1507C49.0212 13.6992 49.072 13.3903 49.1738 13.224C49.2756 13.0577 49.4812 12.9756 49.7886 12.9756H52.4238C52.7163 12.9756 52.9368 13.0577 53.0831 13.224C53.2294 13.3903 53.3036 13.6754 53.3036 14.0837C53.3036 14.5503 53.2336 14.857 53.0958 14.9996C52.9559 15.1421 52.7333 15.2134 52.4259 15.2134H49.7907Z" fill="#07074E"/>
<path d="M52.4259 15.2134C52.1333 15.2134 51.9319 15.1378 51.8217 14.9866C51.7114 14.8354 51.6563 14.5568 51.6563 14.1507C51.6563 13.6992 51.7072 13.3903 51.809 13.224C51.9107 13.0577 52.1164 12.9756 52.4238 12.9756H55.0589C55.3515 12.9756 55.572 13.0577 55.7182 13.224C55.8645 13.3903 55.9387 13.6754 55.9387 14.0837C55.9387 14.5503 55.8688 14.857 55.731 14.9996C55.591 15.1421 55.3684 15.2134 55.061 15.2134H52.4259Z" fill="#07074E"/>
<path d="M55.061 15.2134C54.7685 15.2134 54.5671 15.1378 54.4568 14.9866C54.3466 14.8354 54.2915 14.5568 54.2915 14.1507C54.2915 13.6992 54.3424 13.3903 54.4441 13.224C54.5459 13.0577 54.7515 12.9756 55.0589 12.9756H57.6941C57.9866 12.9756 58.2071 13.0577 58.3534 13.224C58.4997 13.3903 58.5739 13.6754 58.5739 14.0837C58.5739 14.5503 58.5039 14.857 58.3661 14.9996C58.2262 15.1421 58.0036 15.2134 57.6962 15.2134H55.061Z" fill="#07074E"/>
<path d="M62.2627 6.77823C62.9517 6.43478 63.7149 6.14101 64.5502 5.89476C65.3854 5.64851 66.2525 5.52539 67.1472 5.52539C68.1012 5.52539 68.9195 5.65283 69.6 5.90556C70.2826 6.16045 70.8402 6.51686 71.2727 6.97911C71.7052 7.44136 72.021 8.00514 72.2182 8.66828C72.4154 9.33142 72.515 10.0658 72.515 10.8715C72.515 11.7658 72.4387 12.4981 72.2839 13.064C72.1313 13.6321 71.8811 14.0749 71.5377 14.3946C71.1942 14.7164 70.7512 14.9325 70.2084 15.0448C69.6657 15.1571 69.0085 15.2133 68.2326 15.2133H64.1262C63.8908 15.2133 63.6322 15.2089 63.346 15.2025C63.0598 15.196 62.7821 15.1765 62.5107 15.1463C62.2394 15.1161 61.9956 15.0793 61.7751 15.034C61.5546 14.9886 61.3935 14.9217 61.2917 14.8331C61.0437 15.0124 60.7617 15.1204 60.4458 15.1571C60.13 15.1938 59.7611 15.2133 59.3371 15.2133H57.6898C57.3973 15.2133 57.1768 15.142 57.0305 14.9994C56.8842 14.8569 56.81 14.5739 56.81 14.1527C56.81 13.671 56.88 13.3535 57.0178 13.2044C57.1577 13.0532 57.3803 12.9776 57.6877 12.9776H58.8304C59.0636 12.9776 59.248 12.9452 59.3795 12.8782C59.5109 12.8113 59.6106 12.7033 59.6763 12.5542C59.742 12.4052 59.778 12.2151 59.7865 11.9861C59.795 11.7572 59.7971 11.4764 59.7971 11.1502V6.06541C59.7971 5.91636 59.8692 5.84076 60.0155 5.84076H62.0401C62.1842 5.84076 62.2584 5.91636 62.2584 6.06541V6.78039L62.2627 6.77823ZM66.7995 7.76321C65.9769 7.76321 65.1692 7.89066 64.3763 8.14122C63.5834 8.39395 62.8796 8.66828 62.2627 8.96421V11.9948C62.2627 12.1719 62.2542 12.3447 62.2415 12.5067C62.2266 12.6709 62.2054 12.8264 62.1758 12.9754H66.9542C67.586 12.9754 68.0948 12.9646 68.4849 12.943C68.875 12.9214 69.1739 12.8394 69.388 12.6968C69.6 12.5564 69.7442 12.3339 69.8184 12.0293C69.8926 11.7248 69.9286 11.2971 69.9286 10.7484C69.9286 10.2732 69.882 9.84983 69.7866 9.4783C69.6912 9.10677 69.5216 8.79572 69.2799 8.54299C69.0382 8.29027 68.7181 8.09802 68.3216 7.9641C67.9252 7.83017 67.4185 7.76321 66.8016 7.76321H66.7995Z" fill="#07074E"/>
<path d="M79.0616 15.2133C78.3726 15.2133 77.762 15.1356 77.2278 14.9779C76.6935 14.8202 76.2441 14.561 75.8773 14.1959C75.5106 13.8309 75.2307 13.3578 75.0314 12.7746C74.8343 12.1936 74.7346 11.4764 74.7346 10.6275C74.7346 9.71814 74.8555 8.93836 75.0972 8.29034C75.3388 7.64016 75.6696 7.11311 76.0872 6.7027C76.5048 6.29229 76.9861 5.9942 77.5288 5.80843C78.0715 5.62267 78.6439 5.52979 79.246 5.52979C79.9053 5.52979 80.5116 5.61835 81.0628 5.79763C81.6119 5.97692 82.0868 6.25989 82.4832 6.6487C82.8797 7.03751 83.1871 7.54296 83.4076 8.16938C83.628 8.7958 83.7383 9.56478 83.7383 10.4742V15.7102C83.7383 17.112 83.3906 18.1337 82.6974 18.7753C82.002 19.4168 80.995 19.7365 79.6764 19.7365H76.7126C76.5663 19.7365 76.4921 19.6609 76.4921 19.5119V17.7212C76.4921 17.5721 76.5663 17.4965 76.7126 17.4965H79.282C79.5746 17.4965 79.846 17.4706 80.094 17.4188C80.342 17.3669 80.554 17.2589 80.73 17.0947C80.906 16.9306 81.0416 16.6995 81.137 16.4014C81.2324 16.1033 81.2791 15.708 81.2791 15.2155H79.0616V15.2133ZM79.2587 7.76329C78.5846 7.76329 78.0652 8.01602 77.7005 8.52147C77.3338 9.02692 77.1514 9.70302 77.1514 10.5498C77.1514 11.4851 77.338 12.1245 77.7111 12.4657C78.0842 12.807 78.6227 12.9777 79.3244 12.9777H81.2791V10.4374C81.2791 9.56046 81.118 8.89732 80.7957 8.44371C80.4735 7.99009 79.9604 7.76329 79.2587 7.76329Z" fill="#07074E"/>
<path d="M50.9101 17.9352V17.8229C50.9101 17.8056 50.9186 17.7969 50.9355 17.7969H51.173C51.1899 17.7969 51.1984 17.8056 51.1984 17.8229V18.6739C51.1984 18.7258 51.209 18.7625 51.2281 18.7819C51.2472 18.8014 51.279 18.8122 51.3235 18.8122H51.421C51.491 18.8122 51.5249 18.8554 51.5249 18.9461C51.5249 19.0001 51.5164 19.0346 51.4994 19.0519C51.4825 19.0692 51.457 19.0778 51.421 19.0778H51.2111C51.1263 19.0778 51.0606 19.0627 51.014 19.0325C50.9673 19.0022 50.9355 18.9482 50.9207 18.8726C50.8846 18.905 50.8422 18.9288 50.7914 18.9461C50.7405 18.9612 50.6896 18.9698 50.6345 18.9698C50.5666 18.9698 50.503 18.9612 50.4437 18.9418C50.3843 18.9223 50.3313 18.8921 50.2889 18.8532C50.2444 18.8122 50.2105 18.7625 50.185 18.6998C50.1596 18.6372 50.1469 18.5616 50.1469 18.4752C50.1469 18.3737 50.1617 18.2873 50.1893 18.2203C50.2168 18.1512 50.255 18.0972 50.3038 18.0561C50.3504 18.0151 50.4055 17.9849 50.4649 17.9676C50.5242 17.9503 50.5878 17.9417 50.6536 17.9417H50.9122L50.9101 17.9352ZM50.4161 17.6133C50.3992 17.6133 50.3907 17.6047 50.3907 17.5874V17.3584C50.3907 17.3412 50.3992 17.3325 50.4161 17.3325H50.6324C50.6493 17.3325 50.6578 17.3412 50.6578 17.3584V17.5874C50.6578 17.6047 50.6493 17.6133 50.6324 17.6133H50.4161ZM50.6663 18.7042C50.749 18.7042 50.8104 18.6804 50.8507 18.6329C50.891 18.5854 50.9101 18.5141 50.9101 18.4212V18.1987H50.679C50.6048 18.1987 50.5454 18.2181 50.5009 18.257C50.4564 18.2959 50.4331 18.3672 50.4331 18.4687C50.4331 18.5486 50.4543 18.6091 50.4946 18.6458C50.5348 18.6826 50.5921 18.7042 50.6642 18.7042H50.6663ZM50.7511 17.6133C50.7341 17.6133 50.7256 17.6047 50.7256 17.5874V17.3584C50.7256 17.3412 50.7341 17.3325 50.7511 17.3325H50.9673C50.9843 17.3325 50.9928 17.3412 50.9928 17.3584V17.5874C50.9928 17.6047 50.9843 17.6133 50.9673 17.6133H50.7511Z" fill="#60605C"/>
<path d="M52.0104 18.9395C51.987 18.9914 51.951 19.0259 51.9022 19.0454C51.8535 19.0648 51.7878 19.0735 51.7051 19.0735H51.4655C51.4316 19.0735 51.4062 19.0648 51.3871 19.0475C51.3701 19.0303 51.3616 18.9979 51.3616 18.9482C51.3616 18.8985 51.3701 18.8618 51.3871 18.8402C51.404 18.8186 51.4295 18.8099 51.4655 18.8099H51.633C51.6648 18.8099 51.6881 18.8056 51.7051 18.7948C51.722 18.7862 51.7326 18.7711 51.7411 18.7495C51.7496 18.7279 51.7538 18.7041 51.756 18.6717C51.7581 18.6393 51.7581 18.5982 51.7581 18.5529V18.0064C51.7581 18.0064 51.7623 17.9891 51.7729 17.9848C51.7835 17.9805 51.792 17.9805 51.8026 17.9805H52.0231C52.04 17.9805 52.0485 17.9891 52.0485 18.0064V18.6479C52.0485 18.6998 52.0676 18.7408 52.1058 18.7689C52.1439 18.797 52.1969 18.8121 52.2626 18.8121H52.3072C52.3411 18.8121 52.3665 18.8229 52.3856 18.8402C52.4026 18.8596 52.411 18.892 52.411 18.9395C52.411 18.9914 52.4026 19.0259 52.3856 19.0454C52.3686 19.0648 52.3432 19.0735 52.3072 19.0735C52.2393 19.0735 52.1821 19.0648 52.1312 19.0475C52.0803 19.0303 52.0422 18.9935 52.0125 18.9374L52.0104 18.9395ZM51.6097 19.5811C51.5927 19.5811 51.5842 19.5724 51.5842 19.5552V19.3262C51.5842 19.3089 51.5927 19.3003 51.6097 19.3003H51.8259C51.8429 19.3003 51.8514 19.3089 51.8514 19.3262V19.5552C51.8514 19.5724 51.8429 19.5811 51.8259 19.5811H51.6097ZM51.9468 19.5811C51.9298 19.5811 51.9213 19.5724 51.9213 19.5552V19.3262C51.9213 19.3089 51.9298 19.3003 51.9468 19.3003H52.163C52.18 19.3003 52.1884 19.3089 52.1884 19.3262V19.5552C52.1884 19.5724 52.18 19.5811 52.163 19.5811H51.9468Z" fill="#60605C"/>
<path d="M52.8372 17.9697C52.9283 17.9697 53.011 17.9783 53.0873 17.9891C53.1636 17.9999 53.2272 18.0237 53.2802 18.0582C53.3332 18.0928 53.3735 18.1425 53.4032 18.2073C53.4329 18.2721 53.4477 18.3585 53.4477 18.4665V18.6242C53.4477 18.7127 53.4392 18.784 53.4244 18.8423C53.4096 18.9006 53.3862 18.946 53.3544 18.9806C53.3226 19.0151 53.2845 19.0411 53.2357 19.054C53.187 19.067 53.1318 19.0756 53.0661 19.0756H52.305C52.2711 19.0756 52.2457 19.0648 52.2266 19.0454C52.2075 19.0259 52.2012 18.9892 52.2012 18.9374C52.2012 18.8855 52.2096 18.8531 52.2266 18.8358C52.2436 18.8207 52.269 18.8121 52.305 18.8121H52.9453C52.9919 18.8121 53.028 18.8078 53.0576 18.8013C53.0852 18.7948 53.1064 18.784 53.1212 18.7667C53.1361 18.7516 53.1446 18.73 53.1488 18.7041C53.153 18.6782 53.1552 18.6458 53.1552 18.6047V18.4622C53.1552 18.3844 53.134 18.3261 53.0916 18.2872C53.0492 18.2505 52.9834 18.231 52.8902 18.231H52.4746C52.4577 18.231 52.4492 18.2224 52.4492 18.2051V18.0215C52.4492 18.0085 52.4534 17.9977 52.464 17.9869C52.4746 17.9761 52.4831 17.9675 52.4895 17.9567L53.047 17.2871C53.0576 17.2741 53.0682 17.272 53.081 17.2784L53.2484 17.421C53.2612 17.4318 53.2654 17.4448 53.259 17.4577L52.8329 17.9653L52.8372 17.9697Z" fill="#60605C"/>
<path d="M53.8696 18.1988C53.8526 18.1988 53.8442 18.1902 53.8442 18.1729V17.9612C53.8442 17.9439 53.8526 17.9353 53.8696 17.9353H54.2618C54.406 17.9353 54.5204 17.972 54.6052 18.0455C54.69 18.1189 54.7324 18.2399 54.7324 18.4062V18.6524C54.7324 18.7021 54.7515 18.7432 54.7897 18.7712C54.8278 18.7993 54.8787 18.8144 54.9444 18.8144H54.989C55.0229 18.8144 55.0483 18.8252 55.0674 18.8425C55.0844 18.862 55.0928 18.8944 55.0928 18.9419C55.0928 18.9937 55.0844 19.0283 55.0674 19.0477C55.0504 19.0672 55.025 19.0758 54.989 19.0758C54.9169 19.0758 54.8533 19.065 54.8024 19.0477C54.7494 19.0283 54.7091 18.9872 54.6794 18.9246C54.6476 18.9851 54.6031 19.0261 54.548 19.0456C54.4929 19.065 54.4208 19.0758 54.3339 19.0758H53.7551C53.7382 19.0758 53.7297 19.0672 53.7297 19.0499V18.8404C53.7297 18.8231 53.7382 18.8144 53.7551 18.8144H54.2364C54.283 18.8144 54.319 18.8101 54.3466 18.8036C54.3742 18.7972 54.3954 18.7842 54.4102 18.7691C54.425 18.754 54.4335 18.7302 54.4378 18.7043C54.442 18.6783 54.4441 18.6459 54.4441 18.6071V18.4321C54.4441 18.3522 54.4229 18.2939 54.3784 18.2571C54.3339 18.2204 54.2682 18.201 54.1812 18.201H53.8717L53.8696 18.1988ZM54.0116 17.7193C53.9947 17.7193 53.9862 17.7106 53.9862 17.6934V17.4644C53.9862 17.4471 53.9947 17.4385 54.0116 17.4385H54.2597C54.2766 17.4385 54.2851 17.4471 54.2851 17.4644V17.6934C54.2851 17.7106 54.2766 17.7193 54.2597 17.7193H54.0116Z" fill="#60605C"/>
<path d="M54.9784 19.0756C54.9444 19.0756 54.919 19.0669 54.8999 19.0496C54.883 19.0324 54.8745 18.9978 54.8745 18.9481C54.8745 18.8984 54.883 18.8639 54.8999 18.8423C54.9169 18.8207 54.9423 18.812 54.9784 18.812H55.1056C55.148 18.812 55.1798 18.8012 55.201 18.7818C55.2222 18.7624 55.2306 18.7256 55.2306 18.6716V17.3086C55.2306 17.2914 55.2391 17.2827 55.2561 17.2827H55.4935C55.5105 17.2827 55.519 17.2914 55.519 17.3086V18.7429C55.519 18.8574 55.4956 18.9416 55.449 18.9935C55.4024 19.0475 55.326 19.0734 55.2179 19.0734H54.9784V19.0756Z" fill="#60605C"/>
<path d="M56.1486 19.0499C56.1486 19.0672 56.1401 19.0758 56.1232 19.0758H55.8857C55.8688 19.0758 55.8603 19.0672 55.8603 19.0499V17.3111C55.8603 17.2938 55.8688 17.2852 55.8857 17.2852H56.1232C56.1401 17.2852 56.1486 17.2938 56.1486 17.3111V19.0499Z" fill="#60605C"/>
<path d="M58.6481 18.7818C58.6672 18.7623 58.6778 18.7256 58.6778 18.6738V18.0085C58.6778 17.9912 58.6862 17.9826 58.7032 17.9826H58.9406C58.9576 17.9826 58.9661 17.9912 58.9661 18.0085V18.7429C58.9661 18.8574 58.9428 18.9416 58.8961 18.9935C58.8495 19.0453 58.771 19.0734 58.6587 19.0734H57.3676C57.2595 19.0734 57.181 19.0453 57.1344 18.9913C57.0878 18.9373 57.0644 18.8531 57.0644 18.7386V18.1726C57.0644 18.1554 57.0729 18.1467 57.0899 18.1467H57.3273C57.3443 18.1467 57.3528 18.1554 57.3528 18.1726V18.6695C57.3528 18.7213 57.3634 18.758 57.3824 18.7796C57.4015 18.7991 57.4333 18.8099 57.4778 18.8099H58.5484C58.593 18.8099 58.6248 18.7991 58.646 18.7796L58.6481 18.7818ZM57.7492 17.8746C57.7322 17.8746 57.7238 17.8659 57.7238 17.8486V17.6197C57.7238 17.6024 57.7322 17.5938 57.7492 17.5938H57.9654C57.9824 17.5938 57.9909 17.6024 57.9909 17.6197V17.8486C57.9909 17.8659 57.9824 17.8746 57.9654 17.8746H57.7492ZM58.0842 17.8746C58.0672 17.8746 58.0587 17.8659 58.0587 17.8486V17.6197C58.0587 17.6024 58.0672 17.5938 58.0842 17.5938H58.3004C58.3174 17.5938 58.3258 17.6024 58.3258 17.6197V17.8486C58.3258 17.8659 58.3174 17.8746 58.3004 17.8746H58.0842Z" fill="#60605C"/>
<path d="M59.2671 17.3111C59.2671 17.2938 59.2756 17.2852 59.2926 17.2852H59.53C59.547 17.2852 59.5554 17.2938 59.5554 17.3111V18.6741C59.5554 18.7259 59.566 18.7626 59.5851 18.7842C59.6042 18.8037 59.636 18.8145 59.6805 18.8145H59.7717C59.8056 18.8145 59.831 18.8253 59.8501 18.8447C59.8671 18.8642 59.8756 18.9009 59.8756 18.9506C59.8756 19.0067 59.8671 19.0413 59.8501 19.0564C59.8332 19.0715 59.8077 19.078 59.7717 19.078H59.5682C59.46 19.078 59.3837 19.0521 59.3371 18.9981C59.2904 18.9441 59.2671 18.8598 59.2671 18.7475V17.3132V17.3111Z" fill="#60605C"/>
<path d="M60.4967 17.935C60.696 17.935 60.8402 17.9717 60.9313 18.0473C61.0225 18.1229 61.0691 18.2223 61.0691 18.3432C61.0691 18.3951 61.0606 18.4448 61.0437 18.4923C61.0267 18.5376 61.0055 18.5808 60.9801 18.6219C60.9546 18.6608 60.925 18.6975 60.8932 18.7277C60.8614 18.758 60.8296 18.786 60.7978 18.8055C60.8126 18.8098 60.8274 18.8098 60.8423 18.8098H61.2175C61.2578 18.8098 61.2832 18.8206 61.2981 18.8422C61.3129 18.8638 61.3193 18.8984 61.3193 18.9481C61.3193 18.9977 61.3108 19.0301 61.2938 19.0474C61.2769 19.0647 61.2515 19.0733 61.2175 19.0733H60.8317C60.7702 19.0733 60.7108 19.0669 60.6557 19.0561C60.5985 19.0453 60.5455 19.0237 60.4967 18.9913C60.4395 19.0237 60.3801 19.0453 60.3165 19.0561C60.2529 19.0669 60.1957 19.0733 60.1469 19.0733H59.7738C59.742 19.0733 59.7166 19.0647 59.6996 19.0474C59.6826 19.0301 59.6742 18.9977 59.6742 18.9481C59.6742 18.8984 59.6805 18.8681 59.6911 18.8444C59.7017 18.8206 59.7314 18.8098 59.7759 18.8098H60.0791C60.1066 18.8098 60.1384 18.8098 60.1724 18.8055C60.2063 18.8033 60.2466 18.7968 60.2932 18.786C60.2784 18.7277 60.2614 18.678 60.2381 18.637C60.2148 18.5938 60.1893 18.5571 60.1596 18.5247C60.13 18.4923 60.0982 18.4642 60.0642 18.4383C60.0303 18.4124 59.9964 18.3886 59.9625 18.3627C59.9434 18.3497 59.9328 18.3368 59.9307 18.3238C59.9286 18.3108 59.9264 18.3 59.9264 18.2849V18.1186C59.9264 18.0991 59.9434 18.0775 59.9752 18.0559C60.007 18.0343 60.0515 18.0127 60.1045 17.9933C60.1575 17.9739 60.219 17.9587 60.289 17.9479C60.3589 17.935 60.4289 17.9307 60.501 17.9307L60.4967 17.935ZM60.537 18.7299C60.5646 18.7126 60.5921 18.691 60.6218 18.6672C60.6494 18.6435 60.6748 18.6154 60.696 18.5873C60.7172 18.5592 60.7342 18.5268 60.749 18.4944C60.7638 18.462 60.7702 18.4275 60.7702 18.3929C60.7702 18.3216 60.7448 18.2698 60.6939 18.2417C60.643 18.2136 60.5773 18.1985 60.4988 18.1985C60.4289 18.1985 60.3695 18.205 60.3186 18.2201C60.2678 18.2352 60.2338 18.246 60.2148 18.2568C60.2932 18.3087 60.361 18.3735 60.4183 18.4556C60.4755 18.5376 60.5137 18.6284 60.5391 18.7299H60.537Z" fill="#60605C"/>
<path d="M61.4804 18.4945C61.4804 18.393 61.4952 18.3066 61.5228 18.2353C61.5504 18.164 61.5864 18.1057 61.6352 18.0625C61.6818 18.0171 61.739 17.9847 61.8026 17.9653C61.8662 17.9459 61.9362 17.9351 62.0125 17.9351C62.0889 17.9351 62.1588 17.9459 62.2245 17.9675C62.2903 17.9891 62.3475 18.0215 62.3941 18.0668C62.4408 18.1122 62.4789 18.1727 62.5065 18.2483C62.534 18.3239 62.5468 18.4146 62.5468 18.5226V18.568C62.5468 18.5831 62.5468 18.5982 62.5446 18.6112C62.5446 18.6846 62.5637 18.7364 62.5955 18.7667C62.6273 18.7969 62.6634 18.812 62.7058 18.812H62.78C62.8139 18.812 62.8393 18.8228 62.8584 18.8401C62.8754 18.8596 62.8838 18.892 62.8838 18.9395C62.8838 18.9913 62.8754 19.0259 62.8584 19.0453C62.8414 19.0648 62.816 19.0734 62.78 19.0734C62.7503 19.0734 62.7206 19.0734 62.6888 19.0713C62.657 19.0691 62.6252 19.0648 62.5934 19.054C62.5616 19.0432 62.5319 19.0302 62.5023 19.0108C62.4726 18.9913 62.4471 18.9654 62.4259 18.933C62.3793 18.9892 62.322 19.0302 62.2521 19.0561C62.1821 19.0821 62.1037 19.0929 62.0146 19.0929C61.9256 19.0929 61.8514 19.0799 61.7814 19.0561C61.7115 19.0324 61.6543 18.9935 61.6076 18.9373C61.5907 18.9654 61.5694 18.9892 61.5461 19.0064C61.5207 19.0237 61.4974 19.0388 61.4698 19.0475C61.4444 19.0583 61.4168 19.0648 61.3893 19.0669C61.3617 19.0691 61.3362 19.0713 61.3108 19.0713H61.2196C61.1857 19.0713 61.1603 19.0605 61.1412 19.041C61.1221 19.0216 61.1158 18.987 61.1158 18.9395C61.1158 18.8876 61.1242 18.8531 61.1412 18.8358C61.1582 18.8185 61.1836 18.8099 61.2196 18.8099H61.3214C61.3638 18.8099 61.3998 18.7926 61.4316 18.758C61.4634 18.7235 61.4825 18.6608 61.4825 18.5701C61.4825 18.555 61.4804 18.542 61.4804 18.5312V18.4924V18.4945ZM62.0125 18.1986C61.9299 18.1986 61.8684 18.2267 61.8302 18.2807C61.7899 18.3347 61.7708 18.4146 61.7708 18.5161C61.7708 18.6284 61.7899 18.7084 61.8302 18.758C61.8705 18.8077 61.9299 18.8315 62.0125 18.8315C62.0952 18.8315 62.1588 18.8056 62.197 18.7559C62.2372 18.7062 62.2563 18.6263 62.2563 18.5161C62.2563 18.3044 62.1758 18.1986 62.0125 18.1986Z" fill="#60605C"/>
<path d="M63.3312 18.9397C63.3078 18.9916 63.2718 19.0261 63.223 19.0456C63.1743 19.065 63.1086 19.0736 63.0259 19.0736H62.7863C62.7524 19.0736 62.727 19.065 62.7079 19.0477C62.6909 19.0304 62.6824 18.998 62.6824 18.9484C62.6824 18.8987 62.6909 18.862 62.7079 18.8404C62.7248 18.8188 62.7503 18.8101 62.7863 18.8101H62.9538C62.9856 18.8101 63.0089 18.8058 63.0259 18.795C63.0428 18.7864 63.0534 18.7712 63.0619 18.7496C63.0704 18.728 63.0746 18.7043 63.0768 18.6719C63.0789 18.6395 63.0789 18.5984 63.0789 18.5531V18.0066C63.0789 18.0066 63.0831 17.9893 63.0937 17.985C63.1043 17.9807 63.1128 17.9807 63.1234 17.9807H63.3439C63.3608 17.9807 63.3693 17.9893 63.3693 18.0066V18.6481C63.3693 18.7 63.3884 18.741 63.4266 18.7691C63.4647 18.7972 63.5177 18.8123 63.5834 18.8123H63.628C63.6619 18.8123 63.6873 18.8231 63.7064 18.8404C63.7234 18.8598 63.7318 18.8922 63.7318 18.9397C63.7318 18.9916 63.7234 19.0261 63.7064 19.0456C63.6894 19.065 63.664 19.0736 63.628 19.0736C63.5601 19.0736 63.5029 19.065 63.452 19.0477C63.4011 19.0304 63.363 18.9937 63.3333 18.9376L63.3312 18.9397ZM62.9496 17.7193C62.9326 17.7193 62.9241 17.7106 62.9241 17.6934V17.4644C62.9241 17.4471 62.9326 17.4385 62.9496 17.4385H63.1658C63.1828 17.4385 63.1912 17.4471 63.1912 17.4644V17.6934C63.1912 17.7106 63.1828 17.7193 63.1658 17.7193H62.9496ZM63.2845 17.7193C63.2676 17.7193 63.2591 17.7106 63.2591 17.6934V17.4644C63.2591 17.4471 63.2676 17.4385 63.2845 17.4385H63.5008C63.5177 17.4385 63.5262 17.4471 63.5262 17.4644V17.6934C63.5262 17.7106 63.5177 17.7193 63.5008 17.7193H63.2845Z" fill="#60605C"/>
<path d="M63.7658 18.1489C63.8188 18.0884 63.8824 18.0366 63.9566 17.9955C64.0308 17.9545 64.1219 17.9351 64.2279 17.9351C64.3424 17.9351 64.4399 17.9523 64.5184 17.9891C64.5968 18.0258 64.6583 18.0733 64.7049 18.1338C64.7516 18.1943 64.7855 18.2634 64.8046 18.3433C64.8236 18.4232 64.8342 18.5075 64.8342 18.596C64.8342 18.609 64.8342 18.6198 64.8342 18.6306C64.8342 18.6414 64.8342 18.6522 64.8342 18.663C64.8385 18.7105 64.8597 18.7472 64.8978 18.7732C64.9339 18.7991 64.9848 18.812 65.0484 18.812H65.0929C65.1268 18.812 65.1522 18.8228 65.1713 18.8401C65.1883 18.8596 65.1968 18.892 65.1968 18.9395C65.1968 18.9913 65.1883 19.0259 65.1713 19.0453C65.1544 19.0648 65.1289 19.0734 65.0929 19.0734C65.0208 19.0734 64.9572 19.0626 64.9021 19.0453C64.847 19.0259 64.8067 18.9827 64.777 18.9179C64.7452 18.9784 64.6986 19.0194 64.6413 19.041C64.5841 19.0626 64.5141 19.0734 64.4293 19.0734H63.6301C63.5962 19.0734 63.5707 19.0626 63.5516 19.0432C63.5326 19.0237 63.5262 18.9892 63.5262 18.9416C63.5262 18.8898 63.5347 18.8552 63.5516 18.838C63.5686 18.8207 63.594 18.812 63.6301 18.812H64.317C64.3615 18.812 64.3975 18.8077 64.4251 18.8012C64.4526 18.7948 64.4738 18.7818 64.4887 18.7645C64.5035 18.7472 64.5141 18.7235 64.5205 18.6954C64.5268 18.6673 64.529 18.6306 64.529 18.5896C64.529 18.5334 64.5247 18.4816 64.5141 18.434C64.5035 18.3865 64.4866 18.3455 64.4632 18.3109C64.4399 18.2763 64.4081 18.2483 64.3678 18.2288C64.3276 18.2094 64.2809 18.1986 64.2216 18.1986C64.1622 18.1986 64.1134 18.2094 64.0668 18.2331C64.0202 18.2569 63.9799 18.2871 63.9417 18.326C63.929 18.339 63.9184 18.339 63.9057 18.3282L63.7721 18.1856C63.7573 18.1705 63.7573 18.1597 63.7679 18.1489H63.7658ZM64.141 19.5767C64.124 19.5767 64.1156 19.5681 64.1156 19.5508V19.3218C64.1156 19.3045 64.124 19.2959 64.141 19.2959H64.389C64.406 19.2959 64.4145 19.3045 64.4145 19.3218V19.5508C64.4145 19.5681 64.406 19.5767 64.389 19.5767H64.141Z" fill="#60605C"/>
<path d="M65.3515 18.4945C65.3515 18.393 65.3664 18.3066 65.3939 18.2353C65.4215 18.164 65.4575 18.1057 65.5063 18.0625C65.5529 18.0171 65.6102 17.9847 65.6738 17.9653C65.7374 17.9459 65.8073 17.9351 65.8836 17.9351C65.96 17.9351 66.0299 17.9459 66.0956 17.9675C66.1614 17.9891 66.2186 18.0215 66.2652 18.0668C66.3119 18.1122 66.35 18.1727 66.3776 18.2483C66.4052 18.3239 66.4179 18.4146 66.4179 18.5226V18.568C66.4179 18.5831 66.4179 18.5982 66.4158 18.6112C66.4158 18.6846 66.4348 18.7364 66.4666 18.7667C66.4984 18.7969 66.5345 18.812 66.5769 18.812H66.6511C66.685 18.812 66.7104 18.8228 66.7295 18.8401C66.7465 18.8596 66.755 18.892 66.755 18.9395C66.755 18.9913 66.7465 19.0259 66.7295 19.0453C66.7126 19.0648 66.6871 19.0734 66.6511 19.0734C66.6214 19.0734 66.5917 19.0734 66.5599 19.0713C66.5281 19.0691 66.4963 19.0648 66.4645 19.054C66.4327 19.0432 66.403 19.0302 66.3734 19.0108C66.3437 18.9913 66.3182 18.9654 66.297 18.933C66.2504 18.9892 66.1932 19.0302 66.1232 19.0561C66.0532 19.0821 65.9748 19.0929 65.8858 19.0929C65.7967 19.0929 65.7225 19.0799 65.6526 19.0561C65.5826 19.0324 65.5254 18.9935 65.4787 18.9373C65.4618 18.9654 65.4406 18.9892 65.4172 19.0064C65.3918 19.0237 65.3685 19.0388 65.3409 19.0475C65.3155 19.0583 65.2879 19.0648 65.2604 19.0669C65.2328 19.0691 65.2074 19.0713 65.1819 19.0713H65.0908C65.0568 19.0713 65.0314 19.0605 65.0123 19.041C64.9932 19.0216 64.9869 18.987 64.9869 18.9395C64.9869 18.8876 64.9954 18.8531 65.0123 18.8358C65.0293 18.8185 65.0547 18.8099 65.0908 18.8099H65.1925C65.2349 18.8099 65.271 18.7926 65.3028 18.758C65.3346 18.7235 65.3536 18.6608 65.3536 18.5701C65.3536 18.555 65.3515 18.542 65.3515 18.5312V18.4924V18.4945ZM65.8836 18.1986C65.801 18.1986 65.7395 18.2267 65.7013 18.2807C65.661 18.3347 65.642 18.4146 65.642 18.5161C65.642 18.6284 65.661 18.7084 65.7013 18.758C65.7416 18.8077 65.801 18.8315 65.8836 18.8315C65.9663 18.8315 66.0299 18.8056 66.0681 18.7559C66.1084 18.7062 66.1274 18.6263 66.1274 18.5161C66.1274 18.3044 66.0469 18.1986 65.8836 18.1986Z" fill="#60605C"/>
<path d="M66.6447 19.0756C66.6108 19.0756 66.5854 19.0669 66.5663 19.0496C66.5493 19.0324 66.5408 18.9978 66.5408 18.9481C66.5408 18.8984 66.5493 18.8639 66.5663 18.8423C66.5832 18.8207 66.6087 18.812 66.6447 18.812H66.7719C66.8143 18.812 66.8461 18.8012 66.8673 18.7818C66.8885 18.7624 66.897 18.7256 66.897 18.6716V17.3086C66.897 17.2914 66.9055 17.2827 66.9224 17.2827H67.1599C67.1769 17.2827 67.1853 17.2914 67.1853 17.3086V18.7429C67.1853 18.8574 67.162 18.9416 67.1154 18.9935C67.0687 19.0475 66.9924 19.0734 66.8843 19.0734H66.6447V19.0756Z" fill="#60605C"/>
<path d="M67.8128 19.0499C67.8128 19.0672 67.8044 19.0758 67.7874 19.0758H67.55C67.533 19.0758 67.5245 19.0672 67.5245 19.0499V17.3111C67.5245 17.2938 67.533 17.2852 67.55 17.2852H67.7874C67.8044 17.2852 67.8128 17.2938 67.8128 17.3111V19.0499Z" fill="#60605C"/>
<path d="M69.4622 17.9352V17.8229C69.4622 17.8056 69.4707 17.7969 69.4876 17.7969H69.7251C69.742 17.7969 69.7505 17.8056 69.7505 17.8229V18.6739C69.7505 18.7258 69.7611 18.7625 69.7802 18.7819C69.7993 18.8014 69.8311 18.8122 69.8756 18.8122H69.9731C70.0431 18.8122 70.077 18.8554 70.077 18.9461C70.077 19.0001 70.0685 19.0346 70.0516 19.0519C70.0346 19.0692 70.0092 19.0778 69.9731 19.0778H69.7632C69.6784 19.0778 69.6127 19.0627 69.5661 19.0325C69.5194 19.0022 69.4876 18.9482 69.4728 18.8726C69.4368 18.905 69.3944 18.9288 69.3435 18.9461C69.2926 18.9612 69.2417 18.9698 69.1866 18.9698C69.1188 18.9698 69.0552 18.9612 68.9958 18.9418C68.9364 18.9223 68.8834 18.8921 68.841 18.8532C68.7965 18.8122 68.7626 18.7625 68.7372 18.6998C68.7117 18.6372 68.699 18.5616 68.699 18.4752C68.699 18.3737 68.7138 18.2873 68.7414 18.2203C68.769 18.1512 68.8071 18.0972 68.8559 18.0561C68.9025 18.0151 68.9576 17.9849 69.017 17.9676C69.0764 17.9503 69.14 17.9417 69.2057 17.9417H69.4643L69.4622 17.9352ZM68.9682 17.6133C68.9513 17.6133 68.9428 17.6047 68.9428 17.5874V17.3584C68.9428 17.3412 68.9513 17.3325 68.9682 17.3325H69.1845C69.2014 17.3325 69.2099 17.3412 69.2099 17.3584V17.5874C69.2099 17.6047 69.2014 17.6133 69.1845 17.6133H68.9682ZM69.2205 18.7042C69.3032 18.7042 69.3647 18.6804 69.405 18.6329C69.4452 18.5854 69.4643 18.5141 69.4643 18.4212V18.1987H69.2332C69.159 18.1987 69.0997 18.2181 69.0552 18.257C69.0106 18.2959 68.9873 18.3672 68.9873 18.4687C68.9873 18.5486 69.0085 18.6091 69.0488 18.6458C69.0891 18.6826 69.1463 18.7042 69.2184 18.7042H69.2205ZM69.3053 17.6133C69.2884 17.6133 69.2799 17.6047 69.2799 17.5874V17.3584C69.2799 17.3412 69.2884 17.3325 69.3053 17.3325H69.5216C69.5385 17.3325 69.547 17.3412 69.547 17.3584V17.5874C69.547 17.6047 69.5385 17.6133 69.5216 17.6133H69.3053Z" fill="#60605C"/>
<path d="M70.5434 18.0819C70.624 18.0409 70.7151 18.0063 70.8126 17.9783C70.9123 17.9502 71.014 17.9351 71.1179 17.9351C71.2303 17.9351 71.3257 17.9502 71.4063 17.9804C71.4868 18.0107 71.5525 18.0517 71.6034 18.1057C71.6543 18.1597 71.6903 18.2267 71.7158 18.3044C71.7391 18.3822 71.7518 18.4686 71.7518 18.5636C71.7518 18.5809 71.7518 18.5982 71.7518 18.6133C71.7518 18.6284 71.7518 18.6414 71.7518 18.6522C71.7518 18.704 71.773 18.7451 71.8112 18.7732C71.8493 18.8012 71.9002 18.8164 71.9659 18.8164H72.0104C72.0444 18.8164 72.0698 18.8272 72.0889 18.8444C72.1059 18.8639 72.1143 18.8963 72.1143 18.9438C72.1143 18.9956 72.1059 19.0302 72.0889 19.0497C72.0719 19.0691 72.0465 19.0777 72.0104 19.0777C71.9362 19.0777 71.8705 19.0669 71.8154 19.0453C71.7603 19.0237 71.7179 18.9784 71.6903 18.9114C71.6543 18.9827 71.6013 19.0281 71.5313 19.0497C71.4614 19.0691 71.3702 19.0799 71.2557 19.0799H70.7469C70.7194 19.0799 70.6897 19.0799 70.6621 19.0799C70.6324 19.0799 70.6049 19.0777 70.5773 19.0734C70.5498 19.0691 70.5243 19.0648 70.4989 19.0604C70.4735 19.0561 70.4522 19.0475 70.4353 19.0367C70.4077 19.0561 70.378 19.0691 70.3441 19.0734C70.3102 19.0777 70.2721 19.0821 70.2275 19.0821H70.0134C69.9795 19.0821 69.954 19.0734 69.935 19.0561C69.918 19.0389 69.9095 19.0064 69.9095 18.9568C69.9095 18.9006 69.918 18.8617 69.935 18.8444C69.9519 18.8272 69.9774 18.8185 70.0134 18.8185H70.1321C70.1639 18.8185 70.1894 18.812 70.2063 18.7969C70.2233 18.7818 70.236 18.7624 70.2445 18.7386C70.253 18.7127 70.2572 18.6846 70.2593 18.65C70.2593 18.6176 70.2614 18.5809 70.2614 18.5442V18.0042C70.2614 17.9869 70.2699 17.9783 70.2869 17.9783H70.5243C70.5413 17.9783 70.5498 17.9869 70.5498 18.0042V18.0884L70.5434 18.0819ZM71.0776 18.1986C70.9801 18.1986 70.8847 18.2137 70.7936 18.2439C70.7003 18.2742 70.6176 18.3066 70.5455 18.3412V18.6976C70.5455 18.7192 70.5455 18.7386 70.5434 18.758C70.5434 18.7775 70.5392 18.7948 70.5349 18.8142H71.0967C71.1709 18.8142 71.2303 18.8142 71.2769 18.8099C71.3236 18.8056 71.3575 18.7969 71.3829 18.7818C71.4084 18.7645 71.4253 18.7386 71.4338 18.704C71.4423 18.6673 71.4465 18.6176 71.4465 18.5528C71.4465 18.4967 71.4402 18.447 71.4296 18.4038C71.419 18.3606 71.3978 18.3239 71.3702 18.2936C71.3426 18.2634 71.3045 18.2418 71.2578 18.2245C71.2112 18.2094 71.1518 18.2007 71.0798 18.2007L71.0776 18.1986Z" fill="#60605C"/>
<path d="M72.5616 18.6503C72.5616 18.7021 72.5807 18.7432 72.6189 18.7712C72.657 18.7993 72.71 18.8144 72.7758 18.8144H72.8203C72.8542 18.8144 72.8796 18.8252 72.8987 18.8425C72.9157 18.862 72.9242 18.8944 72.9242 18.9419C72.9242 18.9937 72.9157 19.0283 72.8987 19.0477C72.8818 19.0672 72.8563 19.0758 72.8203 19.0758C72.7524 19.0758 72.6952 19.0672 72.6443 19.0499C72.5934 19.0326 72.5553 18.9959 72.5256 18.9397C72.5023 18.9916 72.4662 19.0261 72.4196 19.0456C72.373 19.065 72.3072 19.0736 72.2267 19.0736H72.0232C71.9892 19.0736 71.9638 19.0672 71.9447 19.0564C71.9278 19.0456 71.9193 19.0196 71.9193 18.9808C71.9193 18.9354 71.9278 18.8965 71.9447 18.862C71.9617 18.8274 71.9871 18.8101 72.0253 18.8101H72.1504C72.18 18.8101 72.2034 18.8058 72.2203 18.7972C72.2373 18.7885 72.25 18.7756 72.2585 18.7561C72.267 18.7367 72.2712 18.7108 72.2733 18.6805C72.2733 18.6481 72.2754 18.6092 72.2754 18.5639V18.0066C72.2754 17.9893 72.2839 17.9807 72.3009 17.9807H72.5404C72.5574 17.9807 72.5659 17.9893 72.5659 18.0066V18.6481L72.5616 18.6503ZM72.2945 17.7193C72.2776 17.7193 72.2691 17.7106 72.2691 17.6934V17.4644C72.2691 17.4471 72.2776 17.4385 72.2945 17.4385H72.5426C72.5595 17.4385 72.568 17.4471 72.568 17.4644V17.6934C72.568 17.7106 72.5595 17.7193 72.5426 17.7193H72.2945Z" fill="#60605C"/>
<path d="M73.6026 19.095C73.5156 19.095 73.4393 19.0821 73.3694 19.0583C73.2994 19.0345 73.2422 18.9956 73.1955 18.9395C73.1786 18.9676 73.1574 18.9913 73.134 19.0086C73.1086 19.0259 73.0853 19.041 73.0577 19.0497C73.0323 19.0605 73.0047 19.0669 72.9771 19.0691C72.9496 19.0713 72.9242 19.0734 72.8987 19.0734H72.8076C72.7736 19.0734 72.7482 19.0626 72.7291 19.0432C72.71 19.0237 72.7037 18.9892 72.7037 18.9416C72.7037 18.8898 72.7122 18.8552 72.7291 18.838C72.7461 18.8207 72.7715 18.812 72.8076 18.812H72.9093C72.9284 18.812 72.9475 18.8077 72.9666 18.7991C72.9856 18.7904 73.0026 18.7775 73.0174 18.7602C73.0323 18.7429 73.045 18.717 73.0556 18.6868C73.0662 18.6565 73.0704 18.6176 73.0704 18.5723C73.0704 18.5572 73.0683 18.5442 73.0683 18.5334V18.4945C73.0683 18.393 73.0832 18.3066 73.1107 18.2353C73.1383 18.164 73.1743 18.1057 73.2231 18.0625C73.2697 18.0171 73.327 17.9847 73.3906 17.9653C73.4542 17.9459 73.5241 17.9351 73.6004 17.9351C73.6768 17.9351 73.7467 17.9459 73.8124 17.9675C73.8782 17.9891 73.9354 18.0215 73.982 18.0668C74.0287 18.1122 74.0668 18.1727 74.0944 18.2483C74.122 18.3239 74.1347 18.4146 74.1347 18.5226C74.1347 18.6306 74.122 18.7148 74.0965 18.7861C74.0711 18.8574 74.035 18.9157 73.9884 18.9632C73.9418 19.0086 73.8866 19.0432 73.8209 19.0626C73.7552 19.0842 73.6831 19.095 73.6026 19.095ZM73.6026 18.1986C73.5199 18.1986 73.4584 18.2267 73.4202 18.2807C73.38 18.3347 73.3609 18.4146 73.3609 18.5161C73.3609 18.6284 73.38 18.7084 73.4202 18.758C73.4605 18.8077 73.5199 18.8315 73.6026 18.8315C73.6852 18.8315 73.7488 18.8056 73.787 18.7559C73.8273 18.7062 73.8464 18.6263 73.8464 18.5161C73.8464 18.3044 73.7658 18.1986 73.6026 18.1986Z" fill="#60605C"/>
<path d="M49.5278 17.3325H49.1738V19.5833H49.5278V17.3325Z" fill="#00AEEF"/>
<path d="M49.0169 17.3325H48.2431V19.5833H49.0169V17.3325Z" fill="#07074E"/>
<path d="M48.0311 17.3325H46.2461V19.5833H48.0311V17.3325Z" fill="#07074E"/>
<path d="M45.945 17.3325H14.675V19.5833H45.945V17.3325Z" fill="#00AEEF"/>
</g>
<defs>
<clipPath id="clip0_165_13">
<rect width="106" height="20" fill="white" transform="translate(0.131836)"/>
</clipPath>
</defs>
</svg>
