<svg width="84" height="85" viewBox="0 0 84 85" fill="none" xmlns="http://www.w3.org/2000/svg">
<path d="M83.1482 77.0979V81.4121C82.5047 83.0115 81.3002 83.5171 79.6168 83.5121C67.0118 83.4701 54.4067 83.4903 41.8034 83.4903C32.0308 83.4903 22.2566 83.4886 12.484 83.4936C11.6726 83.4936 10.8779 83.3911 10.1606 83.0249C9.7036 82.7931 9.34744 82.8418 8.8972 83.0316C5.30536 84.5554 1.3792 81.9883 1.3372 78.084C1.30864 75.3406 1.31368 72.5988 1.3372 69.8554C1.3624 66.9154 3.52792 64.6138 6.44608 64.4458C7.03912 64.4122 7.20208 64.2341 7.21216 63.6612C7.26424 60.6003 7.31968 57.5376 7.444 54.4767C7.54312 52.0339 7.40536 49.5694 7.97152 47.1603C9.5356 40.5024 13.4601 35.8169 19.7634 33.1507C20.259 32.9407 20.4556 32.7055 20.4321 32.1612C20.3884 31.1247 20.4069 30.0847 20.4254 29.0465C20.4539 27.3934 21.1679 26.1132 22.643 25.3471C23.0932 25.1136 23.1604 24.8347 23.1621 24.4063C23.1621 23.1295 23.1537 21.8511 23.3603 20.5827C24.7631 11.9542 29.5696 6.09098 37.6991 2.92418C39.4715 2.2337 41.3464 1.99178 43.2028 1.6709C44.3754 1.6709 45.5464 1.6709 46.719 1.6709C46.924 1.71794 47.1273 1.78514 47.3356 1.80866C53.0375 2.45882 57.7768 4.96202 61.5198 9.29474C64.9336 13.2461 66.6405 17.8812 66.79 23.0976C66.8001 23.4252 66.701 23.7881 67.0504 24.0485C67.9475 24.7188 68.1558 25.6563 68.1542 26.7281C68.1407 40.6217 68.1474 54.517 68.1357 68.4106C68.1357 68.9935 68.2281 69.4723 68.6229 69.9377C69.1101 70.5123 69.3806 71.2229 69.4444 71.9823C69.4847 72.4762 69.6779 72.6963 70.1987 72.8021C73.4798 73.4724 76.744 74.2284 80.0301 74.8702C81.453 75.1474 82.582 75.6951 83.1549 77.0962L83.1482 77.0979ZM53.1652 70.9323C53.2341 71.6631 52.7939 72.6492 53.3063 73.0591C53.765 73.4254 54.6486 72.8458 55.3576 72.7635C55.7457 72.7198 55.8885 72.5047 55.9204 72.1301C55.9926 71.2884 56.2749 70.5039 56.8175 69.8638C57.177 69.4387 57.2577 69.0053 57.256 68.4828C57.2442 62.9976 57.2493 57.5141 57.2493 52.0289C57.2493 43.5096 57.2543 34.9903 57.2426 26.4711C57.2426 25.5336 57.4946 24.7255 58.2371 24.1443C58.5681 23.8855 58.5916 23.5999 58.5866 23.2421C58.4656 14.3163 49.7867 7.88858 41.212 10.3783C34.9254 12.2028 30.801 18.1987 31.3319 24.7054C31.3622 25.08 31.5638 25.1825 31.8258 25.3253C33.316 26.1401 34.0401 27.4219 34.0653 29.1036C34.0821 30.1419 34.0989 31.1818 34.0552 32.2183C34.0334 32.7358 34.24 32.9407 34.6919 33.139C42.267 36.4704 46.4049 42.2597 46.8837 50.532C47.1374 54.9151 47.181 59.3117 47.2869 63.7032C47.302 64.2946 47.475 64.4458 48.0597 64.471C50.5427 64.5768 52.6074 66.3996 53.0476 68.8642C53.1686 69.5395 53.1299 70.2435 53.1635 70.9339L53.1652 70.9323ZM27.1941 67.1355C32.733 67.1355 38.2737 67.1237 43.8126 67.1506C44.4662 67.1539 44.6745 67.0011 44.6526 66.3207C44.4964 61.6368 44.3872 56.9513 44.2478 52.2658C44.199 50.6177 44.1587 48.9679 43.7606 47.3501C41.6606 38.8039 33.6822 33.3775 24.9278 34.5502C16.8302 35.6355 10.5638 42.384 10.295 50.3556C10.1152 55.6527 9.99928 60.9497 9.80944 66.2467C9.78088 67.0279 10.043 67.1539 10.7368 67.1506C16.2237 67.1254 21.7089 67.1371 27.1958 67.1371L27.1941 67.1355ZM27.3016 69.8655C21.7358 69.8655 16.1716 69.8806 10.6058 69.847C9.89848 69.8436 9.70528 70.0452 9.69688 70.729C9.67 72.9651 9.57592 75.1995 9.51376 77.4355C9.44992 79.6901 10.51 80.7653 12.7914 80.7653C22.2969 80.7653 31.804 80.7653 41.3094 80.7653C41.469 80.7653 41.6303 80.7519 41.7882 80.767C42.1427 80.8023 42.2502 80.641 42.2435 80.3033C42.2267 79.5322 42.2334 78.7594 42.2402 77.9866C42.2553 76.5048 42.9071 75.5859 44.3267 75.1491C44.782 75.0096 44.8811 74.7946 44.861 74.3561C44.8055 73.1331 44.7585 71.9067 44.787 70.6836C44.8022 70.0049 44.5619 69.8487 43.9151 69.852C38.3762 69.8755 32.8389 69.8655 27.2999 69.8655H27.3016ZM65.4174 46.9788C65.4174 40.3243 65.409 33.6699 65.4309 27.0154C65.4326 26.3971 65.283 26.1855 64.643 26.2123C63.4199 26.2627 62.1918 26.2711 60.9705 26.2123C60.2044 26.1737 59.9423 26.34 59.9474 27.1918C59.9894 33.8194 59.9709 40.4487 59.9709 47.0763C59.9709 53.7039 59.9759 60.2256 59.9608 66.8011C59.9608 67.3841 60.0112 67.5907 60.6899 67.3942C61.9869 67.0195 63.3376 67.0044 64.6329 67.3824C65.4057 67.6092 65.4292 67.3303 65.4275 66.7054C65.409 60.1299 65.4158 53.556 65.4158 46.9805L65.4174 46.9788ZM25.9022 23.0002C25.8663 24.2333 26.4588 24.8493 27.6796 24.8482C27.8123 24.8482 27.9467 24.8347 28.0794 24.8499C28.5028 24.8986 28.6288 24.7087 28.6254 24.2988C28.6187 23.2354 28.6305 22.1736 28.7817 21.1119C29.9325 13.0428 36.9902 7.01498 45.1936 7.11914C53.3954 7.2233 60.3354 13.5065 61.241 21.636C61.3082 22.2341 61.0259 23.0271 61.493 23.3799C61.9617 23.7343 62.7311 23.4336 63.3628 23.4991C63.9542 23.5596 64.0583 23.3043 64.0415 22.7633C63.7173 12.9185 55.6449 4.78226 45.8102 4.40594C35.0918 3.9977 26.2146 12.2868 25.9055 22.9985L25.9022 23.0002ZM62.6942 80.767C68.3406 80.767 73.9871 80.7586 79.6319 80.7787C80.2317 80.7804 80.5173 80.6662 80.4366 80.0026C80.3795 79.5305 80.3762 79.0383 80.4366 78.5679C80.5223 77.9194 80.2418 77.7111 79.6454 77.5867C76.2081 76.8761 72.7792 76.1335 69.3503 75.3809C68.8329 75.2667 68.4902 75.3641 68.097 75.7606C65.11 78.7896 60.2548 78.7896 57.2829 75.7572C56.8898 75.3557 56.5454 75.2683 56.0296 75.3809C53.0694 76.0327 50.1026 76.6577 47.139 77.2978C46.4385 77.449 45.5111 77.407 45.1029 77.8421C44.651 78.3243 45.0374 79.2684 44.9483 80.0026C44.8677 80.6679 45.155 80.7787 45.7514 80.7771C51.3978 80.7569 57.0443 80.7653 62.6891 80.7653L62.6942 80.767ZM6.78712 73.0793H7.07608C7.07608 71.3254 7.0492 69.5698 7.0912 67.8159C7.10632 67.2111 6.90136 67.0901 6.35704 67.1674C5.17768 67.3337 4.11088 68.34 4.084 69.5916C4.02352 72.4896 4.01848 75.3893 4.08232 78.2873C4.11424 79.7439 5.50528 80.8711 6.8896 80.7653C7.31296 80.7334 7.46752 80.6309 7.25416 80.1857C6.83248 79.302 6.75856 78.3562 6.77872 77.3851C6.80896 75.9504 6.78712 74.514 6.78712 73.0793ZM62.6824 69.8688C61.414 69.8705 60.2682 70.2468 59.4904 70.9155C58.3144 71.9268 58.3211 73.2725 59.5055 74.2603C61.1738 75.6514 64.2364 75.6447 65.8979 74.2452C67.0504 73.2742 67.079 71.9403 65.9399 70.9558C65.0109 70.1511 63.892 69.8638 62.6841 69.8688H62.6824ZM27.2747 27.5715C26.3978 27.5715 25.5208 27.5547 24.6438 27.5765C23.7098 27.6 23.2024 28.0771 23.1654 28.9944C23.1302 29.8428 23.1705 30.6946 23.147 31.5447C23.1352 32.0033 23.3351 32.0755 23.7316 32.0016C26.0802 31.5631 28.4306 31.5665 30.7792 32.0067C31.1908 32.0839 31.3638 31.9815 31.3487 31.5346C31.3235 30.7114 31.3638 29.8865 31.3336 29.0633C31.2983 28.1074 30.7792 27.6017 29.8233 27.5765C28.9732 27.5547 28.1231 27.5715 27.273 27.5715H27.2747ZM50.41 71.4934C50.41 71.4934 50.4033 71.4934 50.3999 71.4934C50.3999 70.8819 50.4268 70.2703 50.3949 69.6605C50.3243 68.3602 49.2642 67.2799 48.0244 67.164C47.5422 67.1187 47.3625 67.2447 47.386 67.7604C47.4599 69.4051 47.4935 71.0515 47.5338 72.6979C47.5775 74.3981 47.5775 74.4183 49.2458 74.0571C50.662 73.7496 50.373 74.0201 50.4083 72.6879C50.4184 72.2897 50.4083 71.8915 50.4083 71.4934H50.41Z" fill="#07074E"/>
<path d="M27.2916 54.8667C28.6222 54.8667 29.9528 54.8515 31.2833 54.8717C32.9952 54.8969 34.1477 56.1636 34.0553 57.8856C33.8554 61.5715 30.8364 64.4343 27.1908 64.3939C23.51 64.3536 20.5733 61.4775 20.4372 57.7815C20.3751 56.0964 21.5141 54.8919 23.221 54.87C24.5784 54.8515 25.9359 54.8667 27.2933 54.8667H27.2916ZM27.2177 57.5899C26.1274 57.5899 25.032 57.6387 23.9451 57.5731C23.1992 57.5295 23.1051 57.8218 23.2328 58.4467C23.6175 60.3199 25.3932 61.7143 27.3572 61.6539C29.3715 61.5917 31.0296 60.0898 31.2934 58.1343C31.3539 57.6891 31.2296 57.5765 30.8096 57.5832C29.6117 57.6017 28.4139 57.5899 27.2177 57.5899Z" fill="#00AEEF"/>
<path d="M19.7098 42.5821C22.3474 42.5703 24.491 44.6888 24.5045 47.3214C24.5179 49.9556 22.3994 52.1077 19.7702 52.1346C17.1713 52.1598 14.9822 49.9976 14.9604 47.3818C14.9369 44.7694 17.0906 42.5938 19.7098 42.5821ZM21.7795 47.36C21.7846 46.2529 20.8774 45.3272 19.7702 45.3087C18.6715 45.2902 17.7307 46.1974 17.7005 47.3029C17.6702 48.4352 18.6211 49.4062 19.7518 49.3978C20.8522 49.3894 21.7745 48.4638 21.7795 47.36Z" fill="#00AEEF"/>
<path d="M39.5137 47.3722C39.5053 49.9863 37.328 52.1485 34.719 52.135C32.1066 52.1216 29.9444 49.9409 29.9596 47.3336C29.973 44.7128 32.1352 42.5741 34.7593 42.5825C37.3868 42.5926 39.5221 44.7447 39.5137 47.3722ZM36.7854 47.3504C36.7854 46.2533 35.8614 45.3209 34.7593 45.3092C33.664 45.2957 32.7181 46.2113 32.6912 47.3117C32.6644 48.4289 33.6404 49.4134 34.7593 49.3983C35.8597 49.3832 36.7854 48.4474 36.7854 47.3521V47.3504Z" fill="#00AEEF"/>
<path d="M27.3034 76.656C25.0438 76.656 22.7842 76.6694 20.5262 76.6493C19.4779 76.6392 18.8227 75.8261 19.11 74.9256C19.32 74.2653 19.824 73.9394 20.501 73.9377C24.9934 73.9293 29.4857 73.9243 33.9763 73.9428C34.8667 73.9461 35.4094 74.5341 35.3959 75.3321C35.3825 76.1402 34.8516 76.6442 33.9226 76.6509C31.7167 76.6677 29.5109 76.656 27.3034 76.656Z" fill="black"/>
</svg>
