<svg width="84" height="84" viewBox="0 0 84 84" fill="none" xmlns="http://www.w3.org/2000/svg">
<path d="M3.61377 38.3056L9.88857 37.2993C9.88857 37.2993 10.5606 20.7882 23.0698 20.1297C23.0698 20.1297 9.37281 19.5249 3.61377 38.3056Z" fill="#00AEEF"/>
<path d="M82.7754 69.3152C82.3688 70.9549 81.8682 72.5492 80.798 73.9083C78.9887 76.2083 76.6552 77.5707 73.7219 77.7287C71.721 77.8362 69.7117 77.7925 67.7075 77.7942C62.2189 77.8009 56.7287 77.8127 51.2401 77.7908C46.3983 77.7723 42.6385 75.0171 41.3919 70.634C41.0257 69.3455 41.024 68.03 41.0291 66.7095C41.0324 65.5755 41.024 64.4399 41.0324 63.3059C41.0391 62.2458 41.4675 61.6998 42.2605 61.7149C43.0182 61.73 43.4331 62.2643 43.4399 63.2739C43.4483 64.7523 43.4348 66.2291 43.4449 67.7075C43.4768 72.272 46.526 75.3599 51.1007 75.3767C58.3045 75.4052 65.51 75.4052 72.7139 75.3767C77.3087 75.3582 80.378 72.2267 80.3881 67.6319C80.3932 65.6259 80.3612 63.62 80.4049 61.6158C80.4184 60.9623 80.2436 60.7741 79.5767 60.7775C73.7437 60.8043 67.9124 60.7741 62.0795 60.8027C59.8736 60.8127 58.3196 59.9358 57.5821 57.8089C57.4326 57.3771 57.1386 57.4561 56.8311 57.4359C52.9268 57.1907 49.1099 57.7501 45.3131 58.6136C43.4147 59.0454 41.5045 59.4553 39.5641 59.6871C36.9097 60.003 34.3544 59.6048 31.8966 58.5951C25.2942 55.8819 18.6968 53.1503 12.1011 50.4186C9.90034 49.5063 9.22162 48.0783 9.71554 45.35C8.70418 45.35 7.70626 45.3517 6.70834 45.35C3.50794 45.3416 1.70026 43.5356 1.69858 40.3487C1.69858 39.9522 1.68682 39.5557 1.70362 39.1609C1.74226 38.2772 2.1925 37.5817 3.02914 37.4103C3.58858 37.2961 3.58354 37.0172 3.60034 36.6006C3.7969 31.3909 5.80618 26.991 9.59794 23.426C12.1952 20.9833 15.2646 19.4024 18.7825 18.7808C19.6007 18.6363 19.7552 18.3104 19.7418 17.5578C19.7031 15.2965 20.8909 13.7123 22.8918 13.2116C25.3916 12.585 27.8814 14.4447 27.9939 17.0219C28.0376 18.0265 28.5416 18.6403 29.5059 18.8631C31.5791 19.3403 33.5279 20.1198 35.3238 21.2639C35.979 21.6822 36.1621 22.3811 35.8059 22.9607C35.4599 23.5235 34.7677 23.7335 34.1495 23.3319C30.4854 20.9514 26.403 20.6775 22.203 20.8069C14.0634 21.0589 7.68106 26.4752 6.20266 34.4787C6.08338 35.1255 6.07498 35.7908 5.98258 36.4427C5.8885 37.1012 6.0565 37.365 6.80578 37.3347C8.4925 37.2692 10.1826 37.3112 11.8727 37.3146C12.8588 37.3163 13.4149 37.7497 13.4149 38.5007C13.4149 39.2533 12.8538 39.6985 11.876 39.7002C9.5005 39.7052 7.12498 39.7153 4.75114 39.6918C4.24882 39.6867 4.07578 39.8077 4.07578 40.3436C4.07914 42.1177 4.83346 42.9342 6.6025 42.9359C16.8421 42.9409 27.0817 42.9359 37.3213 42.9443C38.1059 42.9443 38.8232 42.6738 39.5574 42.4789C40.6023 42.2 41.6456 41.8775 42.7225 41.8086C43.4331 41.7632 43.6129 41.4373 43.6431 40.8342C43.7003 39.7052 43.7103 39.7052 42.5931 39.7052C34.4115 39.7052 26.2316 39.7052 18.05 39.7052C17.7863 39.7052 17.5208 39.722 17.2587 39.6935C16.5867 39.6212 16.1197 39.1105 16.1298 38.4855C16.1399 37.8606 16.6203 37.3767 17.2974 37.3247C17.5343 37.3062 17.7728 37.3179 18.0097 37.3179C25.6369 37.3179 33.2641 37.3045 40.8896 37.3381C41.6708 37.3415 41.7968 37.0777 41.7498 36.3973C41.5095 32.9348 40.3923 29.8083 38.2487 27.0632C38.1025 26.8767 37.9429 26.6987 37.8085 26.5038C37.3784 25.8839 37.4473 25.2404 37.9799 24.8154C38.5141 24.3887 39.1609 24.4424 39.6649 25.022C40.9551 26.5071 41.9598 28.1737 42.7107 29.9915C43.5961 32.1335 44.0749 34.3645 44.132 36.6829C44.1404 37.0407 44.1354 37.2776 44.6192 37.3851C45.5365 37.5901 46.0002 38.2722 46.0271 39.2432C46.0439 39.8766 46.0506 40.5116 46.0119 41.1433C45.9884 41.5381 46.0842 41.7162 46.5075 41.7481C48.6109 41.9077 50.5933 42.5058 52.4799 43.4365C52.7521 43.5709 53.0327 43.5961 53.325 43.5944C54.5648 43.5911 55.8063 43.5793 57.0462 43.6011C57.4595 43.6079 57.7031 43.4953 57.9164 43.1055C58.6707 41.7296 59.8585 40.9736 61.4343 40.9182C62.5683 40.8779 63.704 40.8879 64.838 40.9098C65.6696 40.9249 66.1451 41.3718 66.1551 42.074C66.1652 42.7998 65.6663 43.2769 64.8011 43.2987C63.7981 43.3239 62.7951 43.2954 61.7922 43.3105C60.4532 43.3307 59.798 43.9775 59.793 45.3181C59.7829 49.0124 59.7829 52.7067 59.793 56.4027C59.7963 57.7148 60.4868 58.3986 61.8073 58.4003C67.7713 58.407 73.7353 58.3969 79.6993 58.4154C80.2621 58.4171 80.3999 58.2491 80.3982 57.7031C80.3764 53.1368 80.3764 48.5723 80.3982 44.006C80.4016 43.4516 80.2403 43.292 79.6892 43.2971C76.6803 43.3206 73.6715 43.3105 70.6643 43.3038C70.3501 43.3038 70.0259 43.2937 69.7268 43.2097C69.1439 43.0467 68.8515 42.5982 68.8935 42.0169C68.9355 41.4423 69.2665 41.0307 69.8747 40.9417C70.1603 40.8997 70.4526 40.9047 70.7432 40.9031C73.6983 40.9014 76.6551 40.8846 79.6103 40.9148C80.2319 40.9215 80.4032 40.7451 80.4015 40.1202C80.3797 32.283 80.4015 24.4441 80.3814 16.6069C80.3696 12.0289 76.7039 8.71426 72.1595 9.0973C71.8403 9.12418 71.6891 9.2149 71.6403 9.53746C71.5765 9.9541 71.4723 10.364 71.3732 10.7739C70.713 13.5006 68.3425 15.4326 65.5386 15.4729C63.1899 15.5065 60.8413 15.4981 58.4927 15.4796C55.3931 15.4561 53.0041 13.4804 52.3657 10.4463C52.1742 9.53242 51.6091 9.08666 50.6706 9.10906C46.7226 9.20482 43.6448 12.1549 43.4768 16.0895C43.3945 18.0383 43.4516 19.9938 43.4365 21.9476C43.4348 22.2618 43.4315 22.5911 43.3407 22.8851C43.1761 23.4227 42.7578 23.7015 42.2017 23.6881C41.6843 23.6747 41.3079 23.3975 41.1265 22.8985C41.0727 22.7523 41.0375 22.5894 41.0391 22.4348C41.0492 20.1651 40.9417 17.8871 41.1097 15.6308C41.4843 10.5942 45.5768 6.7537 50.6067 6.71674C58.1281 6.6613 65.6495 6.66802 73.1708 6.71338C77.8748 6.74194 81.7741 10.1087 82.6208 14.7303C82.6494 14.8832 82.6343 15.0495 82.7754 15.1621V69.3169V69.3152ZM33.7143 45.3517C33.7143 45.3517 33.7143 45.3601 33.7143 45.3651C32.2897 45.3651 30.8651 45.3383 29.4421 45.3752C28.6609 45.3954 28.1569 45.9414 28.1115 46.6739C28.0628 47.4383 28.5416 48.0548 29.3144 48.1926C29.5463 48.2346 29.7882 48.2228 30.0251 48.2228C32.3737 48.2245 34.7207 48.2228 37.0693 48.2228C37.281 48.2228 37.491 48.2178 37.7027 48.2262C38.5091 48.2564 39.0248 48.6999 39.0483 49.3753C39.0735 50.0742 38.5242 50.6051 37.701 50.6101C35.1155 50.6235 32.5299 50.6067 29.9461 50.6219C29.2489 50.6252 28.5903 50.5009 27.9318 50.2875C23.2513 48.7621 18.5658 47.2434 13.8819 45.728C12.9411 45.4239 12.2557 45.6877 11.9819 46.4303C11.7047 47.1829 12.044 47.7961 12.9932 48.1892C19.6107 50.9293 26.2266 53.6744 32.8525 56.3927C34.8836 57.2259 37.0038 57.5603 39.2029 57.3099C41.1702 57.0865 43.0955 56.6329 45.0291 56.2331C48.5689 55.5023 52.1003 54.7597 55.7492 55.0453C56.0903 55.0722 56.438 55.0218 56.7774 55.0554C57.2696 55.1041 57.4091 54.9042 57.4057 54.4254C57.3872 51.8399 57.3872 49.2543 57.4057 46.6705C57.4091 46.1715 57.2864 45.9683 56.7438 45.9851C55.5056 46.022 54.2641 45.9867 53.0243 46.0019C52.5102 46.0086 52.0398 45.8977 51.5811 45.6659C48.1859 43.9539 44.636 43.5642 40.9854 44.6058C39.0114 45.1686 37.0357 45.4844 34.9861 45.3534C34.5661 45.3265 34.1427 45.35 33.7194 45.35L33.7143 45.3517ZM61.9383 9.10402C59.6972 9.10402 57.4544 9.11578 55.2133 9.09562C54.6908 9.09058 54.5312 9.20146 54.6539 9.76426C55.1259 11.9415 56.4834 13.0873 58.7094 13.0957C60.8715 13.1024 63.0354 13.1058 65.1975 13.0957C67.274 13.0839 68.6919 11.913 69.1321 9.90538C69.2564 9.3409 69.2228 9.0721 68.5055 9.0889C66.3181 9.13762 64.1274 9.1057 61.9383 9.10738V9.10402ZM23.8393 18.3961C24.2593 18.3961 24.6793 18.4079 25.0976 18.3911C25.2824 18.3843 25.5042 18.4868 25.6083 18.1794C25.9544 17.163 25.316 15.8291 24.3131 15.5519C23.6125 15.3587 23.0161 15.5754 22.5373 16.1029C21.9812 16.7161 21.9644 17.5225 22.1811 18.1844C22.3374 18.6615 23.0615 18.3087 23.5235 18.3911C23.6259 18.4095 23.7335 18.3944 23.8376 18.3944L23.8393 18.3961ZM21.074 45.3584C21.0673 45.4139 21.0606 45.4676 21.0522 45.5231C22.1879 45.896 23.3235 46.274 24.4609 46.6436C25.7243 47.0552 25.7142 47.0502 25.8452 45.7112C25.8687 45.4693 25.8435 45.3601 25.5999 45.3601C24.0913 45.3584 22.5827 45.3601 21.0723 45.3601L21.074 45.3584Z" fill="#07074E"/>
</svg>
