<svg width="84" height="85" viewBox="0 0 84 85" fill="none" xmlns="http://www.w3.org/2000/svg">
<path d="M46.993 60.9651C42.7711 60.9651 38.551 60.9735 34.3291 60.9583C33.4975 60.955 33.6353 61.086 33.6319 60.2679C33.6134 57.1179 33.6252 53.9695 33.6252 50.8195C33.6252 49.9627 33.5546 49.8922 32.723 49.8922C31.1153 49.8922 29.5092 49.8922 27.9014 49.8939C27.2042 49.8939 27.1102 49.9879 27.1102 50.6683C27.1102 53.9343 27.1018 57.2002 27.1169 60.4661C27.1186 60.8542 27.0262 60.9852 26.623 60.9718C25.7527 60.9415 24.8808 60.955 24.0106 60.9718C23.7098 60.9785 23.6074 60.8945 23.609 60.5787C23.6275 54.7843 23.6376 48.9883 23.6426 43.194C23.6426 41.8887 23.6359 40.585 23.609 39.2796C23.6006 38.9218 23.7216 38.8311 24.066 38.8311C33.6941 38.8395 43.3205 38.8311 52.9486 38.8462C54.3514 38.8479 55.7525 38.8529 57.1536 38.8378C58.0709 38.8277 58.9882 38.8596 59.9071 38.8647C60.2448 38.8663 60.3607 39.0075 60.3607 39.3519C60.3607 45.2638 60.3725 51.1774 60.3826 57.0893C60.3843 58.1611 60.3893 59.233 60.391 60.3048C60.391 60.9617 60.391 60.9634 59.7593 60.9634C55.5055 60.9634 51.2501 60.9634 46.9963 60.9634L46.993 60.9651ZM44.1622 50.3794V50.3827C43.0399 50.3827 41.9177 50.3911 40.7954 50.376C40.493 50.3727 40.3872 50.4533 40.399 50.7708C40.4242 51.4227 40.4074 52.0762 40.4074 52.7297C40.4074 53.3799 40.5132 53.5109 41.1482 53.5143C43.2751 53.5243 45.402 53.5143 47.5289 53.5243C47.8313 53.5243 47.9438 53.4336 47.9371 53.1228C47.9186 52.3366 47.9136 51.5487 47.9371 50.7624C47.9455 50.4382 47.8229 50.371 47.5289 50.3743C46.4083 50.3878 45.2861 50.3794 44.1638 50.3794H44.1622ZM44.1655 49.4302C45.2861 49.4302 46.4067 49.4218 47.5255 49.4352C47.8296 49.4386 47.9405 49.3411 47.9338 49.0337C47.9186 48.2307 47.9237 47.4276 47.9321 46.6263C47.9338 46.3995 47.8682 46.2936 47.6213 46.2936C45.4138 46.3003 43.2046 46.297 40.997 46.3003C40.5871 46.3003 40.3956 46.5087 40.4023 46.9303C40.4158 47.6326 40.4174 48.3365 40.399 49.0371C40.3906 49.3462 40.4998 49.4403 40.8039 49.4352C41.9244 49.4201 43.045 49.4302 44.1655 49.4285V49.4302ZM52.6109 50.3777C51.5743 50.3777 50.5378 50.3878 49.5012 50.371C49.1803 50.3659 49.056 50.4583 49.0661 50.7943C49.0862 51.5638 49.0846 52.3332 49.0661 53.101C49.0577 53.4403 49.1887 53.526 49.5062 53.521C50.5092 53.5042 51.5122 53.5143 52.5168 53.5143C53.4694 53.5143 54.4236 53.5193 55.3762 53.5126C56.0599 53.5075 56.1641 53.395 56.1624 52.7314C56.1624 52.0963 56.1406 51.4596 56.1708 50.8263C56.1876 50.4684 56.0717 50.3643 55.7222 50.371C54.6857 50.3895 53.6491 50.3777 52.6126 50.3777H52.6109ZM52.6176 49.4302C53.6222 49.4302 54.6269 49.4117 55.6298 49.4386C56.0314 49.4487 56.1994 49.3613 56.1725 48.9228C56.1355 48.3063 56.1674 47.6847 56.1658 47.0647C56.1658 46.428 56.0381 46.2953 55.4081 46.2936C53.4341 46.2919 51.4584 46.3071 49.4844 46.2852C49.1215 46.2819 49.061 46.423 49.0644 46.7187C49.0728 47.5049 49.0812 48.2911 49.0678 49.0774C49.0627 49.3747 49.1837 49.4386 49.4558 49.4352C50.5092 49.4218 51.5642 49.4302 52.6176 49.4302Z" fill="#07074E"/>
<path d="M30.9271 28.1258C32.6373 26.8338 34.2602 25.6058 35.8848 24.3794C37.7277 22.9866 39.5757 21.6023 41.412 20.2012C41.8236 19.887 42.1663 19.8803 42.5813 20.1962C46.0051 22.7985 49.4373 25.3907 52.8696 27.983C55.9541 30.3114 59.0436 32.6366 62.1314 34.9617C62.3179 35.1028 62.5027 35.2473 62.6925 35.3867C62.8387 35.4942 62.9361 35.6219 62.879 35.8134C62.8185 36.0134 62.669 36.1108 62.4691 36.1242C62.3364 36.1343 62.202 36.1293 62.0676 36.1293C60.4262 36.1343 58.7832 36.0386 57.1452 36.0671C48.6511 36.215 40.1587 36.0839 31.6646 36.1276C28.4037 36.1444 25.1429 36.131 21.882 36.131C21.7644 36.131 21.6468 36.1377 21.5309 36.1259C21.3326 36.1074 21.1797 36.0167 21.1209 35.8134C21.0672 35.6219 21.1646 35.4976 21.3091 35.3884C22.1911 34.7248 23.0714 34.0578 23.9517 33.3909C24.7128 32.8146 25.4654 32.2283 26.2399 31.6706C26.4785 31.4992 26.5356 31.306 26.5339 31.0355C26.5255 29.5101 26.5272 27.9863 26.5289 26.4609C26.5289 25.888 26.6364 25.7704 27.1941 25.7654C28.2156 25.7586 29.237 25.7586 30.2601 25.767C30.8196 25.7721 30.9254 25.888 30.9305 26.4592C30.9338 26.985 30.9305 27.5109 30.9305 28.1241L30.9271 28.1258Z" fill="#00AEEF"/>
<path d="M74.7297 43.0745C71.7796 43.0593 69.3722 40.6905 69.3772 37.8093C69.3822 34.7383 71.7611 32.3661 74.8288 32.3745C77.7201 32.3813 80.1258 34.8475 80.104 37.7808C80.0822 40.7241 77.6798 43.0913 74.7297 43.0761V43.0745Z" fill="#00AEEF"/>
<path d="M76.146 60.0441C76.1997 62.9404 73.8427 65.4352 71.0136 65.4772C67.9173 65.5226 65.4847 63.2361 65.4393 60.2356C65.3956 57.2687 67.7208 54.8294 70.6456 54.7773C73.6697 54.7235 76.0922 57.0419 76.1476 60.0424L76.146 60.0441Z" fill="#00AEEF"/>
<path d="M18.5572 60.1267C18.569 63.0936 16.1918 65.4675 13.1963 65.4792C10.2463 65.4893 7.81195 63.0567 7.83043 60.1116C7.84723 57.2489 10.2799 54.7843 13.0922 54.7793C16.1699 54.7743 18.5455 57.0977 18.5572 60.1267Z" fill="#00AEEF"/>
<path d="M9.27704 43.0763C6.29168 43.0814 3.90104 40.7109 3.896 37.739C3.89096 34.7805 6.3068 32.3647 9.26192 32.3731C12.2422 32.3815 14.6161 34.7855 14.6228 37.7995C14.6278 40.6807 12.207 43.0713 9.27704 43.0763Z" fill="#00AEEF"/>
<path d="M53.3401 80.0952C50.185 80.0095 47.9372 77.6256 48.0229 74.4538C48.0985 71.6515 50.6084 69.3079 53.4762 69.397C56.4464 69.4894 58.7631 71.8011 58.7312 74.862C58.6993 77.7819 56.2028 80.1725 53.3418 80.0952H53.3401Z" fill="#00AEEF"/>
<path d="M42.0067 15.6032C39.0196 15.6032 36.634 13.2227 36.6458 10.2541C36.6559 7.25364 39.0398 4.90164 42.0688 4.90332C44.9568 4.90332 47.3407 7.31244 47.3541 10.239C47.3676 13.2076 44.9786 15.6049 42.0067 15.6032Z" fill="#00AEEF"/>
<path d="M20.59 23.3817C17.6467 23.3733 15.2594 20.9776 15.2644 18.0393C15.2695 15.0405 17.6567 12.6936 20.6891 12.7036C23.6426 12.7137 25.9811 15.0842 25.9778 18.0628C25.9727 21.0331 23.5855 23.3901 20.59 23.3817Z" fill="#00AEEF"/>
<path d="M63.3915 23.3831C60.4347 23.3965 58.0374 21.0378 58.0189 18.0961C58.0004 15.0536 60.3524 12.705 63.4235 12.6983C66.3332 12.6915 68.7104 15.0687 68.7306 18.002C68.7491 20.9689 66.3685 23.3696 63.3932 23.3831H63.3915Z" fill="#00AEEF"/>
<path d="M35.9721 74.6821C36.0342 77.5969 33.694 80.0346 30.7741 80.0934C27.7737 80.1555 25.3242 77.8304 25.2688 74.8753C25.2134 71.9454 27.5469 69.6404 29.8535 69.4943C33.5058 69.2624 35.9032 71.3943 35.9721 74.6821Z" fill="#00AEEF"/>
<path d="M12.1077 31.444C12.0321 31.4104 11.9582 31.3684 11.8792 31.3432C11.5466 31.234 11.2156 31.1113 10.8763 31.024C9.99261 30.8005 10.0027 30.8123 10.3656 29.9773C11.5231 27.3112 12.9746 24.8214 14.7403 22.5097C14.9872 22.1872 15.13 22.1553 15.377 22.4929C15.6626 22.8861 16.0255 23.2187 16.4237 23.4942C16.6723 23.6673 16.6958 23.7865 16.5026 24.0352C15.2141 25.69 14.1153 27.4641 13.198 29.349C12.9124 29.9353 12.6554 30.5351 12.3799 31.1248C12.3211 31.2508 12.3093 31.4255 12.1077 31.4423V31.444Z" fill="#07074E"/>
<path d="M73.9319 30.7113C73.9722 30.8726 73.8495 30.8894 73.7286 30.9045C73.1591 30.9734 72.6097 31.133 72.0956 31.3665C71.7445 31.5244 71.6991 31.3194 71.6067 31.0994C71.012 29.6798 70.3098 28.3139 69.5202 26.9918C68.9204 25.9871 68.2669 25.0178 67.5428 24.0988C67.3379 23.8367 67.2824 23.6872 67.5983 23.4789C68.0166 23.2017 68.3711 22.8354 68.6701 22.4339C68.9003 22.1265 69.0279 22.2189 69.2144 22.4642C70.6239 24.3155 71.8705 26.2694 72.8768 28.3694C73.2162 29.0766 73.5253 29.7974 73.8495 30.513C73.8764 30.5735 73.8999 30.6374 73.9302 30.713L73.9319 30.7113Z" fill="#07074E"/>
<path d="M16.2742 66.3343C16.879 65.9697 17.4502 65.6471 17.9021 65.1667C18.144 64.9096 18.2683 65.0978 18.4162 65.2574C19.2562 66.1696 20.1314 67.0483 21.0907 67.8362C22.2398 68.777 23.3251 69.8068 24.6557 70.5057C24.9497 70.6603 25.0404 70.798 24.7447 71.087C24.3785 71.4465 24.2861 71.9673 24.1366 72.4411C24.0442 72.7351 23.9501 72.8056 23.6628 72.6225C20.9227 70.8719 18.4649 68.7938 16.2742 66.3326V66.3343Z" fill="#07074E"/>
<path d="M60.1104 72.7482C59.9474 72.7382 59.9407 72.6222 59.9088 72.5349C59.692 71.9721 59.477 71.411 59.1091 70.9238C58.9108 70.6617 59.1897 70.6146 59.3174 70.5306C60.2952 69.8838 61.2477 69.2051 62.16 68.4676C63.3729 67.4865 64.5136 66.4281 65.5636 65.2756C65.8056 65.0102 65.9484 64.995 66.192 65.2538C66.5498 65.6334 66.99 65.9224 67.4503 66.1593C67.7208 66.2987 67.6905 66.3962 67.5158 66.5843C65.4612 68.8053 63.1982 70.7826 60.6396 72.4072C60.4564 72.5231 60.2767 72.6424 60.112 72.7466L60.1104 72.7482Z" fill="#07074E"/>
<path d="M7.93302 44.5024C8.4555 44.6351 9.0267 44.62 9.59622 44.6032C9.82638 44.5964 9.9171 44.667 9.92718 44.9106C10.0196 47.2777 10.3925 49.6045 11.0074 51.891C11.1116 52.2791 11.2157 52.6672 11.3535 53.0435C11.4526 53.3173 11.4358 53.4618 11.12 53.5559C10.6227 53.702 10.1372 53.9003 9.7071 54.1926C9.41814 54.3892 9.32406 54.2867 9.23502 54.0011C8.69574 52.2908 8.2875 50.5504 8.0103 48.7763C7.80702 47.4676 7.68774 46.1504 7.6407 44.8283C7.62894 44.4872 7.64238 44.4872 7.9347 44.5024H7.93302Z" fill="#07074E"/>
<path d="M25.6184 13.2511C26.9389 12.5791 28.2308 11.9727 29.5731 11.4535C31.2464 10.8051 32.9482 10.2859 34.6938 9.89114C34.9978 9.82226 35.1138 9.83402 35.0986 10.1868C35.0751 10.7227 35.1154 11.262 35.27 11.7778C35.3557 12.0634 35.2465 12.1171 35.0113 12.1692C32.2712 12.774 29.6605 13.7417 27.1724 15.0387C26.9893 15.1344 26.8818 15.1563 26.786 14.9412C26.5088 14.3263 26.0871 13.8055 25.6184 13.2511Z" fill="#07074E"/>
<path d="M74.9716 44.6352C75.3194 44.5949 75.6756 44.5848 76.0149 44.5075C76.3291 44.4369 76.3778 44.5478 76.366 44.8267C76.3039 46.3673 76.1443 47.8961 75.8822 49.4148C75.6151 50.9637 75.2404 52.4875 74.7684 53.9877C74.6676 54.3103 74.5718 54.3792 74.2711 54.1826C73.836 53.8987 73.3538 53.6971 72.8582 53.5442C72.5827 53.4602 72.5524 53.3359 72.6381 53.0721C73.2799 51.0931 73.6915 49.0637 73.9099 46.9956C73.9754 46.3807 74.0577 45.7625 74.056 45.1476C74.056 44.7108 74.1703 44.5243 74.6172 44.6066C74.7297 44.6268 74.8507 44.61 74.9683 44.61C74.9683 44.6184 74.97 44.6268 74.9716 44.6352Z" fill="#07074E"/>
<path d="M58.3816 13.2494C57.9179 13.7954 57.503 14.3011 57.2359 14.9042C57.1418 15.1159 57.0326 15.1663 56.8142 15.042C55.3677 14.2289 53.8238 13.6224 52.2698 13.0596C51.2383 12.6866 50.1496 12.4682 49.0811 12.1994C48.7703 12.1222 48.6561 12.0197 48.7451 11.6702C48.8745 11.1696 48.9131 10.6454 48.9031 10.1263C48.898 9.89281 48.9299 9.79873 49.2088 9.86593C51.0619 10.3078 52.883 10.8252 54.6554 11.5594C55.9053 12.0768 57.1351 12.6194 58.3833 13.2494H58.3816Z" fill="#07074E"/>
<path d="M41.9781 77.9077C40.4375 77.8774 38.9003 77.7985 37.3698 77.5885C37.0154 77.5398 36.9767 77.4507 37.096 77.1214C37.2623 76.6695 37.3883 76.1924 37.4522 75.7153C37.4992 75.3642 37.6403 75.3138 37.9394 75.3558C39.8697 75.6296 41.8118 75.6464 43.7538 75.5641C44.5216 75.5322 45.2877 75.4431 46.0538 75.3558C46.3528 75.3222 46.5057 75.3507 46.5359 75.7119C46.5796 76.2277 46.7274 76.7334 46.9257 77.2122C47.0483 77.5062 46.9307 77.5398 46.6838 77.575C45.123 77.8018 43.5522 77.8858 41.9764 77.906L41.9781 77.9077Z" fill="#07074E"/>
</svg>
