<svg width="84" height="85" viewBox="0 0 84 85" fill="none" xmlns="http://www.w3.org/2000/svg">
<path d="M42.0117 4.14551C54.1766 4.14551 66.3414 4.14551 78.5063 4.14551C80.0233 4.14551 80.3543 4.47815 80.3543 6.01031C80.3543 30.3401 80.3543 54.6698 80.3543 78.9979C80.3543 80.52 80.02 80.8526 78.4946 80.8526C65.7114 80.8526 52.9283 80.8526 40.1452 80.8526C38.6198 80.8526 38.2888 80.5217 38.2888 78.9979C38.2888 76.5753 38.2619 74.1528 38.3056 71.7302C38.3173 71.0649 38.1124 70.9406 37.4874 70.9423C26.8429 70.9625 16.1985 70.9574 5.55567 70.9557C3.96471 70.9557 3.64551 70.6416 3.64551 69.0758C3.64551 48.0456 3.64551 27.0153 3.64551 5.98511C3.64551 4.47143 3.97647 4.14719 5.51703 4.14719C17.6819 4.14719 29.8468 4.14719 42.0117 4.14719V4.14551ZM42.0134 14.0441C30.3138 14.0441 18.6143 14.0457 6.91647 14.0357C6.39063 14.0357 6.10167 14.0508 6.10335 14.7446C6.12519 32.4216 6.12351 50.1002 6.10671 67.7772C6.10671 68.3652 6.26631 68.4962 6.83583 68.4945C17.0653 68.4761 27.2965 68.4777 37.5261 68.4945C38.1073 68.4945 38.3157 68.382 38.3039 67.7469C38.2636 65.2992 38.2871 62.8514 38.2871 60.4037C38.2871 58.9269 38.6282 58.5859 40.1015 58.5859C52.3941 58.5859 64.685 58.5775 76.9775 58.6044C77.7285 58.6044 77.8982 58.4213 77.8965 57.6804C77.8713 43.4306 77.8713 29.1792 77.8981 14.9294C77.8981 14.1499 77.6663 14.0273 76.9557 14.0289C65.3082 14.0525 53.6608 14.0457 42.0134 14.0457V14.0441ZM59.4013 61.0589C53.4491 61.0589 47.4969 61.0706 41.5446 61.0421C40.8928 61.0387 40.745 61.2151 40.7483 61.8501C40.7752 67.1069 40.7718 72.3636 40.7517 77.6186C40.75 78.2049 40.8743 78.3931 41.5026 78.3931C53.3819 78.3729 65.2595 78.3729 77.1388 78.3931C77.757 78.3931 77.8982 78.2201 77.8948 77.6237C77.8713 72.3669 77.8696 67.1102 77.8948 61.8552C77.8982 61.2269 77.7621 61.0387 77.1035 61.0421C71.2034 61.0706 65.3015 61.0589 59.4013 61.0589ZM50.0034 11.5694C55.3122 11.5694 60.6194 11.5694 65.9282 11.5694C69.6645 11.5694 73.4008 11.5543 77.1371 11.5845C77.7587 11.5896 77.9183 11.4098 77.8931 10.8134C77.8461 9.73319 77.8259 8.64623 77.8981 7.56767C77.9485 6.79487 77.7335 6.59831 76.9439 6.59999C59.0099 6.62519 41.0742 6.62015 23.1402 6.62015C23.0109 6.62015 22.8798 6.63527 22.7538 6.61679C22.3053 6.55295 22.186 6.75119 22.1961 7.18127C22.2213 8.36567 22.2465 9.55343 22.1894 10.7361C22.1558 11.4098 22.3338 11.5879 23.026 11.5862C32.019 11.5593 41.0121 11.5677 50.0051 11.5677L50.0034 11.5694ZM12.8452 11.5694C14.9317 11.5694 17.0166 11.5526 19.1032 11.5812C19.6173 11.5879 19.755 11.43 19.7416 10.9327C19.708 9.67103 19.7181 8.40935 19.7382 7.14767C19.7449 6.75623 19.6441 6.61175 19.2241 6.61343C15.0275 6.62687 10.8292 6.62687 6.63255 6.61343C6.21927 6.61343 6.10671 6.74447 6.11343 7.14263C6.13527 8.37911 6.15039 9.61559 6.10839 10.8504C6.08823 11.4132 6.22431 11.598 6.82071 11.5862C8.82831 11.5459 10.8376 11.5711 12.8452 11.5711V11.5694Z" fill="#07074E"/>
<path d="M30.8632 54.8547C30.8531 61.0287 25.8685 66.0099 19.708 66.0032C13.5575 65.9965 8.58805 60.9917 8.59645 54.8127C8.60485 48.6841 13.6415 43.718 19.8289 43.7398C25.882 43.7617 30.8749 48.7899 30.8648 54.8547H30.8632ZM27.0714 50.3657C25.094 52.0155 23.1402 53.6501 21.1796 55.2747C20.9629 55.4545 20.968 55.6645 20.968 55.8963C20.968 58.213 20.9764 60.5314 20.9612 62.8481C20.9579 63.2782 21.0402 63.4345 21.519 63.3505C27.2192 62.3458 30.255 55.4074 27.0748 50.3657H27.0714ZM18.4916 49.9995C18.4916 48.9461 18.4715 47.8911 18.5017 46.8377C18.5135 46.3942 18.3556 46.3287 17.9624 46.3959C14.8276 46.9251 11.8002 49.9491 11.2559 53.0974C11.1904 53.4754 11.229 53.6501 11.6876 53.6451C13.7692 53.6233 15.8524 53.6249 17.9339 53.6451C18.3656 53.6485 18.5152 53.5309 18.5017 53.0857C18.4715 52.0575 18.4916 51.0293 18.4916 50.0012V49.9995ZM18.4916 59.7435C18.4916 58.7153 18.4816 57.6872 18.4967 56.659C18.5017 56.2995 18.4564 56.0962 18.0095 56.1013C15.9011 56.1214 13.7944 56.1231 11.686 56.1013C11.2256 56.0962 11.1904 56.2726 11.2559 56.6489C11.8019 59.7989 14.8208 62.8129 17.9624 63.3488C18.3589 63.416 18.5118 63.3454 18.5 62.9053C18.4715 61.8519 18.4916 60.7969 18.4916 59.7435ZM20.968 52.2272C22.4598 50.984 23.7937 49.8617 25.1428 48.758C25.4368 48.5177 25.4586 48.3716 25.1495 48.1297C24.0407 47.2561 22.7958 46.6832 21.4199 46.3841C21.099 46.3153 20.9579 46.3959 20.9612 46.7605C20.9747 48.5245 20.968 50.2901 20.968 52.2272Z" fill="#00AEEF"/>
<path d="M73.1673 16.5186C74.466 16.5824 75.642 17.2729 76.2938 18.6891C76.9322 20.0751 76.7508 21.4258 75.768 22.5934C74.7667 23.7812 73.4596 24.218 71.951 23.7745C71.452 23.6283 71.1681 23.7241 70.8237 24.0786C69.4394 25.4998 68.0299 26.8959 66.6203 28.292C65.7921 29.1135 65.2192 29.1034 64.3792 28.2735C63.6837 27.5847 62.9664 26.9144 62.3112 26.1886C61.9214 25.7586 61.6963 25.7703 61.2864 26.1853C58.5916 28.9203 55.8684 31.6251 53.1535 34.34C52.1472 35.3463 51.6516 35.3413 50.6368 34.3282C49.1601 32.8532 47.6666 31.3933 46.2201 29.8897C45.8035 29.4562 45.5901 29.5066 45.1953 29.9065C42.5527 32.5844 39.8748 35.2254 37.2355 37.9066C36.8104 38.3384 36.5803 38.3485 36.1569 37.9083C34.9574 36.6601 34.9372 36.6786 36.1401 35.4757C38.9272 32.6886 41.7144 29.8998 44.5032 27.1126C45.4473 26.1702 45.9765 26.1651 46.9089 27.0958C48.3873 28.5692 49.8808 30.0274 51.3256 31.5327C51.7641 31.9897 52.0027 32.0149 52.4613 31.5478C55.1342 28.8279 57.8407 26.1433 60.5388 23.4469C61.5518 22.4355 62.0424 22.4355 63.0554 23.4469C63.7123 24.1021 64.4011 24.7287 65.0109 25.4242C65.4225 25.8946 65.6628 25.7838 66.0357 25.3923C67.0303 24.3474 68.05 23.3242 69.095 22.3314C69.4629 21.9819 69.5184 21.6862 69.3806 21.199C68.7103 18.842 70.4793 16.5303 73.1673 16.5202V16.5186ZM74.1619 20.2213C74.1585 19.5577 73.6075 19.0033 72.9422 18.9966C72.2803 18.9898 71.7158 19.5342 71.699 20.1978C71.6805 20.8933 72.2635 21.4779 72.9556 21.4611C73.6192 21.4443 74.1652 20.8849 74.1619 20.2213Z" fill="#00AEEF"/>
<path d="M67.9812 42.4229C67.9812 38.4799 67.9812 34.5353 67.9812 30.5923C67.9812 29.2752 68.3642 28.8938 69.6814 28.8905C71.0993 28.8888 72.5172 28.8821 73.9334 28.8921C74.9448 28.8989 75.4001 29.3474 75.4018 30.3588C75.4068 38.4513 75.4068 46.5439 75.4018 54.6382C75.4018 55.6478 74.9431 56.0997 73.9351 56.1065C72.4668 56.1165 70.9968 56.1149 69.5285 56.1065C68.4197 56.1014 67.9846 55.6714 67.9846 54.5609C67.9795 50.5138 67.9829 46.4683 67.9829 42.4212L67.9812 42.4229ZM72.9305 42.5304V33.0266C72.9305 31.3601 72.9305 31.3937 71.2404 31.35C70.5902 31.3332 70.439 31.518 70.4407 32.1564C70.4659 38.7235 70.4558 45.2923 70.4558 51.8611C70.4558 53.6604 70.4558 53.6369 72.2618 53.652C72.8095 53.657 72.9456 53.5008 72.9422 52.9632C72.9187 49.4856 72.9305 46.0097 72.9305 42.5321V42.5304Z" fill="#00AEEF"/>
<path d="M58.0843 44.3143C58.0843 40.9644 58.0843 37.6128 58.0843 34.2628C58.0843 32.9978 58.4791 32.6047 59.7475 32.603C61.1655 32.5996 62.5834 32.5963 63.9996 32.603C65.0597 32.6097 65.5032 33.0482 65.5049 34.11C65.5099 40.9392 65.5099 47.77 65.5049 54.5992C65.5049 55.6576 65.058 56.0978 63.9963 56.1045C62.5279 56.1129 61.0579 56.1129 59.5896 56.1045C58.5295 56.0978 58.0877 55.6593 58.086 54.5959C58.0793 51.1687 58.0843 47.7398 58.0843 44.3126V44.3143ZM63.0336 44.3932V36.7442C63.0336 35.0709 63.0336 35.1028 61.3519 35.0608C60.7152 35.0457 60.5405 35.207 60.5439 35.8588C60.5724 41.1895 60.5607 46.5201 60.5607 51.8524C60.5607 53.6568 60.5607 53.6349 62.3583 53.65C62.8925 53.6534 63.0521 53.5207 63.0471 52.9713C63.0185 50.1136 63.0336 47.2543 63.0336 44.3949V44.3932Z" fill="#07074E"/>
<path d="M18.4967 26.4158C15.7381 26.4158 12.9812 26.4175 10.2227 26.4158C9.00804 26.4158 8.59812 26.0059 8.59644 24.7963C8.59308 22.5535 8.5914 20.3123 8.59644 18.0695C8.5998 16.9557 9.0282 16.5223 10.137 16.5206C15.7045 16.5172 21.2704 16.5172 26.8379 16.5206C27.95 16.5206 28.3852 16.954 28.3885 18.0611C28.3952 20.3291 28.3952 22.5971 28.3885 24.8651C28.3852 25.9773 27.9534 26.4124 26.8463 26.4158C24.0625 26.4208 21.2788 26.4175 18.495 26.4175L18.4967 26.4158ZM18.5084 23.9411C20.7748 23.9411 23.0411 23.9311 25.3074 23.9495C25.7576 23.9529 25.9424 23.8639 25.929 23.3615C25.892 22.1015 25.8937 20.8382 25.929 19.5765C25.9424 19.0843 25.7761 18.9801 25.3158 18.9818C20.7832 18.9969 16.2505 18.9986 11.7196 18.9818C11.2391 18.9801 11.0425 19.0759 11.0593 19.6084C11.0996 20.8432 11.098 22.0814 11.0593 23.3162C11.0442 23.837 11.2206 23.9563 11.7128 23.9512C13.9792 23.9277 16.2455 23.9411 18.5118 23.9411H18.5084Z" fill="#00AEEF"/>
<path d="M18.4146 40.0254C15.6829 40.0254 12.9512 40.0271 10.2179 40.0254C9.0049 40.0254 8.59666 39.6138 8.59498 38.4026C8.59162 36.1598 8.58994 33.9186 8.59498 31.6758C8.59834 30.5637 9.02842 30.1319 10.1389 30.1319C15.7064 30.1286 21.2723 30.1286 26.8398 30.1319C27.9503 30.1319 28.3837 30.567 28.3871 31.6758C28.3938 33.9438 28.3938 36.2118 28.3871 38.4798C28.3837 39.5886 27.9503 40.0238 26.8415 40.0254C24.0325 40.0305 21.2235 40.0271 18.4129 40.0271L18.4146 40.0254ZM18.5154 37.5508C20.7817 37.5508 23.048 37.539 25.3143 37.5609C25.7763 37.5659 25.9427 37.4584 25.9275 36.9662C25.8923 35.7045 25.9023 34.4428 25.9242 33.1811C25.9309 32.7746 25.8536 32.5914 25.3849 32.5931C20.8019 32.6099 16.2171 32.6082 11.6341 32.5931C11.2074 32.5931 11.0511 32.6956 11.0612 33.1475C11.0898 34.4092 11.0982 35.6726 11.0579 36.9326C11.0411 37.4651 11.2376 37.5642 11.7181 37.5592C13.9844 37.5374 16.2507 37.5491 18.5171 37.5491L18.5154 37.5508Z" fill="#07074E"/>
<path d="M55.6097 46.2078C55.6097 48.9663 55.6114 51.7232 55.6097 54.4818C55.6097 55.6964 55.1981 56.1063 53.9902 56.1097C52.5471 56.1131 51.104 56.1181 49.6609 56.108C48.6495 56.1013 48.1925 55.6527 48.1925 54.6431C48.1858 49.0251 48.1858 43.4055 48.1925 37.7876C48.1925 36.7729 48.6445 36.3243 49.6541 36.3176C51.1493 36.3075 52.6445 36.3075 54.1381 36.3176C55.1511 36.3243 55.6047 36.7712 55.6081 37.7809C55.6165 40.5899 55.6114 43.3988 55.6114 46.2095L55.6097 46.2078ZM53.1351 46.2212V40.5042C53.1351 38.7788 53.1351 38.8175 51.4249 38.7687C50.7411 38.7486 50.642 38.9888 50.647 39.597C50.6739 43.6659 50.6605 47.7332 50.6605 51.8022C50.6605 53.6939 50.6605 53.6703 52.5639 53.6502C53.0729 53.6451 53.1469 53.4603 53.1435 53.0202C53.125 50.7539 53.1351 48.4892 53.1351 46.2229V46.2212Z" fill="#00AEEF"/>
<path d="M38.2888 47.4491C38.2888 45.0786 38.2855 42.7064 38.2888 40.336C38.2922 39.2238 38.7223 38.7954 39.8327 38.7904C41.3011 38.7836 42.7711 38.782 44.2394 38.7904C45.2507 38.7971 45.706 39.2456 45.7077 40.2553C45.7144 45.0484 45.7144 49.8431 45.7077 54.6361C45.7077 55.6458 45.2507 56.0977 44.2411 56.1044C42.7459 56.1145 41.2507 56.1145 39.7571 56.1044C38.7475 56.0977 38.2939 55.6475 38.2905 54.6378C38.2821 52.2404 38.2871 49.8448 38.2871 47.4474L38.2888 47.4491ZM43.2364 47.4155V43.0139C43.2364 41.2499 43.2364 41.2852 41.4842 41.2448C40.8273 41.2297 40.7467 41.4767 40.75 42.0361C40.7719 45.3054 40.7618 48.5747 40.7618 51.844C40.7618 53.6533 40.7618 53.6214 42.5527 53.6516C43.1776 53.6617 43.2566 53.4332 43.2482 52.899C43.2179 51.0712 43.2364 49.2433 43.2364 47.4155Z" fill="#07074E"/>
<path d="M43.3187 18.9934C45.9462 18.9934 48.5721 19.0136 51.1979 18.9783C51.796 18.9699 51.9186 19.153 51.9102 19.7141C51.8867 21.4681 51.9102 21.4681 50.1462 21.4681C45.2272 21.4681 40.3081 21.458 35.3908 21.4815C34.7927 21.4849 34.5373 21.4042 34.5575 20.7087C34.6079 18.9951 34.5676 18.9934 36.2879 18.9934C38.6315 18.9934 40.9751 18.9934 43.3187 18.9934Z" fill="#07074E"/>
<path d="M35.8831 23.9411C36.6615 23.9411 37.0507 24.3315 37.0507 25.1121C37.0507 25.9812 36.6279 26.4158 35.7823 26.4158C35.6025 26.4158 35.4194 26.3923 35.243 26.4191C34.6987 26.5031 34.487 26.2831 34.571 25.7438C34.5945 25.5926 34.5744 25.4363 34.5744 25.2818C34.5744 24.3869 35.0101 23.9395 35.8814 23.9395L35.8831 23.9411Z" fill="#00AEEF"/>
<path d="M43.2366 69.6591C43.2366 68.1387 43.2315 66.6183 43.2366 65.0979C43.2416 63.9756 43.6633 63.5388 44.7637 63.5371C47.4433 63.5304 50.1246 63.5321 52.8042 63.5371C53.9247 63.5388 54.3649 63.9655 54.3666 65.0643C54.3733 68.1571 54.3716 71.25 54.3666 74.3429C54.3649 75.4635 53.9365 75.9036 52.8378 75.9053C50.1582 75.912 47.4769 75.9103 44.7973 75.9053C43.6549 75.9036 43.2383 75.4702 43.2349 74.2992C43.2299 72.7536 43.2349 71.2063 43.2349 69.6607L43.2366 69.6591ZM45.7112 69.6406C45.7112 70.7225 45.7314 71.8027 45.7011 72.883C45.6877 73.3349 45.8473 73.4441 46.274 73.4391C47.9725 73.4172 49.6727 73.4206 51.3711 73.4391C51.7609 73.4424 51.9104 73.345 51.9054 72.9267C51.8869 70.7897 51.8869 68.6544 51.9054 66.5175C51.9087 66.1008 51.7659 65.9983 51.3728 66.0017C49.6743 66.0202 47.9742 66.0303 46.2757 65.9967C45.7549 65.9866 45.6927 66.1999 45.7028 66.6317C45.728 67.6347 45.7112 68.6393 45.7112 69.6439V69.6406Z" fill="#00AEEF"/>
<path d="M66.1634 63.5336C69.0228 63.5336 71.8804 63.5487 74.7398 63.5201C75.2908 63.5151 75.4236 63.6764 75.4185 64.2089C75.4051 66.0065 75.4269 66.0065 73.6209 66.0065C68.2903 66.0065 62.9596 65.9948 57.6273 66.0233C56.9755 66.0267 56.8142 65.852 56.8293 65.2153C56.8713 63.5336 56.8394 63.5336 58.5144 63.5336C61.0646 63.5336 63.6132 63.5336 66.1634 63.5336Z" fill="#00AEEF"/>
<path d="M66.1616 68.4813C69.021 68.4813 71.8787 68.4965 74.738 68.4679C75.2857 68.4629 75.4235 68.6174 75.4184 69.155C75.4033 70.9543 75.4268 70.9543 73.6225 70.9543C68.2919 70.9543 62.9612 70.9425 57.6289 70.9694C56.9804 70.9728 56.8124 70.8031 56.8292 70.163C56.8712 68.4797 56.8393 68.4797 58.5109 68.4797C61.0612 68.4797 63.6097 68.4797 66.16 68.4797L66.1616 68.4813Z" fill="#07074E"/>
<path d="M66.135 75.9051C63.2756 75.9051 60.4179 75.8883 57.5586 75.9186C56.984 75.9253 56.8227 75.7808 56.8311 75.1978C56.858 73.4305 56.8311 73.4305 58.5834 73.4305C63.9409 73.4305 69.2967 73.4406 74.6542 73.417C75.2557 73.4137 75.4338 73.5632 75.4203 74.1764C75.385 75.9051 75.4136 75.9051 73.7067 75.9051C71.1834 75.9051 68.6583 75.9051 66.135 75.9051Z" fill="#00AEEF"/>
</svg>
