<svg width="84" height="85" viewBox="0 0 84 85" fill="none" xmlns="http://www.w3.org/2000/svg">
<path d="M42.0975 63.1692C52.8731 63.1692 63.6486 63.1692 74.4241 63.1692C77.6934 63.1692 79.5817 61.2792 79.5817 58.0066C79.5817 44.6455 79.5817 31.2845 79.5817 17.9234C79.5817 14.7146 77.6732 12.7927 74.456 12.791C61.9568 12.7843 49.4576 12.7894 36.9584 12.7877C36.6359 12.7877 36.3083 12.8011 35.9907 12.7558C35.3473 12.6634 34.9777 12.2635 34.9273 11.6234C34.8735 10.9514 35.1776 10.4676 35.8463 10.2929C36.1537 10.2122 36.4863 10.2055 36.8055 10.2055C49.3316 10.2022 61.8577 10.1954 74.3838 10.2055C79.1197 10.2089 82.1655 13.2749 82.1655 17.994C82.1655 31.3282 82.1655 44.6623 82.1655 57.9965C82.1655 62.7206 79.118 65.7547 74.372 65.7564C68.3912 65.7581 62.4121 65.7698 56.4313 65.7396C55.7156 65.7362 55.5174 65.9194 55.5392 66.6317C55.5913 68.3806 55.5863 70.1345 55.5409 71.8834C55.5241 72.5386 55.7459 72.6948 56.3675 72.6864C58.6842 72.6528 61.0009 72.6797 63.3176 72.6713C64.6398 72.6662 65.8847 72.9569 67.0153 73.644C68.7793 74.7158 69.7755 76.2346 69.7302 78.3631C69.705 79.5475 69.7386 80.7336 69.7218 81.918C69.7084 82.8756 69.2312 83.3544 68.2719 83.3645C66.8439 83.3813 65.416 83.3695 63.9896 83.3695C48.1237 83.3695 32.2561 83.3695 16.3902 83.3695C14.7774 83.3695 14.4363 83.0352 14.4347 81.4493C14.4347 80.5337 14.4347 79.6181 14.4347 78.7008C14.4347 75.613 16.1214 73.5281 19.1437 72.846C19.809 72.6965 20.4759 72.6713 21.1496 72.6713C23.3588 72.6696 25.568 72.6427 27.7755 72.6864C28.4694 72.6998 28.634 72.4714 28.6172 71.8178C28.5752 70.121 28.5651 68.4226 28.6206 66.7274C28.6458 65.9731 28.4744 65.7295 27.663 65.7346C21.6822 65.7732 15.7031 65.7581 9.72226 65.7547C5.04682 65.753 1.99426 62.6938 1.99258 58.0116C1.9909 49.4722 1.99258 40.9327 1.99258 32.3933C1.99258 32.2051 1.98418 32.0153 1.99762 31.8271C2.0497 31.0493 2.55034 30.5302 3.25762 30.515C3.99346 30.4999 4.52434 31.0358 4.57474 31.8557C4.58986 32.0976 4.57978 32.3412 4.57978 32.5831C4.57978 41.0688 4.57978 49.5545 4.57978 58.0402C4.57978 61.2641 6.47818 63.1692 9.69034 63.1692C20.4927 63.1692 31.2951 63.1692 42.0975 63.1692ZM42.0387 80.7823C43.8699 80.7823 45.7011 80.7823 47.5323 80.7823C53.8055 80.7823 60.0803 80.7739 66.3534 80.7958C66.975 80.7974 67.2219 80.6546 67.1547 80.0045C67.0976 79.445 67.1195 78.8738 67.148 78.3094C67.2001 77.2526 66.6961 76.5118 65.8578 75.9557C64.9674 75.366 63.9695 75.2501 62.9245 75.2501C49.0309 75.2585 35.1373 75.2568 21.242 75.2568C20.9195 75.2568 20.5952 75.2568 20.2727 75.2803C18.1643 75.4466 17.0185 76.6831 17.0185 78.7865C17.0185 79.1628 17.0622 79.5475 17.0084 79.9154C16.9043 80.6345 17.1747 80.7991 17.8837 80.7974C25.9343 80.7706 33.9848 80.7806 42.0371 80.7806L42.0387 80.7823ZM42.1043 72.6713C45.4676 72.6713 48.8327 72.6578 52.196 72.683C52.779 72.6881 53.0007 72.5537 52.9873 71.927C52.947 70.0975 52.9587 68.2663 52.9823 66.4368C52.989 65.9261 52.8579 65.743 52.3103 65.743C45.5012 65.7614 38.6922 65.7614 31.8831 65.743C31.2951 65.7413 31.1675 65.9446 31.1759 66.4838C31.2044 68.2865 31.2162 70.0908 31.1708 71.8934C31.154 72.5671 31.4077 72.6881 32.0108 72.683C35.3742 72.6578 38.7392 72.6713 42.1026 72.6713H42.1043Z" fill="#07074E"/>
<path d="M42.0908 55.7235C31.0465 55.7235 20.0005 55.7235 8.95614 55.7235C7.3131 55.7235 6.99222 55.3975 6.99222 53.731C6.99222 48.775 6.99222 43.8173 6.99222 38.8613C6.99222 38.4262 6.98214 37.9927 7.30638 37.645C7.6407 37.2855 8.04558 37.1124 8.5395 37.225C9.06198 37.3443 9.39966 37.6786 9.5223 38.1876C9.59118 38.4699 9.57606 38.7756 9.57774 39.0713C9.5811 43.4628 9.60126 47.8527 9.56094 52.2442C9.55422 53.0103 9.7911 53.1564 10.5017 53.1531C16.3465 53.1262 22.1929 53.1279 28.0393 53.1531C28.6726 53.1564 28.849 52.9935 28.8406 52.3534C28.807 49.2555 28.8221 46.1575 28.8272 43.0596C28.8272 41.8299 29.2606 41.3813 30.4601 41.3763C32.2376 41.3679 34.0167 41.3679 35.7941 41.3763C36.9617 41.3813 37.4053 41.8265 37.4069 42.9924C37.412 46.0903 37.4271 49.1883 37.3952 52.2862C37.3885 52.9263 37.5077 53.1749 38.2167 53.1564C39.9841 53.1111 39.9857 53.148 39.9857 51.3975C39.9857 46.171 39.9857 40.9445 39.9857 35.7197C39.9857 34.3455 40.4007 33.9255 41.7565 33.9221C43.4801 33.9187 45.2038 33.9154 46.9292 33.9221C48.1405 33.9271 48.5722 34.3623 48.5722 35.5887C48.5756 41.1377 48.584 46.6867 48.5605 52.2375C48.5571 52.8927 48.6411 53.19 49.4189 53.1598C51.146 53.0959 51.1477 53.1447 51.1477 51.4344C51.1477 47.0429 51.1477 42.6531 51.1477 38.2615C51.1477 36.8352 51.5324 36.4572 52.9738 36.4539C54.6975 36.4522 56.4212 36.4471 58.1465 36.4555C59.3276 36.4606 59.7409 36.8722 59.7425 38.0667C59.7493 42.8076 59.7577 47.5486 59.7308 52.2895C59.7274 52.9447 59.8736 53.1699 60.5674 53.1531C62.3129 53.1094 62.3146 53.1447 62.3146 51.3655C62.3146 43.5804 62.3146 35.7953 62.3146 28.0102C62.3146 26.3806 62.6708 26.0278 64.3189 26.0261C65.8813 26.0261 67.4437 26.0261 69.0061 26.0261C70.5634 26.0278 70.9229 26.3789 70.9229 27.9211C70.9246 36.0019 70.9347 44.0844 70.9078 52.1652C70.9061 52.9179 71.0523 53.2404 71.8671 53.1497C72.5593 53.0741 73.2682 53.101 73.9654 53.1447C74.4795 53.1766 74.6005 52.9851 74.5937 52.5012C74.5685 50.7775 74.5837 49.0539 74.5837 47.3285C74.5837 37.7659 74.5753 28.2017 74.6005 18.6391C74.6021 17.9201 74.4123 17.7521 73.7067 17.7538C61.9618 17.7773 50.2169 17.7706 38.4704 17.7706C37.1297 17.7706 36.5451 17.3808 36.5468 16.4921C36.5468 15.595 37.1482 15.1851 38.4687 15.1851C50.4572 15.1851 62.444 15.1851 74.4325 15.1851C76.4283 15.1851 77.1692 15.9226 77.1692 17.9033C77.1692 29.8901 77.1692 41.8786 77.1692 53.8654C77.1692 55.3488 76.7979 55.7184 75.3077 55.7184C64.2365 55.7184 53.1637 55.7184 42.0925 55.7184L42.0908 55.7235ZM68.3408 40.8571C68.3408 37.0637 68.3273 33.2703 68.3542 29.4768C68.3593 28.8334 68.2181 28.5343 67.5142 28.6032C66.9279 28.6603 66.3281 28.657 65.7401 28.6032C65.0698 28.5411 64.88 28.7729 64.8833 29.4499C64.9102 35.2879 64.8985 41.1259 64.8985 46.9639C64.8985 48.7935 64.9136 50.623 64.8884 52.4525C64.8817 52.9582 64.9976 53.19 65.5537 53.148C66.1685 53.101 66.7952 53.0909 67.4084 53.148C68.1308 53.2169 68.3677 52.9968 68.3593 52.2358C68.3189 48.4423 68.3408 44.6489 68.3408 40.8555V40.8571ZM45.9901 44.8135C45.9901 42.2851 45.9766 39.7567 46.0018 37.23C46.0069 36.6874 45.8825 36.4555 45.2945 36.4942C44.5721 36.5429 43.843 36.5261 43.1173 36.4992C42.6973 36.4824 42.5612 36.6235 42.5629 37.0486C42.5746 42.2398 42.5763 47.4293 42.5629 52.6205C42.5629 53.0741 42.7493 53.1564 43.1391 53.143C43.838 53.1211 44.5402 53.0976 45.2357 53.1497C45.8305 53.1934 46.0169 53.0153 46.0069 52.3987C45.9716 49.8703 45.9917 47.3436 45.9917 44.8152L45.9901 44.8135ZM53.7315 46.1155C53.7315 47.5956 53.7181 49.074 53.7365 50.5541C53.7466 51.3823 53.3854 52.4743 53.8743 52.9666C54.4035 53.5008 55.5089 53.0472 56.354 53.148C57.0697 53.232 57.1805 52.9179 57.1755 52.2828C57.1469 48.7599 57.1705 45.2352 57.1553 41.7123C57.152 40.8588 57.5199 39.7366 57.0125 39.2208C56.4649 38.6631 55.3275 39.1318 54.4556 39.0327C53.8054 38.9587 53.713 39.2611 53.7214 39.8223C53.75 41.9206 53.7332 44.0172 53.7332 46.1155H53.7315ZM34.8214 48.6171C34.8214 47.2714 34.8214 45.924 34.8214 44.5783C34.8214 44.2491 34.8685 43.9265 34.3544 43.9416C33.5211 43.9685 32.6845 43.9618 31.8512 43.9433C31.4799 43.9349 31.4043 44.1147 31.406 44.4355C31.4127 47.1823 31.4144 49.9275 31.4043 52.6743C31.4043 53.0237 31.5219 53.148 31.873 53.1396C32.6525 53.1211 33.4371 53.101 34.2149 53.1463C34.7425 53.1766 34.8416 52.9615 34.8315 52.4928C34.8046 51.2009 34.8231 49.909 34.8231 48.6154L34.8214 48.6171Z" fill="#00AEEF"/>
<path d="M24.9413 29.5356C24.8791 29.5171 24.6658 29.5104 24.5263 29.4063C23.6443 28.7443 22.853 29.25 22.0416 29.5642C21.6485 29.7171 21.6199 30.1018 21.5141 30.4193C21.2386 31.2492 20.6926 31.6323 19.8139 31.597C19.0882 31.5684 18.359 31.5785 17.6333 31.5936C16.8252 31.6121 16.3346 31.2425 16.0507 30.4882C15.6038 29.3055 14.3976 28.8099 13.2384 29.3357C12.5009 29.67 11.8994 29.5759 11.3467 28.9829C10.831 28.4335 10.3001 27.8959 9.74903 27.3835C9.14591 26.8224 9.09383 26.2126 9.41639 25.4851C9.93047 24.3243 9.43991 23.1466 8.24375 22.6846C7.49616 22.3956 7.11984 21.9185 7.15344 21.0987C7.18536 20.346 7.18368 19.59 7.15344 18.8374C7.11984 18.0159 7.49951 17.5421 8.24879 17.2565C9.43991 16.8029 9.93215 15.6185 9.41472 14.4543C9.09048 13.7235 9.15599 13.1119 9.74903 12.5542C10.2782 12.0569 10.8007 11.5479 11.2896 11.0103C11.8877 10.3517 12.5412 10.2845 13.3258 10.6457C14.3808 11.1312 15.6408 10.6205 16.0272 9.53019C16.3212 8.70195 16.8252 8.30883 17.7156 8.35755C18.4397 8.39787 19.1705 8.39115 19.8962 8.35755C20.7178 8.32059 21.1949 8.69691 21.4838 9.44451C21.9475 10.6407 23.1252 11.1329 24.2844 10.6188C25.0102 10.2963 25.6217 10.3467 26.1828 10.9498C26.6952 11.5025 27.2328 12.0334 27.7822 12.5475C28.3735 13.1019 28.4693 13.7016 28.135 14.4391C27.6091 15.6 28.103 16.8063 29.2874 17.2515C30.0434 17.5354 30.4114 18.031 30.3996 18.834C30.3878 19.5883 30.3878 20.3427 30.3996 21.0953C30.413 21.8967 30.0535 22.3939 29.2958 22.6829C28.0997 23.1382 27.6091 24.3276 28.135 25.4902C28.4659 26.226 28.3802 26.8308 27.7906 27.3886C27.1656 27.9816 26.5709 28.6066 25.9493 29.203C25.7107 29.4315 25.41 29.5558 24.943 29.5339L24.9413 29.5356ZM13.9927 26.2361C14.4497 26.2361 14.7319 26.3873 15.0259 26.5251C15.535 26.7653 16.039 27.0459 16.5782 27.1836C17.3561 27.3819 17.892 27.7783 18.0902 28.5663C18.191 28.9711 18.4582 29.0182 18.816 29.0266C19.1789 29.035 19.367 28.8855 19.451 28.5545C19.6543 27.7599 20.1936 27.3617 20.9731 27.1853C21.3864 27.0912 21.8081 26.9316 22.1642 26.7065C22.9068 26.2344 23.6376 26.0698 24.4272 26.5536C24.7195 26.7317 24.9228 26.6023 25.1294 26.3873C25.3428 26.1672 25.5612 25.969 25.3529 25.6279C24.8674 24.8383 25.037 24.1092 25.5041 23.365C25.7426 22.9853 25.9123 22.5384 26.0131 22.0983C26.1778 21.3708 26.5608 20.8836 27.2798 20.6787C27.6226 20.5812 27.8225 20.4267 27.8275 20.0117C27.8309 19.5867 27.6814 19.3582 27.2866 19.254C26.5558 19.0625 26.1845 18.5686 26.0165 17.8428C25.914 17.4027 25.7477 16.9575 25.5108 16.5761C25.0488 15.8319 24.8657 15.1027 25.3512 14.3131C25.5612 13.9721 25.3512 13.7739 25.1362 13.5521C24.9329 13.3421 24.7397 13.1909 24.444 13.3807C23.6578 13.8831 22.9286 13.7151 22.1861 13.2413C21.8299 13.0145 21.4099 12.8482 20.9966 12.7558C20.2188 12.5811 19.6577 12.2064 19.4628 11.4051C19.3654 11.0069 19.115 10.9347 18.7471 10.9397C18.4128 10.9447 18.181 11.0052 18.0902 11.3681C17.8836 12.1963 17.3158 12.5962 16.4993 12.7642C16.086 12.8499 15.6694 13.0279 15.3132 13.2581C14.5942 13.7201 13.8902 13.873 13.1292 13.3925C12.805 13.1875 12.6017 13.3539 12.3698 13.579C12.133 13.8108 11.9969 14.0225 12.1951 14.34C12.6437 15.0658 12.5496 15.7529 12.0893 16.4501C11.8709 16.7811 11.6962 17.1691 11.6122 17.5555C11.4206 18.4409 11.0208 19.1095 10.0834 19.3279C9.71375 19.4136 9.74735 19.6858 9.74399 19.9563C9.74063 20.2284 9.70703 20.5258 10.0598 20.6031C11.051 20.8181 11.4156 21.5405 11.6357 22.4309C11.7365 22.8408 11.933 23.244 12.1565 23.6052C12.5496 24.2369 12.6185 24.8535 12.2371 25.5019C12.0523 25.8161 12.0607 26.0597 12.348 26.347C12.6521 26.6511 12.9091 26.6763 13.2703 26.4864C13.5257 26.3503 13.823 26.2915 13.991 26.2344L13.9927 26.2361Z" fill="#07074E"/>
<path d="M27.6411 9.87122C27.211 9.87122 26.7792 9.88634 26.3492 9.86786C25.2672 9.8225 24.686 8.88506 25.2303 7.95266C25.4991 7.49066 25.3428 7.39994 24.9749 7.21178C16.5816 2.91434 5.88677 8.60618 4.72085 17.9739C4.32101 21.1843 4.88045 24.1798 6.44621 27.0005C6.94181 27.8943 6.81077 28.6385 6.11525 29.0383C5.41805 29.4399 4.71749 29.1593 4.20341 28.2723C-1.75723 17.9772 4.92917 4.68338 16.7362 3.32762C20.1819 2.93282 23.431 3.5225 26.502 5.1101C26.8834 5.30666 27.0867 5.35706 27.4143 4.94882C28.0728 4.12394 29.2488 4.36418 29.5966 5.3705C29.9124 6.28274 30.1728 7.2185 30.3996 8.1593C30.6063 9.0161 30.0838 9.69986 29.1749 9.78722C28.6676 9.83594 28.1535 9.79562 27.6428 9.79562C27.6428 9.82082 27.6428 9.84602 27.6428 9.87122H27.6411Z" fill="#00AEEF"/>
<path d="M35.5421 19.9545C35.6312 29.391 27.4865 37.1929 18.0735 36.7175C15.5585 36.5898 13.1881 35.9749 10.9688 34.7956C10.6025 34.6007 10.4329 34.5889 10.1439 34.9602C9.48533 35.8069 8.32445 35.6137 7.96325 34.6041C7.62893 33.67 7.36517 32.704 7.14845 31.7363C6.96197 30.9013 7.43405 30.2562 8.25053 30.1856C9.21653 30.1033 10.1876 30.0462 11.1553 30.0546C12.2405 30.063 12.8924 31.0845 12.3128 31.948C11.9062 32.5545 12.3077 32.5965 12.6471 32.7628C17.8114 35.2895 24.2021 34.3151 28.4223 30.357C33.1683 25.9067 34.3141 19.017 31.2649 13.263C31.1893 13.1202 31.1103 12.9791 31.0448 12.8313C30.7222 12.1055 30.9087 11.4251 31.5219 11.0773C32.1603 10.7145 32.9062 10.9245 33.3145 11.6284C34.2956 13.3201 34.939 15.1379 35.2885 17.0615C35.4632 18.0191 35.5001 18.9868 35.5455 19.9561L35.5421 19.9545Z" fill="#00AEEF"/>
<path d="M63.0268 21.7586C62.8487 21.7048 62.6673 21.6695 62.5043 21.5973C61.9482 21.3537 61.6727 20.9034 61.7214 20.3121C61.7702 19.7241 62.091 19.257 62.7026 19.1882C64.0382 19.0353 65.3805 18.9026 66.7228 18.8538C67.4788 18.827 67.9794 19.4771 67.9072 20.2835C67.803 21.436 67.6418 22.5834 67.5141 23.7326C67.4351 24.4365 67.0722 24.9102 66.3683 24.9909C65.6627 25.0732 65.1957 24.7002 64.9756 24.0232C64.9521 23.9526 64.8899 23.8955 64.7841 23.746C64.2414 24.3088 63.7307 24.8531 63.2049 25.384C61.083 27.5294 58.9326 29.6445 56.8494 31.8268C56.1354 32.5744 55.4534 32.7542 54.4806 32.4232C51.4516 31.3934 48.394 30.4475 45.3633 29.4227C44.7484 29.2144 44.3402 29.3152 43.8446 29.7066C40.7819 32.1292 37.6924 34.5165 34.6113 36.9138C34.3778 37.0953 34.151 37.2885 33.904 37.4498C33.2673 37.8698 32.5214 37.7656 32.1014 37.2146C31.6864 36.6686 31.762 35.8874 32.3483 35.4119C33.4773 34.4963 34.6348 33.616 35.7822 32.7222C38.2031 30.8356 40.6425 28.9708 43.0382 27.0522C43.7538 26.4794 44.4174 26.392 45.2709 26.681C48.3016 27.7041 51.3558 28.6583 54.3899 29.6747C54.9292 29.8562 55.2501 29.7554 55.6398 29.3572C57.9347 27.0069 60.2615 24.6851 62.5732 22.3499C62.7362 22.1853 62.9596 22.0626 63.0268 21.7569V21.7586Z" fill="#07074E"/>
<path d="M18.8564 13.8239C22.2601 13.8709 24.9817 16.6631 24.9363 20.0583C24.8927 23.4318 22.0602 26.1836 18.68 26.1383C15.2931 26.0929 12.5749 23.2873 12.6219 19.8819C12.6673 16.4598 15.4292 13.7768 18.8564 13.8239ZM18.7875 16.4043C16.7783 16.3959 15.2041 17.9634 15.2041 19.9727C15.2041 21.9668 16.8068 23.5662 18.7909 23.5544C20.7229 23.5427 22.3323 21.9416 22.3525 20.0079C22.3743 18.0239 20.7817 16.4144 18.7875 16.4043Z" fill="#00AEEF"/>
</svg>
