<svg width="84" height="85" viewBox="0 0 84 85" fill="none" xmlns="http://www.w3.org/2000/svg">
<g clip-path="url(#clip0_118_802)">
<path d="M2.89479 38.0088C2.89479 31.2821 2.89131 24.5555 2.89479 17.8288C2.89828 13.1543 5.89546 10.1659 10.5752 10.1519C11.2464 10.1502 12.0537 10.3611 12.5524 10.063C13.0719 9.7509 12.8749 8.84425 13.0301 8.20611C13.4433 6.50614 14.071 4.91776 15.295 3.62752C17.3332 1.47772 20.0479 1.4969 22.0495 3.69204C23.5472 5.33447 24.1889 7.35874 24.4644 9.50506C24.5341 10.0508 24.7172 10.1641 25.2193 10.1624C31.5955 10.1484 37.97 10.1415 44.3462 10.1711C44.9895 10.1746 45.122 9.91305 45.1831 9.37604C45.3749 7.66909 45.8909 6.06153 46.8464 4.6231C47.7513 3.26138 48.9056 2.22047 50.6299 2.06704C52.2236 1.92581 53.4685 2.62847 54.478 3.78444C55.8711 5.38154 56.5301 7.30992 56.776 9.37255C56.8544 10.0403 57.0846 10.1885 57.6966 10.1659C58.5998 10.131 59.5203 10.1031 60.4113 10.2251C64.2646 10.7587 66.7404 13.6826 66.7474 17.7033C66.7631 25.7167 66.7701 33.7301 66.7317 41.7435C66.7282 42.6065 66.9636 42.8715 67.811 42.9605C76.9873 43.9212 84.8944 51.333 86.4758 60.41C88.5157 72.1197 81.3445 82.8932 69.755 85.526C58.1028 88.1727 46.0287 80.1035 43.9905 68.3118C43.9556 68.1096 43.9155 67.909 43.8806 67.7085C43.6714 66.5032 42.9385 65.9005 41.682 65.9005C31.2712 65.9005 20.8587 65.9057 10.4479 65.897C6.6016 65.8935 3.69683 63.5972 3.00987 60.0212C2.89479 59.4249 2.89654 58.7989 2.89654 58.187C2.88956 51.4603 2.89131 44.7337 2.89131 38.007H2.89654L2.89479 38.0088ZM34.7705 26.6512C25.296 26.6512 15.8198 26.6617 6.3453 26.632C5.55198 26.6303 5.38808 26.8517 5.38983 27.6084C5.41598 37.7856 5.40552 47.9627 5.40726 58.1399C5.40726 61.4927 7.25892 63.3392 10.6205 63.3409C21.2946 63.3409 31.9686 63.3409 42.6427 63.3409C42.7892 63.3409 42.9374 63.327 43.0803 63.3427C43.4779 63.3862 43.6313 63.2398 43.6731 62.8196C43.769 61.8606 43.8859 60.8999 44.0829 59.9584C45.9712 50.9181 53.4824 43.7695 63.3475 42.8593C64.017 42.7983 64.2053 42.6065 64.2001 41.9335C64.1704 37.137 64.1669 32.3404 64.2001 27.5457C64.2053 26.8099 64.0013 26.6338 63.2795 26.6373C53.7753 26.6617 44.2712 26.6547 34.7653 26.6547L34.7705 26.6512ZM84.3225 64.4202C84.3521 53.9937 75.7651 45.3317 65.3508 45.2811C54.7726 45.2306 46.1403 53.8298 46.1316 64.4237C46.1246 74.8188 54.75 83.4424 65.1904 83.4755C75.6622 83.5087 84.2928 74.9129 84.3225 64.4184V64.4202ZM34.7984 24.1108C41.4065 24.1108 48.0163 24.1108 54.6244 24.1108C57.5484 24.1108 60.4723 24.1108 63.398 24.1108C63.806 24.1108 64.207 24.1911 64.1966 23.525C64.1617 21.3316 64.2332 19.1365 64.1565 16.9466C64.0798 14.7671 62.2211 12.8265 60.0382 12.7742C56.0925 12.6801 52.1433 12.7359 48.1959 12.7167C47.767 12.715 47.6171 12.8632 47.692 13.2851C47.9309 14.6189 48.2744 15.9144 49.0834 17.0303C49.5367 17.6562 50.0703 18.1601 50.9019 18.2856C51.8853 18.4356 52.3596 19.0179 52.2253 19.7851C52.0876 20.5714 51.364 20.969 50.3789 20.7929C49.1078 20.5645 48.1192 19.8775 47.3224 18.8924C46.0932 17.3703 45.4463 15.5971 45.2197 13.6809C45.129 12.9085 44.8448 12.701 44.0759 12.7027C36.005 12.7324 27.934 12.7202 19.8631 12.7202C18.5764 12.7202 17.2896 12.7446 16.0029 12.7097C15.4362 12.694 15.2845 12.8928 15.3822 13.4246C15.6158 14.7009 15.9645 15.9301 16.7264 17.0024C17.1937 17.6579 17.7499 18.1723 18.6165 18.2961C19.5406 18.4286 20.0183 19.0249 19.8962 19.7502C19.7672 20.5226 19.0872 20.9498 18.1614 20.812C16.9531 20.6307 15.9732 20.0257 15.1747 19.1208C14.1041 17.909 13.5113 16.4653 13.0876 14.924C12.8889 14.2057 13.126 13.1753 12.5349 12.8231C11.97 12.4865 11.0581 12.715 10.2979 12.7219C7.34087 12.7498 5.43865 14.6608 5.41598 17.6318C5.40203 19.4451 5.46131 21.2601 5.39157 23.0699C5.35844 23.9313 5.62521 24.1318 6.46211 24.1283C15.907 24.0986 25.3536 24.1091 34.7984 24.1091V24.1108ZM18.6409 10.1519C19.5754 10.1519 20.51 10.1449 21.4445 10.1554C21.788 10.1606 21.9868 10.1223 21.924 9.68116C21.7095 8.18519 21.2981 6.76593 20.3321 5.57334C19.2494 4.23603 17.987 4.25869 16.9078 5.62215C15.9942 6.77813 15.5966 8.13985 15.3665 9.56957C15.288 10.0543 15.4763 10.1711 15.9262 10.1589C16.8311 10.1327 17.736 10.1519 18.6426 10.1502L18.6409 10.1519ZM50.9978 10.1519C51.9306 10.1519 52.8634 10.1572 53.7945 10.1484C54.0351 10.1467 54.3594 10.2286 54.2879 9.7788C54.0369 8.2096 53.6498 6.68921 52.5653 5.46C51.5244 4.27962 50.4103 4.2831 49.3763 5.46872C48.3232 6.67875 47.9239 8.16252 47.6764 9.70557C47.6031 10.1641 47.8838 10.1554 48.1977 10.1537C49.1305 10.1484 50.0633 10.1519 50.9943 10.1519H50.9978Z" fill="#07074E"/>
<path d="M26.3658 38.9336C27.0983 38.9336 27.8341 38.8966 28.5633 38.9453C29.121 38.9823 29.3361 38.7639 29.4873 38.2448C29.8972 36.842 30.3625 35.4543 30.8296 34.0683C31.2244 32.894 32.0913 32.2404 33.19 32.2388C34.2988 32.2388 35.1556 32.8805 35.5537 34.0616C36.0225 35.4476 36.4945 36.8319 36.8977 38.2381C37.0624 38.8143 37.3362 38.9638 37.9057 38.947C39.3136 38.905 40.7231 38.9285 42.1309 38.9353C43.4749 38.9403 44.3217 39.4896 44.6946 40.5833C45.0777 41.7072 44.7265 42.6733 43.6043 43.5032C42.4501 44.3583 41.2943 45.21 40.1166 46.0316C39.7134 46.3121 39.5757 46.5541 39.7621 47.0631C40.2359 48.3567 40.6341 49.6772 41.0591 50.9893C41.5245 52.424 41.2691 53.479 40.2981 54.1678C39.2884 54.8835 38.3241 54.7961 37.0439 53.8688C35.9267 53.059 34.7961 52.2661 33.7024 51.4261C33.321 51.1337 33.0673 51.127 32.6826 51.4227C31.5201 52.3131 30.3273 53.1632 29.1378 54.0183C28.0425 54.8045 27.0563 54.8432 26.0937 54.1611C25.1646 53.5025 24.8589 52.4811 25.252 51.2312C25.6989 49.8082 26.1457 48.3853 26.6397 46.9808C26.7925 46.5473 26.7018 46.3222 26.3473 46.0736C25.1495 45.2319 23.9651 44.3684 22.7857 43.5032C21.6601 42.6766 21.3057 41.7123 21.6904 40.585C22.06 39.4981 22.9185 38.9453 24.2557 38.9369C24.9597 38.9336 25.6653 38.9369 26.3692 38.9369L26.3658 38.9336ZM27.5217 52.1837C28.8841 51.1858 30.0417 50.3391 31.1992 49.4924C32.817 48.3097 33.5848 48.313 35.2144 49.5024C36.3585 50.3374 37.5059 51.1657 38.6517 51.9973C38.3056 50.4231 37.8251 48.9615 37.353 47.4965C36.8809 46.0316 37.1581 45.1765 38.3913 44.2659C39.0481 43.7804 39.7134 43.3066 40.372 42.8228C40.9667 42.386 41.5597 41.9458 42.3493 41.3612C40.5383 41.3612 38.9977 41.3696 37.4572 41.3595C35.9065 41.3494 35.1892 40.8269 34.7087 39.3687C34.2954 38.1137 33.904 36.8504 33.4773 35.5988C33.405 35.3888 33.4521 35.0696 33.0841 34.9772C32.6373 36.3733 32.1937 37.7643 31.7452 39.1537C31.1857 40.8841 30.5389 41.3578 28.7313 41.3629C27.2495 41.3662 25.7694 41.3629 24.2877 41.3629C25.4653 42.433 26.7102 43.3251 27.9467 44.2273C29.2201 45.1563 29.5024 46.0198 29.0236 47.5217C28.5565 48.9917 28.0777 50.4567 27.5217 52.1837Z" fill="#00AEEF"/>
<path d="M61.7433 60.57C61.7433 59.0782 61.7333 57.588 61.7467 56.0962C61.7551 55.2293 62.2507 54.6766 62.9681 54.6867C63.6854 54.6967 64.1575 55.2427 64.1609 56.1264C64.1709 58.6313 64.2029 61.1362 64.1424 63.6394C64.1239 64.4055 64.3793 64.812 65.0277 65.143C65.8274 65.5495 66.5885 66.0367 67.3512 66.5139C68.0501 66.9507 68.2567 67.626 67.9157 68.2325C67.5545 68.8759 66.8505 69.0389 66.0929 68.6038C64.8749 67.9032 63.6737 67.1724 62.4624 66.4584C61.9533 66.1577 61.7299 65.7259 61.7349 65.1312C61.7501 63.6125 61.74 62.0921 61.74 60.5734L61.7433 60.57Z" fill="#07074E"/>
<path d="M54.353 52.3114C54.3497 53.0153 53.8222 53.5243 53.1166 53.5058C52.4042 53.4874 51.3458 52.4424 51.324 51.7351C51.3038 51.0833 51.8885 50.4802 52.542 50.4751C53.2829 50.4701 54.3564 51.5587 54.353 52.3114Z" fill="#00AEEF"/>
<path d="M74.5869 51.6813C74.602 52.4205 73.5201 53.5008 72.7641 53.5058C72.0954 53.5092 71.5864 53.027 71.5561 52.3651C71.5242 51.6259 72.5625 50.5087 73.3134 50.4784C73.9669 50.4516 74.5717 51.0245 74.5869 51.683V51.6813Z" fill="#00AEEF"/>
<path d="M54.3531 71.8848C54.3665 72.6307 53.298 73.7328 52.5588 73.7378C51.9104 73.7428 51.314 73.1431 51.3224 72.4929C51.3324 71.789 52.3824 70.734 53.0981 70.7071C53.8037 70.6802 54.3396 71.1825 54.3514 71.8831L54.3531 71.8848Z" fill="#00AEEF"/>
<path d="M73.3235 73.7364C72.5726 73.7112 71.5293 72.599 71.5562 71.8565C71.5814 71.1609 72.1324 70.667 72.838 70.709C73.5671 70.751 74.5953 71.8178 74.5869 72.5218C74.5785 73.1753 73.972 73.7582 73.3219 73.7364H73.3235Z" fill="#00AEEF"/>
<path d="M64.1676 47.7986C64.1692 48.8486 63.8534 49.3492 63.1226 49.4366C62.6371 49.4954 62.1902 49.3593 61.9668 48.9242C61.6039 48.2203 61.6106 47.4592 61.9466 46.7486C62.1566 46.3067 62.5917 46.1522 63.0823 46.1975C63.8299 46.2664 64.1659 46.7637 64.1676 47.8003V47.7986Z" fill="#00AEEF"/>
<path d="M48.6932 60.8926C49.7616 60.896 50.2724 61.2706 50.2942 62.0686C50.316 62.8784 49.7919 63.3084 48.7688 63.3219C47.5911 63.337 47.0384 62.9472 47.04 62.1022C47.0417 61.2807 47.576 60.8892 48.6932 60.8926Z" fill="#00AEEF"/>
<path d="M77.3019 60.9146C78.451 60.9012 79.0978 61.5396 78.8323 62.4367C78.624 63.1406 78.0747 63.3305 77.3909 63.3288C76.6635 63.3288 75.9528 63.3238 75.6622 62.4821C75.4152 61.7647 75.8739 61.0373 76.6299 60.9197C76.8483 60.8861 77.0767 60.9146 77.3002 60.9146H77.3019Z" fill="#00AEEF"/>
<path d="M64.1675 76.3753C64.1692 77.4606 63.8164 77.973 63.0352 78.02C62.1414 78.0738 61.7147 77.4723 61.7433 76.2006C61.7651 75.2228 62.2607 74.6953 63.0839 74.7726C63.8332 74.8431 64.1659 75.3354 64.1675 76.3753Z" fill="#00AEEF"/>
</g>
<defs>
<clipPath id="clip0_118_802">
<rect width="84" height="84" fill="white" transform="translate(0 0.5)"/>
</clipPath>
</defs>
</svg>
