<svg width="84" height="85" viewBox="0 0 84 85" fill="none" xmlns="http://www.w3.org/2000/svg">
<path d="M42.0538 79.5776C29.9393 79.5776 17.8232 79.5776 5.7087 79.5776C5.1627 79.5776 4.62006 79.5742 4.0875 79.418C2.01102 78.8082 0.912301 76.5754 1.78758 74.5947C2.69142 72.5485 3.6591 70.5291 4.63014 68.5148C4.88886 67.9789 4.9947 67.4514 4.9947 66.8634C4.9863 51.745 4.98798 36.625 4.98798 21.5067C4.98798 20.6298 5.00982 19.7562 5.29542 18.9145C6.09846 16.5373 8.19678 15.0706 10.8915 15.0639C16.7043 15.0505 22.5154 15.0589 28.3282 15.0589C30.1292 15.0589 31.9318 15.0202 33.7311 15.0774C34.4921 15.1009 34.7626 14.9396 34.7374 14.1114C34.6719 11.9257 34.7122 9.73832 34.7156 7.55096C34.7173 6.25904 35.0768 5.89616 36.367 5.89448C41.8791 5.89112 47.3912 5.87936 52.9033 5.89784C57.8038 5.91464 61.3016 9.2276 61.6023 14.1517C61.6426 14.8186 61.8778 14.9413 62.4776 14.9379C65.9703 14.9127 69.463 14.9228 72.9557 14.9262C76.8466 14.9295 79.1734 17.2446 79.1751 21.1438C79.1818 36.2907 79.1801 51.4359 79.1684 66.5828C79.1684 67.285 79.2977 67.9167 79.6035 68.5501C80.4989 70.3897 81.3658 72.2444 82.2226 74.1025C83.5229 76.9232 81.8362 79.5742 78.7265 79.5759C66.5029 79.5843 54.2775 79.5793 42.0538 79.5793V79.5776ZM41.9967 60.4928C51.2182 60.4928 60.4397 60.4928 69.6613 60.4962C70.1837 60.4962 70.5685 60.5365 70.5668 59.7586C70.5399 47.8945 70.5449 36.0303 70.5601 24.1678C70.5601 23.5815 70.3769 23.4387 69.8192 23.4438C67.2824 23.4706 64.7439 23.4622 62.2071 23.4505C61.777 23.4488 61.5284 23.4723 61.5032 24.0385C61.4612 24.9961 61.0563 25.3153 60.0802 25.3405C59.4536 25.3573 58.8236 25.3657 58.1986 25.3405C57.74 25.3203 57.5737 25.485 57.5837 25.952C57.6073 27.1818 57.577 28.4115 57.5972 29.6413C57.6089 30.3553 57.4443 30.9399 56.7236 31.239C56.0314 31.5279 55.5879 31.1298 55.1494 30.6896C53.5316 29.0634 51.902 27.4489 50.2976 25.8092C49.9649 25.4682 49.6205 25.3304 49.1468 25.3371C47.2921 25.359 45.4357 25.3321 43.5809 25.3506C41.7783 25.3674 40.1302 24.8785 38.6501 23.8671C38.1932 23.5546 37.7429 23.4488 37.2053 23.4505C29.6201 23.4622 22.0366 23.4723 14.4514 23.4387C13.6383 23.4354 13.477 23.6706 13.4787 24.44C13.5039 36.1126 13.4955 47.7853 13.4955 59.4579C13.4955 60.149 13.8561 60.4945 14.5774 60.4945C23.7166 60.4945 32.8575 60.4945 41.9967 60.4945V60.4928ZM42.0269 66.4585C53.1334 66.4585 64.2399 66.4585 75.3464 66.4585C76.1102 66.4585 76.4921 66.0626 76.4921 65.2707C76.4921 56.6036 76.4921 47.9365 76.4921 39.2677C76.4921 33.0618 76.4989 26.8542 76.4871 20.6482C76.4837 18.7364 75.2909 17.3974 73.4597 17.3722C69.668 17.3202 65.8745 17.3538 62.0811 17.337C61.646 17.3353 61.5116 17.4932 61.525 17.9115C61.5502 18.649 61.5737 19.3916 61.5183 20.1258C61.4713 20.7541 61.6981 20.9036 62.2995 20.8969C65.3017 20.8683 68.3021 20.8801 71.3043 20.8851C72.7121 20.8868 73.0599 21.2295 73.0616 22.6138C73.0633 35.5196 73.0633 48.4254 73.0616 61.3311C73.0616 62.6818 72.7205 63.0195 71.3665 63.0195C51.7995 63.0195 32.2342 63.0195 12.6673 63.0195C11.3165 63.0195 10.9654 62.6701 10.9654 61.3311C10.9654 48.4808 10.9654 35.6288 10.9654 22.7785C10.9654 21.3774 11.3149 21.0229 12.6891 21.0212C15.9903 21.0195 19.2932 21.0212 22.5944 21.0212C26.7692 21.0212 30.944 21.0145 35.1205 21.0296C35.6698 21.0313 35.8664 20.9607 35.5791 20.371C35.2565 19.7091 35.0398 18.9867 34.9726 18.2542C34.9121 17.5906 34.6383 17.4361 33.9932 17.4378C26.3794 17.463 18.7657 17.4512 11.1519 17.4562C8.75118 17.4562 7.5315 18.6927 7.5315 21.0968C7.5315 35.9161 7.53822 50.7354 7.51134 65.5546C7.51134 66.3325 7.74318 66.4753 8.46054 66.4736C19.6493 66.4518 30.8381 66.4585 42.0253 66.4585H42.0269ZM42.0001 77.024C46.3933 77.024 50.7865 77.024 55.1813 77.024C62.9866 77.024 70.7902 77.0274 78.5955 77.0206C80.0857 77.0206 80.5107 76.3335 79.8807 74.9794C79.1213 73.3465 78.3149 71.7337 77.6077 70.0789C77.2969 69.3498 76.9138 69.0961 76.0973 69.0978C53.4207 69.1246 30.7441 69.1196 8.06574 69.1196C7.84734 69.1196 7.62894 69.128 7.41054 69.1196C7.16694 69.1095 6.99558 69.1918 6.88806 69.422C5.94894 71.4531 4.97958 73.4708 4.07742 75.517C3.75822 76.2394 4.20678 76.8829 4.99806 76.9904C5.32062 77.0341 5.65158 77.024 5.9775 77.024C17.9845 77.024 29.9914 77.024 41.9984 77.024H42.0001ZM54.8302 26.8558C54.8974 26.8256 54.9629 26.7937 55.0301 26.7634C55.0301 26.0058 55.0268 25.2481 55.0301 24.4904C55.0369 23.1985 55.4081 22.8188 56.6698 22.8121C57.2158 22.8087 57.7635 22.7751 58.3045 22.8222C58.8639 22.8709 58.9798 22.6424 58.9748 22.1266C58.9513 19.6134 58.9714 17.1018 58.963 14.5885C58.9496 10.8236 56.4934 8.33216 52.7151 8.31032C47.8633 8.28344 43.0097 8.31032 38.1579 8.29184C37.5766 8.29016 37.3448 8.41616 37.3532 9.05792C37.3885 11.5981 37.3431 14.1382 37.375 16.6784C37.4187 20.2635 39.9723 22.7852 43.5541 22.8087C45.6809 22.8222 47.8061 22.8306 49.933 22.8003C50.5882 22.7902 51.0721 23.0002 51.5173 23.469C52.6042 24.6147 53.7248 25.7286 54.8319 26.8558H54.8302Z" fill="#07074E"/>
<path d="M40.0361 57.798C36.6526 57.798 33.2708 57.8031 29.8872 57.7913C29.4488 57.7913 29.1312 57.8148 28.97 58.3407C28.812 58.8547 28.3416 59.0715 27.804 59.0715C25.8132 59.0748 23.8208 59.0866 21.83 59.0664C20.958 59.058 20.496 58.5339 20.486 57.5561C20.4658 55.8072 20.4792 54.0567 20.4792 52.3078C20.4792 48.8083 20.4792 45.3106 20.4792 41.8111C20.4792 40.3143 20.7934 40.0085 22.3121 40.0068C24.0845 40.0068 25.8586 40.0068 27.631 40.0068C28.1552 40.0068 28.681 39.9934 29.0153 40.5142C29.1749 40.7628 29.3765 40.6704 29.5916 40.5982C31.4144 39.9934 33.1498 39.2189 34.6517 37.9908C36.8122 36.2251 37.8857 33.9219 37.9916 31.1515C38.0168 30.4963 38.0134 29.8395 38.1562 29.1943C38.4519 27.8604 39.1659 26.8827 40.5603 26.6004C42.0084 26.3081 43.2752 26.6441 44.1723 27.9125C44.9182 28.9692 45.1904 30.1906 45.3584 31.4455C45.6003 33.2482 45.5129 35.0475 45.224 36.835C45.1349 37.3877 45.2172 37.6027 45.8472 37.591C47.9741 37.5523 50.1027 37.5792 52.2312 37.5759C53.708 37.5725 54.8302 38.2059 55.4602 39.5398C56.0902 40.872 55.8886 42.1539 54.9293 43.2811C54.6975 43.5533 54.5967 43.7314 54.7563 44.1195C55.2872 45.4131 55.1007 46.6378 54.1817 47.7113C53.9532 47.9784 53.8373 48.1615 53.9919 48.558C54.5076 49.8802 54.348 51.1452 53.372 52.2187C53.1015 52.5178 53.1183 52.7211 53.251 53.0671C54.1498 55.3956 52.6059 57.7443 50.1027 57.7795C46.7477 57.8266 43.3928 57.7913 40.0361 57.7913V57.798ZM39.8328 54.8731C43.1878 54.8731 46.5428 54.8731 49.896 54.8731C50.479 54.8731 50.9343 54.6816 50.941 54.0012C50.9477 53.3259 50.5126 53.1142 49.9179 53.1125C49.2089 53.1091 48.4983 53.1293 47.791 53.1024C46.8956 53.0688 46.4016 52.5984 46.4016 51.8273C46.4016 51.0495 46.8989 50.574 47.7876 50.5522C48.715 50.5303 49.6424 50.532 50.5697 50.5522C51.1947 50.5639 51.6987 50.3825 51.7121 49.6887C51.7256 48.9394 51.1846 48.7579 50.5378 48.7647C49.7465 48.7714 48.9552 48.7781 48.1656 48.7596C47.2416 48.7378 46.7981 48.3111 46.8015 47.4946C46.8048 46.6781 47.25 46.2631 48.1824 46.2514C49.2996 46.2363 50.4185 46.2514 51.5374 46.243C52.1204 46.2379 52.5807 46.0263 52.5891 45.3627C52.5992 44.647 52.1321 44.4504 51.5004 44.4571C50.4908 44.4672 49.4828 44.4689 48.4731 44.4521C47.9523 44.4437 47.5172 44.2555 47.287 43.7364C47.082 43.2727 47.1207 42.8242 47.3979 42.4126C47.7087 41.9506 48.2026 41.8918 48.7066 41.8901C49.9616 41.8851 51.2165 41.8901 52.4698 41.88C53.0158 41.875 53.3535 41.586 53.3686 41.0316C53.3837 40.4705 53.041 40.1899 52.5084 40.1328C52.2648 40.1076 52.0179 40.116 51.7726 40.116C49.182 40.116 46.5898 40.1261 43.9992 40.1093C42.7107 40.1009 42.3008 39.5566 42.5208 38.3033C42.914 36.0655 43.1693 33.816 42.9022 31.5396C42.8199 30.8307 42.6855 30.1318 42.2756 29.5287C42.0252 29.1607 41.6624 28.9692 41.2155 29.0851C40.7854 29.196 40.6359 29.5505 40.6023 29.9571C40.5737 30.3115 40.5603 30.666 40.5452 31.0205C40.3856 34.5586 39.0399 37.5271 36.3166 39.8237C34.4098 41.4315 32.204 42.4798 29.8318 43.1871C29.3043 43.345 29.1128 43.5735 29.1195 44.1514C29.1514 47.4576 29.1514 50.7639 29.1195 54.0701C29.1128 54.7102 29.2858 54.9 29.9326 54.8933C33.2321 54.8614 36.5333 54.8782 39.8328 54.8765V54.8731ZM26.5726 49.5089C26.5726 47.4055 26.5558 45.3039 26.5844 43.2005C26.5911 42.6545 26.4164 42.4831 25.8855 42.51C25.1244 42.5487 24.3584 42.5403 23.5973 42.5134C23.1605 42.4983 23.0362 42.6747 23.0379 43.0879C23.048 47.3484 23.048 51.6072 23.0379 55.8677C23.0379 56.2927 23.184 56.4456 23.6074 56.4322C24.3701 56.407 25.1345 56.3935 25.8956 56.4355C26.4432 56.4658 26.5894 56.2642 26.5844 55.735C26.5592 53.6602 26.5743 51.5837 26.5743 49.5089H26.5726Z" fill="#00AEEF"/>
<path d="M42.1696 74.341C36.0074 74.341 29.8451 74.341 23.6829 74.341C22.6026 74.341 22.0146 73.7933 22.1507 72.913C22.2431 72.3149 22.569 71.9083 23.2108 71.8495C23.4544 71.826 23.7014 71.8294 23.9466 71.8294C36.0258 71.8294 48.105 71.8294 60.1826 71.8294C60.695 71.8294 61.2258 71.7605 61.6442 72.1822C62.0406 72.5803 62.2506 73.0323 62.049 73.5867C61.8575 74.1075 61.4442 74.3359 60.9016 74.3393C60.1926 74.3427 59.4837 74.3427 58.7747 74.3427C53.2391 74.3427 47.7052 74.3427 42.1696 74.3427V74.341Z" fill="#00AEEF"/>
<path d="M48.1605 14.2811C46.3091 14.2811 44.4561 14.2862 42.6047 14.2795C41.6152 14.2744 41.0776 13.8023 41.0843 12.9724C41.091 12.1643 41.558 11.741 42.5711 11.7359C46.3024 11.7208 50.032 11.7208 53.7633 11.7359C54.7796 11.7393 55.3089 12.2231 55.2921 13.0379C55.2736 13.8578 54.7494 14.2795 53.7145 14.2811C51.8632 14.2862 50.0101 14.2811 48.1588 14.2811H48.1605Z" fill="#00AEEF"/>
<path d="M48.2009 19.2321C46.3479 19.2321 44.4948 19.2372 42.6418 19.2304C41.5683 19.2271 41.0945 18.8424 41.0844 17.994C41.0727 17.1355 41.5515 16.7172 42.5981 16.7155C46.3311 16.7088 50.064 16.7088 53.797 16.7155C54.7714 16.7172 55.2788 17.154 55.2922 17.9503C55.3056 18.7735 54.7798 19.2254 53.7584 19.2304C51.9053 19.2388 50.0523 19.2321 48.1992 19.2321H48.2009Z" fill="#00AEEF"/>
</svg>
