<svg width="84" height="85" viewBox="0 0 84 85" fill="none" xmlns="http://www.w3.org/2000/svg">
<g clip-path="url(#clip0_118_706)">
<path d="M15.4763 84.327C15.3872 84.2732 15.3032 84.2043 15.2075 84.1707C13.2654 83.487 12.2591 82.1077 12.2456 80.0379C12.2305 77.3919 12.2406 74.7459 12.2406 72.0999C12.2406 49.7576 12.2406 27.4136 12.2406 5.07128C12.2406 2.642 13.4586 0.9956 15.5687 0.57728C15.9131 0.5084 16.2726 0.50504 16.6271 0.50504C33.543 0.5 50.4556 0.5 67.3698 0.5C70.0645 0.5 71.7529 2.18672 71.7529 4.90496C71.758 29.895 71.7529 54.8833 71.7613 79.8733C71.7613 82.1766 70.6072 83.5743 68.5206 84.3253H15.4763V84.327ZM14.9689 42.4126C14.9689 54.8278 14.9689 67.243 14.9689 79.6582C14.9689 81.266 15.3217 81.6154 16.9496 81.6154C33.6488 81.6154 50.348 81.6154 67.0472 81.6154C68.6752 81.6154 69.0296 81.2643 69.0296 79.6599C69.0296 54.8295 69.0296 29.9991 69.0296 5.16872C69.0296 3.56096 68.6785 3.2132 67.0489 3.2132C50.3497 3.2132 33.6505 3.2132 16.9513 3.2132C15.3184 3.2132 14.9706 3.5576 14.9706 5.16704C14.9706 17.5822 14.9706 29.9974 14.9706 42.4126H14.9689Z" fill="#07074E"/>
<path d="M66.3482 32.9121C66.3482 41.586 66.3382 50.2598 66.365 58.9353C66.3667 59.7148 66.239 59.9988 65.3604 59.9971C49.7851 59.9652 34.2098 59.9685 18.6346 59.992C17.8618 59.992 17.6299 59.8224 17.6316 59.0143C17.6568 41.6112 17.6534 24.208 17.6366 6.80492C17.6366 6.11948 17.7559 5.88428 18.517 5.88428C34.1746 5.91116 49.8305 5.91116 65.4881 5.88428C66.2575 5.88428 66.365 6.13292 66.3634 6.80828C66.3432 15.509 66.3499 24.2114 66.3499 32.9121H66.3482ZM35.5925 45.3727C31.2598 43.0593 28.8288 39.6506 28.5163 34.8492C28.4861 34.3788 28.2677 34.288 27.8561 34.236C23.8006 33.7152 21.7694 29.3152 24.0173 25.9015C24.281 25.5 24.2878 25.2295 24.0828 24.8095C21.5258 19.5511 24.1366 13.4443 29.6906 11.6484C29.9225 11.5728 30.2131 11.5627 30.3307 11.3292C30.8028 10.385 31.4278 9.545 32.1552 8.71508C31.9704 8.66468 31.8931 8.62604 31.8175 8.62436C28.1887 8.61932 24.5599 8.6294 20.9328 8.60588C20.3314 8.60252 20.375 8.9402 20.375 9.33836C20.3784 25.08 20.3818 40.8216 20.3616 56.5632C20.3616 57.21 20.5766 57.3208 21.1562 57.3108C23.3117 57.2788 25.4671 57.2721 27.6209 57.3141C28.2811 57.3276 28.5046 57.1596 28.5348 56.4758C28.6541 53.6971 29.6285 51.2191 31.3219 49.0183C32.4626 47.5348 33.8789 46.3656 35.5925 45.371V45.3727ZM55.6601 8.61428C55.9608 8.88644 56.0582 8.97548 56.1574 9.06284C60.811 13.1469 62.1583 19.0236 59.7055 24.7137C59.4922 25.2093 59.6921 25.4529 59.9273 25.7906C62.2238 29.08 60.27 33.7051 56.3472 34.2057C55.697 34.288 55.5072 34.4896 55.4551 35.1331C55.0939 39.5481 52.8982 42.8006 49.0846 44.9997C48.8914 45.1123 48.5957 45.1156 48.552 45.4281C52.8024 48.0372 55.23 51.7567 55.4921 56.7883C55.5206 57.3242 55.8247 57.3024 56.1994 57.3007C58.3548 57.294 60.5119 57.257 62.664 57.3192C63.4654 57.3427 63.6418 57.1125 63.6418 56.3313C63.6166 41.0534 63.6233 25.7738 63.6233 10.4959C63.6233 9.24036 63.0062 8.6126 61.7719 8.6126C59.8147 8.6126 57.8592 8.6126 55.6601 8.6126V8.61428ZM52.8108 29.9536C52.8108 27.8032 52.7839 26.0308 52.8259 24.2584C52.841 23.6251 52.6764 23.4268 52.0178 23.4352C49.1014 23.4722 46.1832 23.4218 43.2667 23.4588C39.937 23.4991 37.1414 22.3483 34.9306 19.8484C34.6164 19.4923 34.3459 19.4788 33.9377 19.6216C32.3182 20.1861 31.2043 21.6595 31.1976 23.4067C31.1808 27.1413 31.1573 30.8776 31.2094 34.6123C31.2614 38.3419 33.7613 41.7422 37.2406 43.1013C39.3506 43.9245 41.533 43.7532 43.7018 43.7179C48.1068 43.6456 51.9725 40.2285 52.663 35.8639C52.9939 33.7756 52.71 31.6723 52.8125 29.9553L52.8108 29.9536ZM43.517 8.64788C41.8001 8.64788 40.0798 8.58572 38.3662 8.663C36.3098 8.7554 34.6987 9.7466 33.4555 11.3745C33.1229 11.8096 33.0305 12.0667 33.5832 12.4548C35.1876 13.582 36.2124 15.1159 36.4678 17.1016C36.5165 17.4746 36.6929 17.7636 36.9314 18.034C38.5358 19.8669 40.572 20.7573 42.9895 20.7674C46.5326 20.7825 50.0758 20.7708 53.6206 20.7708C55.5055 20.7708 55.566 20.7724 55.5038 22.6843C55.4686 23.7561 56.2598 23.41 56.7504 23.6251C57.3502 23.8872 57.377 23.3882 57.5014 23.074C59.8886 17.016 56.1002 10.0927 49.7162 8.83604C47.6616 8.43116 45.5834 8.69996 43.517 8.6462V8.64788ZM48.3706 48.5798C47.838 51.214 47.329 53.7324 46.7947 56.3767C46.5797 56.1331 46.4503 56.0054 46.3411 55.8626C45.0307 54.1204 43.7119 52.385 42.4267 50.6244C42.0857 50.1556 41.8891 50.1523 41.5682 50.6277C41.1264 51.2812 40.6308 51.8995 40.1554 52.5312C39.2146 53.7861 38.2721 55.0394 37.2154 56.4456C36.6643 53.734 36.1519 51.2073 35.6143 48.5596C32.9263 50.6899 31.495 53.2956 31.1909 56.5363C31.1338 57.1528 31.3102 57.3192 31.9334 57.3141C35.7218 57.2839 39.5119 57.299 43.3003 57.299C46.2437 57.299 49.1887 57.2872 52.1321 57.3108C52.6663 57.3141 52.8898 57.1696 52.7957 56.6253C52.6747 55.9281 52.6294 55.2141 52.4446 54.5337C51.7927 52.1229 50.4722 50.1573 48.3672 48.5781L48.3706 48.5798ZM25.783 20.7422C25.7376 21.2143 25.8552 21.804 26.0047 22.3852C26.3642 23.778 26.371 23.7729 27.7771 23.5293C28.1518 23.4638 28.4726 23.4621 28.5298 22.9077C28.8372 19.9543 30.4517 18.0055 33.2405 17.0412C33.7226 16.8748 33.6605 16.6632 33.4874 16.3238C33.1061 15.5779 32.545 15.0067 31.8713 14.5144C31.3286 14.118 30.823 14.0944 30.203 14.3263C27.5688 15.3175 25.7947 17.8089 25.7813 20.7422H25.783ZM28.4676 28.9104C28.4676 28.2031 28.4407 27.4941 28.476 26.7885C28.5029 26.2476 28.2979 26.1199 27.8023 26.2459C26.6078 26.5466 25.746 27.7008 25.7846 28.9843C25.8216 30.2124 26.7473 31.2976 27.925 31.5396C28.3231 31.6219 28.4777 31.5244 28.4693 31.1145C28.4542 30.3804 28.4659 29.6462 28.4659 28.9104H28.4676ZM55.5307 28.8465C55.5307 29.6076 55.5358 30.3703 55.529 31.1313C55.5257 31.4724 55.6231 31.6152 56.0095 31.5547C57.1906 31.3699 58.1801 30.2275 58.2137 28.9658C58.2473 27.6588 57.2981 26.4441 56.0986 26.224C55.6584 26.1434 55.5122 26.2912 55.5257 26.7264C55.5475 27.4336 55.5324 28.1409 55.5324 28.8482L55.5307 28.8465ZM45.2626 49.912C46.0018 46.7016 46.4302 47.224 43.4347 46.5806C43.2566 46.542 43.0668 46.5537 42.7258 46.5302C43.5943 47.6877 44.3856 48.7411 45.2626 49.9104V49.912ZM41.2793 46.5235C40.2192 46.584 39.3758 46.7788 38.5476 47.051C38.3023 47.1316 38.1142 47.2291 38.1931 47.5684C38.3628 48.2976 38.4922 49.0351 38.6803 49.986C39.5959 48.7646 40.3838 47.7146 41.2776 46.5218L41.2793 46.5235Z" fill="#00AEEF"/>
<path d="M27.0851 78.9226C24.1955 78.9226 21.3059 78.9058 18.4179 78.9361C17.8131 78.9428 17.6317 78.7916 17.6351 78.17C17.6603 73.2644 17.6619 68.3588 17.6351 63.4515C17.6317 62.8182 17.8316 62.6888 18.4263 62.6905C24.2324 62.7123 30.0368 62.7123 35.8429 62.6905C36.4544 62.6871 36.614 62.8467 36.6107 63.4582C36.5855 68.3638 36.5838 73.2694 36.6107 78.1767C36.614 78.8 36.4376 78.9445 35.8362 78.9378C32.9197 78.9058 30.0032 78.9243 27.0867 78.9243L27.0851 78.9226ZM33.879 73.55C33.879 72.841 33.8622 72.1304 33.8857 71.4231C33.9008 70.9813 33.7647 70.783 33.2859 70.7898C31.868 70.8116 30.4484 70.8082 29.0305 70.7898C28.6004 70.7847 28.4593 70.9544 28.4627 71.3694C28.4778 72.7873 28.4778 74.2069 28.4627 75.6248C28.4576 76.0347 28.5903 76.2162 29.0238 76.2111C30.4686 76.1943 31.9151 76.196 33.3599 76.2094C33.7496 76.2128 33.8891 76.0549 33.879 75.6769C33.8622 74.9679 33.8739 74.259 33.8756 73.55H33.879ZM20.3768 68.0749C20.3768 68.8107 20.3936 69.5466 20.3701 70.2824C20.3583 70.6755 20.5062 70.8049 20.8909 70.8015C22.3626 70.7864 23.8343 70.7898 25.3059 70.7982C25.6487 70.7998 25.7898 70.6755 25.7864 70.321C25.7747 68.8494 25.7713 67.3777 25.7881 65.906C25.7931 65.5112 25.6436 65.3818 25.2639 65.3852C23.8191 65.397 22.3743 65.402 20.9312 65.3818C20.5045 65.3768 20.355 65.5263 20.3701 65.9497C20.3953 66.657 20.3768 67.3659 20.3768 68.0749ZM31.149 68.1102C31.3943 68.1102 31.6395 68.1102 31.8848 68.1102C33.9579 68.1102 33.9344 68.1102 33.8958 66.0488C33.8857 65.4709 33.6539 65.3684 33.1616 65.3818C32.2645 65.407 31.3657 65.3886 30.4669 65.3886C28.3383 65.3886 28.3501 65.3886 28.4627 67.5507C28.4845 67.9623 28.592 68.1354 29.0271 68.1186C29.7344 68.09 30.4434 68.1102 31.1507 68.1118L31.149 68.1102ZM23.0732 73.5164C22.8279 73.5164 22.5827 73.5164 22.3374 73.5164C20.3365 73.5164 20.3617 73.5164 20.36 75.5106C20.36 76.1137 20.5784 76.2397 21.1177 76.2178C21.9879 76.1809 22.8599 76.2078 23.7318 76.2078C25.8553 76.2078 25.8419 76.2078 25.7915 74.1145C25.7814 73.6626 25.6705 73.4845 25.1967 73.508C24.4895 73.5433 23.7805 73.5164 23.0732 73.5164Z" fill="#00AEEF"/>
<path d="M52.8898 68.1097C57.1183 68.1097 61.3469 68.1215 65.5738 68.0963C66.1702 68.0929 66.3718 68.2256 66.3651 68.859C66.3466 70.7977 66.3751 70.7977 64.4532 70.7977C56.3791 70.7977 48.3034 70.7876 40.2293 70.8145C39.4817 70.8162 39.2515 70.6247 39.2734 69.8653C39.3221 68.1114 39.2834 68.1097 41.0222 68.1097C44.977 68.1097 48.9334 68.1097 52.8881 68.1097H52.8898Z" fill="#00AEEF"/>
<path d="M58.2037 65.3864C55.7509 65.3864 53.2998 65.3713 50.847 65.3982C50.2808 65.4049 50.1044 65.2419 50.1028 64.6657C50.096 62.7034 50.0742 62.7034 52.0465 62.7034C56.5422 62.7034 61.0379 62.7152 65.5336 62.69C66.1568 62.6866 66.3769 62.8278 66.3668 63.493C66.3383 65.3864 66.3685 65.3864 64.4987 65.3864C62.4004 65.3864 60.302 65.3864 58.2054 65.3864H58.2037Z" fill="#07074E"/>
<path d="M60.9033 76.2093C59.351 76.2093 57.7987 76.1858 56.248 76.2211C55.6651 76.2345 55.5172 76.0363 55.5172 75.4752C55.5122 73.5163 55.492 73.5163 57.456 73.5163C60.1792 73.5163 62.9025 73.5314 65.6241 73.5045C66.1886 73.4995 66.3633 73.654 66.3633 74.2303C66.3633 76.2093 66.3852 76.2093 64.4162 76.2093C63.2452 76.2093 62.0743 76.2093 60.9033 76.2093Z" fill="#07074E"/>
<path d="M43.391 65.3867C42.2201 65.3867 41.0491 65.3766 39.8798 65.3918C39.48 65.3968 39.3103 65.2876 39.2818 64.8474C39.1423 62.7021 39.1289 62.7038 41.2843 62.7038C43.0802 62.7038 44.8778 62.7239 46.6738 62.692C47.2181 62.6819 47.423 62.7962 47.4214 63.3959C47.4113 65.3884 47.4365 65.3884 45.4339 65.3884C44.7535 65.3884 44.0731 65.3884 43.3927 65.3884L43.391 65.3867Z" fill="#07074E"/>
<path d="M43.3895 73.5162C44.5335 73.5162 45.6776 73.538 46.8217 73.5061C47.2938 73.4927 47.4047 73.6573 47.4148 74.1092C47.4618 76.2092 47.4769 76.2092 45.3685 76.2092C43.5709 76.2092 41.7716 76.1908 39.9757 76.2193C39.4331 76.2277 39.2869 76.0396 39.2802 75.5137C39.2499 73.5145 39.2315 73.5145 41.1836 73.5145C41.9195 73.5145 42.6553 73.5145 43.3895 73.5145V73.5162Z" fill="#07074E"/>
<path d="M51.5322 73.5146C52.3845 73.5146 52.8107 73.9408 52.8107 74.7931C52.8107 75.7373 52.3442 76.2094 51.4112 76.2094C51.2483 76.2094 51.0836 76.1892 50.924 76.2127C50.2823 76.3068 50.0202 76.0447 50.1143 75.403C50.1378 75.2434 50.1177 75.0787 50.1177 74.9158C50.1177 73.9828 50.5897 73.5163 51.5339 73.5163L51.5322 73.5146Z" fill="#00AEEF"/>
<path d="M42.0285 32.9242C44.0445 32.9242 46.0605 32.9225 48.0749 32.9258C48.3806 32.9258 48.6981 32.8234 48.7553 33.3576C49.1249 36.7697 46.9946 39.9331 43.7018 40.8C39.522 41.9004 35.4161 38.8462 35.2615 34.5252C35.2234 33.4567 35.7353 32.9225 36.797 32.9225C38.5409 32.9225 40.283 32.9225 42.0269 32.9225L42.0285 32.9242ZM38.1763 35.6323C38.9424 37.3258 40.1016 38.2078 41.7681 38.3086C43.4465 38.4094 44.7048 37.6433 45.5515 36.2069C45.6893 35.9734 45.9345 35.6323 45.3381 35.6323C42.9979 35.634 40.6577 35.6323 38.1763 35.6323Z" fill="#07074E"/>
<path d="M34.1174 30.2257C32.3602 30.2257 32.2392 30.0376 32.8793 28.5911C33.6202 26.9161 35.359 25.9619 37.212 26.2139C38.8987 26.4424 40.283 27.8351 40.5854 29.547C40.6745 30.0476 40.5871 30.2744 40.0445 30.2308C39.7202 30.2056 39.391 30.2257 39.0634 30.2274C38.4804 30.2274 37.9781 30.3164 37.6706 29.51C37.3414 28.6432 35.9016 28.6112 35.5387 29.4596C35.1691 30.3198 34.5962 30.2526 34.1174 30.2274V30.2257Z" fill="#07074E"/>
<path d="M44.9248 30.226C43.1793 30.226 43.0566 30.0345 43.6967 28.588C44.4393 26.9114 46.1747 25.9605 48.0311 26.2125C49.7128 26.441 51.0887 27.827 51.4045 29.5473C51.4969 30.053 51.3995 30.2697 50.8619 30.2294C50.5377 30.2042 50.2084 30.2244 49.8808 30.226C49.2945 30.2294 48.7955 30.305 48.4864 29.507C48.1487 28.6384 46.7224 28.6082 46.3545 29.4583C45.9849 30.3117 45.417 30.258 44.9248 30.2244V30.226Z" fill="#07074E"/>
<path d="M24.4171 68.1C24.4171 68.8324 23.8089 69.4355 23.0697 69.4372C22.3305 69.4372 21.719 68.8358 21.719 68.105C21.719 67.3658 22.3137 66.7778 23.0664 66.7744C23.8156 66.7711 24.4171 67.3624 24.4171 68.1Z" fill="#07074E"/>
</g>
<defs>
<clipPath id="clip0_118_706">
<rect width="84" height="84" fill="white" transform="translate(0 0.5)"/>
</clipPath>
</defs>
</svg>
