<svg width="84" height="84" viewBox="0 0 84 84" fill="none" xmlns="http://www.w3.org/2000/svg">
<path d="M62.3413 30.7475C62.894 29.7966 63.3477 28.9885 63.8298 28.1989C65.0881 26.1308 67.6518 26.1241 68.895 28.1939C69.6947 29.5278 70.4658 30.8785 71.2235 32.2359C71.4369 32.619 71.6502 32.7366 72.1156 32.6912C73.9367 32.5148 75.4016 33.2053 76.3273 34.7946C77.2698 36.4124 77.1354 38.0437 76.0384 39.5574C75.7847 39.9068 75.7813 40.142 75.9913 40.4915C76.6936 41.6607 77.3471 42.8603 78.051 44.0279C78.6928 45.0913 78.8708 46.1715 78.2123 47.2753C77.5336 48.4143 76.4567 48.7369 75.1917 48.668C74.0476 48.6059 72.8985 48.5756 71.7527 48.5739C70.4053 48.5739 70.6036 48.5269 70.9127 49.6391C71.5813 52.0448 72.0383 54.4875 71.8905 56.9907C71.6469 61.1235 69.1638 64.1845 65.1671 65.2849C60.4093 66.5953 55.6381 67.8553 50.8703 69.1321C41.758 71.5731 32.6456 74.0192 23.5283 76.4451C19.1569 77.6077 15.2442 75.9395 13.0031 72.0335C10.7956 68.1829 9.69181 63.9863 9.05173 59.6367C8.30245 54.5598 8.07061 49.4207 7.24573 44.3521C6.38221 39.0467 4.78117 34.0151 1.80757 29.4791C0.964206 28.1939 1.27501 27.416 2.75173 27.0095C4.09237 26.6399 5.43133 26.2585 6.78373 25.9393C7.32973 25.8099 7.48093 25.5697 7.40701 25.0388C7.31629 24.392 7.28437 23.7351 7.25581 23.0799C7.22389 22.3273 7.57837 21.8351 8.31757 21.6368C9.18613 21.405 10.053 21.1631 10.9249 20.943C11.3012 20.8489 11.5146 20.7145 11.5364 20.2508C11.6053 18.8027 11.7952 18.6229 13.1963 18.2483C25.1276 15.0596 37.059 11.8659 48.9904 8.67226C50.7292 8.2069 52.4613 7.71634 54.2034 7.26946C55.3677 6.97042 56.1505 7.49458 56.0884 8.60674C55.7591 14.4918 57.4072 19.9383 59.7105 25.2438C60.5001 27.0615 61.3451 28.8541 62.3397 30.7441L62.3413 30.7475ZM28.874 72.2787C29.2201 72.2048 29.4335 72.1679 29.6401 72.1124C35.804 70.4627 41.9663 68.8112 48.1302 67.1581C53.5297 65.7099 58.9292 64.2635 64.3271 62.8103C67.4183 61.9787 69.2361 59.7342 69.2949 56.6043C69.3419 54.0961 68.8261 51.6702 68.0819 49.2863C67.971 48.9318 67.8064 48.8075 67.4351 48.8545C66.5665 48.9637 65.7181 49.1603 64.8613 49.3215C64.2397 49.4375 64.1742 49.6256 64.4917 50.1565C65.6224 52.0566 66.7177 53.9751 67.8165 55.8937C68.2768 56.6984 68.2331 57.3536 67.6401 57.8089C64.8781 59.9307 62.128 58.8975 60.9469 56.7774C60.2565 55.5375 59.5156 54.3263 58.8318 53.0831C58.5849 52.6345 58.4101 52.4514 57.8574 52.7471C56.5924 53.4207 55.2114 53.6341 53.8069 53.2863C53.1349 53.1183 52.5318 53.1956 51.8884 53.3687C45.9647 54.968 40.0376 56.5539 34.1106 58.1382C33.1127 58.4053 32.3819 58.0794 32.1836 57.3083C31.9753 56.5052 32.4289 55.8719 33.4117 55.6098C37.6 54.4909 41.7916 53.3787 45.9781 52.2582C47.3288 51.897 48.6762 51.5156 50.0941 51.1242C49.2037 49.9347 48.6762 48.7151 48.6661 47.3341C48.6628 46.6923 48.4477 46.6386 47.8967 46.7898C44.6106 47.6919 41.3161 48.5689 38.0233 49.4509C36.0208 49.9868 34.0199 50.5278 32.0156 51.0486C31.1504 51.2737 30.4784 50.9159 30.2634 50.1649C30.0584 49.4459 30.4902 48.7957 31.352 48.5303C31.4562 48.4983 31.5587 48.4597 31.6645 48.4328C36.4861 47.1476 41.3094 45.8691 46.131 44.5789C47.9471 44.0934 49.7598 43.7355 51.087 42.0925C51.9035 41.0811 53.2895 40.599 54.4789 40.0009C56.2916 39.0903 57.6625 37.7262 58.8469 36.1335C59.3677 35.433 59.8364 34.6921 60.364 33.9983C60.6664 33.6001 60.6764 33.2775 60.4412 32.8239C59.272 30.5727 58.1581 28.293 57.1636 25.9578C55.0989 21.1076 53.5012 16.1399 53.4592 10.7975C53.4524 9.9037 52.9081 10.3489 52.5856 10.4363C40.0461 13.7828 27.5116 17.1512 14.967 20.486C14.2748 20.6708 14.1035 20.9631 14.1102 21.6385C14.1539 25.8771 15.1972 29.8974 16.6924 33.8235C18.621 38.8837 21.2384 43.6146 23.6879 48.4261C25.7308 52.4379 27.7921 56.4515 28.9564 60.8279C29.9576 64.5927 30.7724 68.3996 28.874 72.2771V72.2787ZM20.5446 65.2748C20.5429 63.489 20.2976 61.9551 19.9465 60.4381C18.8764 55.8147 16.9343 51.5106 15.0426 47.1913C12.4084 41.1769 9.52213 35.2583 8.03029 28.8071C7.93957 28.4123 7.75477 28.3585 7.38685 28.4744C6.71149 28.6895 6.02773 28.8877 5.33389 29.0238C4.74589 29.138 4.80637 29.3564 5.05501 29.7815C7.85221 34.5695 9.26341 39.8077 10.0412 45.2509C10.7132 49.9532 10.9636 54.7026 11.6708 59.3999C12.2017 62.9211 13.0484 66.35 14.6411 69.5639C14.8612 70.0074 15.1434 70.2023 15.6272 70.2627C17.356 70.4811 19.1099 69.6109 19.9667 68.067C20.4908 67.1245 20.5984 66.1047 20.5429 65.2748H20.5446ZM17.0872 72.9087C19.0981 74.3351 21.1427 74.5535 23.2645 73.7655C25.4485 72.9541 26.8177 71.3514 27.236 69.0447C27.604 67.0187 27.2528 65.0144 26.8127 63.0387C25.8601 58.7665 23.9819 54.8555 22.0348 50.9747C19.5282 45.9783 16.7797 41.0963 14.6814 35.9017C13.1526 32.1183 11.9632 28.2426 11.6221 24.1467C11.6036 23.9334 11.7431 23.5571 11.271 23.5587C10.3067 23.5587 9.92197 23.9485 10.0194 24.896C10.0832 25.5193 10.1672 26.1426 10.2798 26.7608C11.1181 31.359 12.8653 35.6531 14.6932 39.9186C16.7226 44.6562 18.9805 49.298 20.7613 54.1398C22.0751 57.7115 23.157 61.3419 23.162 65.1992C23.1688 69.3992 21.2888 71.8251 17.0872 72.9121V72.9087ZM63.9894 33.2288C63.8416 33.417 63.7677 33.4943 63.7139 33.5833C62.3564 35.8295 60.9066 38.0084 59.0603 39.8917C58.7344 40.2243 58.899 40.4595 59.0653 40.7468C60.159 42.6335 61.2779 44.5067 62.3228 46.4202C62.6689 47.0535 63.0201 47.1947 63.6702 46.941C64.1473 46.7545 64.6732 46.6907 65.1789 46.5798C67.1545 46.143 69.1705 46.059 71.3142 45.9229C68.8597 41.6708 66.4557 37.5044 63.9894 33.2305V33.2288ZM51.2685 47.0082C51.3021 49.8558 54.19 51.6433 56.6898 50.4001C57.8104 49.844 58.8654 49.1586 59.9625 48.5538C60.2934 48.3707 60.3707 48.2161 60.1657 47.8667C59.062 45.9884 57.9733 44.1001 56.8948 42.2067C56.7117 41.8842 56.5537 41.7851 56.2026 41.9984C55.1325 42.6486 54.0237 43.2383 52.9669 43.9086C51.8212 44.636 51.2937 45.7347 51.2668 47.0065L51.2685 47.0082ZM75.1816 46.0237C75.4302 46.0002 75.7595 46.1867 75.9208 45.8809C76.0535 45.6323 75.8149 45.4223 75.6973 45.219C72.7405 40.0899 69.7804 34.9643 66.8202 29.8386C66.7513 29.721 66.6841 29.6017 66.6085 29.4891C66.4708 29.2875 66.3229 29.2825 66.1381 29.4488C65.624 29.9159 65.5182 30.6248 65.8794 31.2531C68.5792 35.9319 71.2857 40.6057 73.9703 45.2929C74.2559 45.7919 74.5549 46.1396 75.1816 46.0237ZM64.3288 56.3137C64.5707 56.3507 64.7639 56.3859 64.868 56.2482C64.9907 56.0886 64.8143 55.9458 64.7404 55.8164C63.8332 54.2322 62.9025 52.6597 62.0121 51.0654C61.7785 50.6487 61.5753 50.6202 61.1838 50.852C60.8092 51.0721 60.7756 51.2603 60.994 51.6248C61.7634 52.9117 62.5026 54.2171 63.2485 55.5157C63.5089 55.9693 63.8769 56.2616 64.3288 56.3137ZM74.1232 37.2323C74.3113 36.3839 74.0577 35.7623 73.0446 35.3641C73.4713 36.1033 73.7972 36.6678 74.1232 37.2323Z" fill="#07074E"/>
<path d="M74.4895 31.3119C73.6479 31.3069 73.0212 30.6433 73.1573 29.8402C73.2934 29.0405 73.5135 28.2459 73.7856 27.4815C74.0259 26.8061 74.5853 26.5256 75.2942 26.7104C76.0015 26.8952 76.3711 27.4109 76.2451 28.1165C76.099 28.9431 75.8587 29.7579 75.5866 30.5525C75.4135 31.0565 74.9532 31.2733 74.4895 31.3119Z" fill="#00AEEF"/>
<path d="M78.8592 34.7423C78.1721 34.655 77.7471 34.4147 77.5404 33.8654C77.3187 33.2757 77.4682 32.7448 77.9554 32.4122C78.6492 31.9384 79.3952 31.5352 80.1444 31.1538C80.6703 30.8867 81.1659 31.0799 81.5489 31.4882C81.9437 31.9098 82.0596 32.4894 81.7371 32.9212C80.9945 33.9107 79.8454 34.3122 78.8592 34.7423Z" fill="#00AEEF"/>
<path d="M81.0331 40.7351C80.393 40.5536 79.5648 40.3772 78.7802 40.0816C78.0998 39.8245 77.8948 39.2298 78.0662 38.5343C78.2191 37.9144 78.8642 37.4876 79.5127 37.6271C80.2821 37.7917 81.0516 37.9866 81.7924 38.2504C82.4644 38.4889 82.7769 39.045 82.6089 39.7472C82.4426 40.4411 81.9436 40.7771 81.0331 40.7368V40.7351Z" fill="#00AEEF"/>
<path d="M46.1495 17.0118C47.6531 17.0017 48.6427 17.8216 49.0358 19.2832C49.9195 22.5743 50.7964 25.8654 51.6784 29.1565C52.1505 30.9205 52.636 32.6812 53.1031 34.4468C53.6155 36.3822 52.8477 37.7111 50.9241 38.2268C44.9735 39.8212 39.023 41.4155 33.0707 43.0014C31.1539 43.5121 29.8687 42.7679 29.3529 40.8594C27.9955 35.8328 26.6431 30.8063 25.2991 25.7764C24.7615 23.7637 25.4956 22.497 27.5066 21.9561C33.4555 20.3567 39.4043 18.7624 45.3549 17.1697C45.6691 17.0857 45.995 17.0421 46.1495 17.0118ZM48.4629 27.3085C47.7775 24.7381 47.1475 22.4013 46.5343 20.0593C46.4083 19.5772 46.1109 19.6696 45.7799 19.7586C39.9604 21.3227 34.1409 22.8885 28.3163 24.4374C27.851 24.5617 27.7115 24.6961 27.8577 25.2102C28.5398 27.6244 29.1715 30.052 29.8199 32.4762C29.9056 32.7971 29.9375 33.1415 30.1879 33.4893C31.2698 32.0982 32.2979 30.7576 33.3479 29.4337C34.0082 28.5988 34.5794 28.5114 35.4715 29.086C36.4576 29.721 37.4522 30.3493 38.4031 31.0365C38.9138 31.4061 39.1775 31.3943 39.5287 30.8214C40.6391 29.0053 41.8084 27.2245 42.9575 25.4337C43.7471 24.2022 44.3889 24.1014 45.5548 25.017C46.4671 25.7327 47.3759 26.4517 48.4646 27.3102L48.4629 27.3085ZM37.9679 36.8745C37.0591 36.8845 36.4593 35.858 36.8894 34.9324C37.091 34.4972 37.6891 34.0907 37.5009 33.6841C37.3127 33.2776 36.713 33.0609 36.2879 32.7668C35.9503 32.535 35.584 32.3401 35.2699 32.0814C34.9255 31.7992 34.7255 31.8966 34.4887 32.2192C33.9712 32.9231 33.4084 33.5934 32.891 34.2973C32.266 35.1508 31.1992 35.8715 31.0984 36.8661C30.9943 37.8825 31.5839 38.9627 31.8292 40.0245C31.9384 40.4949 32.1383 40.562 32.5785 40.4361C34.0989 40.0026 35.6311 39.6112 37.1582 39.2012C41.4237 38.0572 45.6875 36.9013 49.9598 35.7825C50.5411 35.6296 50.7057 35.4296 50.5108 34.8433C50.237 34.0168 50.0253 33.1667 49.8271 32.3183C49.7027 31.7874 49.4474 31.396 49.0072 31.0617C47.7439 30.1057 46.4889 29.1381 45.281 28.1166C44.7535 27.6697 44.5384 27.7873 44.2058 28.3199C42.6131 30.8651 40.9785 33.3817 39.3674 35.9152C39.0465 36.4209 38.6836 36.8392 37.9696 36.8728L37.9679 36.8745Z" fill="#00AEEF"/>
<path d="M60.8496 57.5486C60.764 58.4642 60.223 58.7951 59.5056 58.985C56.396 59.8082 53.2896 60.6482 50.18 61.4798C45.57 62.7129 40.9601 63.9443 36.3485 65.1758C36.1385 65.2329 35.9285 65.2934 35.7152 65.3387C34.9407 65.5 34.309 65.1523 34.1074 64.4584C33.894 63.7276 34.2552 63.0539 35.0616 62.8221C36.582 62.3853 38.1142 61.9922 39.6413 61.5823C46.0152 59.872 52.3892 58.1601 58.7631 56.4532C59.7543 56.1878 60.3524 56.3659 60.68 57.0211C60.7757 57.2109 60.8127 57.4293 60.8496 57.5469V57.5486Z" fill="#00AEEF"/>
<path d="M37.9226 25.3865C38.8046 25.4016 39.4497 26.0887 39.4161 26.9791C39.3842 27.8242 38.7222 28.4458 37.8654 28.4307C36.9818 28.4155 36.3333 27.7284 36.3686 26.8397C36.4022 25.9963 37.0674 25.3714 37.9226 25.3865Z" fill="#07074E"/>
</svg>
