<svg width="84" height="85" viewBox="0 0 84 85" fill="none" xmlns="http://www.w3.org/2000/svg">
<path d="M59.7627 21.3454C59.5359 27.6286 56.6832 32.729 51.1291 36.2856C50.5899 36.63 50.4723 36.8198 50.8687 37.386C52.9167 40.3176 54.9394 43.2677 56.9134 46.2497C57.3619 46.9267 57.7332 47.093 58.543 46.8629C68.1089 44.1581 77.8932 49.6668 80.5426 59.2075C83.3045 69.1565 76.9407 79.3776 66.7733 81.3281C56.6429 83.2702 46.9543 76.1722 45.7565 65.9158C45.6876 65.3227 45.4894 65.1262 44.8829 65.1379C43.0147 65.1766 41.1449 65.2085 39.2784 65.1278C38.3931 65.0892 38.173 65.3832 38.047 66.2198C36.9399 73.5967 32.8272 78.5897 25.7611 80.8946C15.4039 84.2731 4.30753 77.0894 2.95345 66.2938C1.72705 56.5027 8.29585 47.7802 18.018 46.3202C20.6069 45.9322 23.1639 46.1808 25.6603 46.9452C26.1576 47.0964 26.4046 47.009 26.6885 46.5907C28.8305 43.4357 30.9843 40.289 33.1632 37.1592C33.5043 36.6703 33.3715 36.5141 32.9213 36.2352C26.5927 32.3107 23.604 26.5651 24.3634 19.205C25.1043 12.0163 29.1077 6.97464 35.8647 4.3992C46.3613 0.400803 57.9516 7.3476 59.5476 18.4423C59.6719 19.3058 59.6921 20.171 59.7576 21.342L59.7627 21.3454ZM55.0872 48.1044C52.8209 44.7276 50.5798 41.3911 48.3487 38.0496C48.169 37.7808 48.0077 37.7422 47.7003 37.853C43.9337 39.1954 40.1722 39.061 36.4241 37.7623C36.0814 37.643 35.8327 37.596 35.574 37.9807C33.3766 41.2231 31.159 44.4504 28.9313 47.671C28.6927 48.0154 28.7196 48.1615 29.0926 48.3799C34.3426 51.4543 37.3481 56.0239 38.1091 62.0568C38.178 62.6028 38.383 62.717 38.8971 62.7103C40.9215 62.6784 42.9475 62.665 44.9719 62.717C45.6019 62.7338 45.7061 62.4667 45.7649 61.956C46.1916 58.3423 47.539 55.115 49.8675 52.3078C51.3123 50.5656 53.0695 49.2065 55.0889 48.1061L55.0872 48.1044ZM51.7827 73.753C51.7827 71.8814 51.7776 70.1796 51.7827 68.4761C51.7927 66.1543 53.2375 64.6625 55.5677 64.6524C60.8026 64.6306 66.0375 64.6289 71.2707 64.6524C73.6159 64.6625 75.0271 66.1174 75.0523 68.4727C75.0675 69.9982 75.0507 71.5236 75.0624 73.049C75.0624 73.2271 74.9415 73.469 75.2069 73.59C79.8891 68.3383 80.2637 59.1034 74.2039 53.0369C68.3071 47.1317 58.7479 46.9738 52.8579 52.6757C47.0602 58.2886 46.4923 68.1317 51.781 73.753H51.7827ZM53.6374 30.8206C58.5917 25.164 58.7647 15.8434 52.4715 9.89784C46.1194 3.8952 36.115 4.4244 30.3677 11.0839C24.7565 17.5872 26.1895 26.5567 30.3341 30.7634C30.3341 29.0347 30.3291 27.3883 30.3341 25.7402C30.3425 23.2135 31.7688 21.7889 34.3039 21.7855C39.4078 21.7805 44.5116 21.7822 49.6155 21.7855C52.2396 21.7872 53.6307 23.1984 53.634 25.8511C53.6374 27.4538 53.634 29.0582 53.634 30.8206H53.6374ZM32.1905 73.7513C37.3851 67.6579 37.1364 58.255 30.7524 52.511C24.3835 46.7806 14.5707 47.4257 8.93593 53.9542C3.32977 60.4507 4.75441 69.3026 8.82505 73.5883C8.99473 73.3464 8.90905 73.0776 8.91073 72.8256C8.92081 71.3791 8.90401 69.9326 8.91913 68.4845C8.94265 66.0905 10.3606 64.6558 12.7647 64.6474C17.9475 64.6306 23.1286 64.6322 28.3114 64.6474C30.7423 64.6541 32.1821 66.1207 32.1905 68.5416C32.1955 70.2199 32.1905 71.8982 32.1905 73.7513ZM47.8531 35.1197C48.9888 34.535 49.9599 33.9773 50.8687 33.3103C51.1493 33.1054 51.1661 32.8483 51.1661 32.5526C51.1627 30.2107 51.1711 27.8688 51.1594 25.5269C51.156 24.6197 50.7814 24.2282 49.8507 24.2249C44.6141 24.2114 39.3775 24.2114 34.1393 24.2249C33.1733 24.2266 32.8155 24.618 32.8104 25.5857C32.802 27.2959 32.9969 29.033 32.7617 30.7114C32.4526 32.9189 33.5479 34.0025 35.3237 34.7702C35.3472 34.7803 35.3741 34.7887 35.3959 34.8038C35.9134 35.1415 36.1452 35.118 36.1318 34.3855C36.0931 32.2805 36.1251 30.1754 36.115 28.0704C36.1116 27.4219 36.3115 26.9246 36.9701 26.7298C37.8185 26.4778 38.5258 27.0271 38.5342 27.9763C38.5527 30.3703 38.5728 32.766 38.5224 35.16C38.509 35.8387 38.7291 36.0739 39.3624 36.1613C41.1214 36.4032 42.8736 36.3948 44.6309 36.1546C45.2189 36.0739 45.4608 35.8723 45.4474 35.2154C45.4003 32.8214 45.4222 30.4258 45.4339 28.0318C45.439 27.1262 45.9127 26.6525 46.7107 26.6911C47.4331 26.7264 47.8414 27.175 47.8464 28.0166C47.8582 30.3317 47.8515 32.6467 47.8515 35.123L47.8531 35.1197ZM20.7497 67.1136C18.1457 67.1136 15.5417 67.1102 12.9394 67.1136C11.8339 67.1153 11.4979 67.4597 11.4946 68.5819C11.4895 70.2384 11.4946 71.8949 11.4946 73.553C11.4946 76.2864 11.5903 76.441 14.0414 77.6707C14.7723 78.037 14.8025 78.0202 14.8042 77.2188C14.8075 75.1154 14.8092 73.0104 14.8042 70.907C14.8042 70.2216 15.041 69.726 15.7752 69.595C16.6421 69.4404 17.2166 69.9326 17.2234 70.8919C17.2402 73.338 17.2318 75.7841 17.2284 78.2302C17.2284 78.5914 17.2284 78.8669 17.7089 78.966C19.5619 79.3457 21.4015 79.3608 23.2663 79.0231C23.893 78.9106 24.0005 78.6535 23.9938 78.0974C23.9686 75.7051 23.977 73.3111 23.9871 70.9171C23.9904 70.0452 24.4272 69.5765 25.1849 69.5647C25.9644 69.553 26.413 70.0284 26.4214 70.9608C26.4399 73.091 26.4365 75.2213 26.4247 77.3515C26.4214 77.8421 26.539 77.9748 27.001 77.7043C27.8158 77.2255 28.639 76.7618 29.4084 76.2074C29.7478 75.9638 29.862 75.7001 29.8587 75.2918C29.8402 73.0558 29.8536 70.8214 29.8486 68.5853C29.8469 67.4395 29.5075 67.1136 28.3282 67.1136C25.8031 67.1119 23.2781 67.1136 20.753 67.1136H20.7497ZM69.3067 77.9714C70.387 77.4977 71.2404 76.9416 72.0871 76.3654C72.5038 76.0814 72.6365 75.7454 72.6298 75.2448C72.6029 73.0339 72.6214 70.8247 72.6163 68.6138C72.6147 67.463 72.2619 67.1136 71.1077 67.1136C65.977 67.1119 60.8446 67.1119 55.7139 67.1136C54.5866 67.1136 54.2539 67.4378 54.2489 68.5651C54.2388 70.2485 54.2455 71.9335 54.2455 73.6169C54.2455 75.41 55.0475 76.7344 56.6513 77.5901C57.5367 78.0622 57.5467 78.0571 57.5484 77.0306C57.5484 75.0046 57.535 72.9785 57.5568 70.9524C57.5686 69.9007 58.1935 69.385 59.1108 69.6168C59.8399 69.7999 59.9979 70.3459 59.9962 71.0062C59.9895 73.4002 60.0079 75.7958 59.9827 78.1898C59.9777 78.7039 60.1071 78.924 60.6531 78.9979C62.0391 79.1827 63.4167 79.3054 64.8195 79.1609C66.8522 78.9509 66.8539 78.971 66.8556 76.955C66.8556 74.9558 66.8439 72.955 66.8623 70.9558C66.8707 70.0519 67.284 69.5983 68.0299 69.5698C68.8229 69.5412 69.2983 70.025 69.3034 70.9272C69.3151 73.2389 69.3067 75.5506 69.3067 77.9714Z" fill="#07074E"/>
<path d="M63.4502 62.556C60.4901 62.5644 58.0725 60.1738 58.0541 57.2203C58.0356 54.2702 60.4413 51.8174 63.3729 51.799C66.3919 51.7788 68.8161 54.1711 68.8178 57.1699C68.8195 60.0998 66.3785 62.5493 63.4485 62.556H63.4502ZM63.4771 54.1409C61.8542 54.119 60.4884 55.4429 60.48 57.0473C60.4716 58.603 61.8089 59.9705 63.3696 60.0024C64.9706 60.036 66.3398 58.6903 66.3465 57.0758C66.3533 55.4748 65.0697 54.161 63.4771 54.1409Z" fill="#00AEEF"/>
<path d="M41.9866 8.8125C44.9384 8.8125 47.3559 11.2166 47.3643 14.1633C47.3727 17.1251 44.8997 19.5964 41.9463 19.5763C39.0264 19.5561 36.5988 17.0932 36.6089 14.1633C36.619 11.2183 39.0365 8.8125 41.9866 8.8125ZM41.9631 17.231C43.5725 17.2411 44.9434 15.8819 44.93 14.2876C44.9165 12.7185 43.5792 11.3829 42.0084 11.3728C40.404 11.3627 39.0315 12.7269 39.0432 14.3212C39.055 15.8937 40.3889 17.2209 41.9631 17.231Z" fill="#00AEEF"/>
<path d="M25.9191 57.1463C25.9325 60.1081 23.5435 62.5357 20.5968 62.5559C17.6249 62.576 15.1452 60.1199 15.1553 57.1648C15.1637 54.2449 17.6199 51.8039 20.5531 51.7988C23.5385 51.7938 25.9073 54.1542 25.9207 57.1463H25.9191ZM20.5834 54.1408C18.979 54.1256 17.6585 55.3974 17.6283 56.9884C17.5963 58.6146 18.9051 59.9821 20.5145 60.0023C22.1004 60.0224 23.4948 58.6432 23.4931 57.0556C23.4898 55.4831 22.1659 54.1559 20.5834 54.1408Z" fill="#00AEEF"/>
</svg>
