<svg width="428" height="320" viewBox="0 0 428 320" fill="none" xmlns="http://www.w3.org/2000/svg">
<path d="M158.145 129.258C122.507 129.258 93.5164 100.267 93.5164 64.629C93.5164 28.9906 122.507 -3.41169e-06 158.145 -4.38172e-06C193.784 -5.35175e-06 222.774 28.9906 222.774 64.629C222.774 69.7116 218.655 73.8396 213.564 73.8396C208.473 73.8396 204.353 69.7202 204.353 64.629C204.353 39.1558 183.627 18.4298 158.154 18.4298C132.681 18.4298 111.955 39.1558 111.955 64.629C111.955 90.1022 132.681 110.828 158.154 110.828C168.809 110.828 179.198 107.113 187.428 100.379C191.367 97.1542 197.164 97.7304 200.397 101.661C203.622 105.599 203.046 111.396 199.116 114.629C187.609 124.064 173.066 129.258 158.163 129.258L158.145 129.258Z" fill="#009DFF"/>
<path d="M268.974 129.258C233.335 129.258 204.345 100.267 204.345 64.629C204.345 59.5464 208.464 55.4184 213.555 55.4184C218.646 55.4184 222.766 59.5378 222.766 64.629C222.766 90.1022 243.492 110.828 268.965 110.828C294.438 110.828 315.164 90.1022 315.164 64.629C315.164 39.1558 294.438 18.4298 268.965 18.4298C257.553 18.4298 246.605 22.618 238.125 30.229C234.341 33.626 228.511 33.3164 225.114 29.5238C221.717 25.7398 222.026 19.909 225.819 16.512C237.687 5.86519 253.003 -7.04647e-06 268.965 -7.48092e-06C304.603 -8.45095e-06 333.594 28.9906 333.594 64.629C333.594 100.267 304.603 129.258 268.965 129.258L268.974 129.258Z" fill="#009DFF"/>
<path d="M177.504 64.2419C177.504 75.1553 168.655 84.0047 157.741 84.0047C146.828 84.0047 137.978 75.1553 137.978 64.2419C137.978 53.3285 146.828 44.4791 157.741 44.4791C168.655 44.4791 177.504 53.3285 177.504 64.2419Z" fill="#FFC100"/>
<path d="M288.745 64.2419C288.745 75.1553 279.896 84.0047 268.982 84.0047C258.069 84.0047 249.219 75.1553 249.219 64.2419C249.219 53.3285 258.069 44.4791 268.982 44.4791C279.896 44.4791 288.745 53.3285 288.745 64.2419Z" fill="#FFC100"/>
<path d="M164.63 155.772C162.721 155.772 160.794 155.178 159.143 153.957C155.058 150.921 154.207 145.151 157.242 141.066L185.984 102.374C189.019 98.2894 194.79 97.438 198.875 100.474C202.96 103.51 203.811 109.28 200.776 113.365L172.034 152.057C170.228 154.49 167.451 155.78 164.63 155.78L164.63 155.772Z" fill="#009DFF"/>
<path d="M260.89 298.721C257.08 298.781 253.511 297.844 250.423 296.158C249.873 295.857 249.237 295.728 248.617 295.831L237.317 297.672C236.827 297.749 236.431 297.268 236.603 296.803L240.585 286.294C240.8 285.718 240.834 285.09 240.637 284.505C239.777 281.951 239.39 279.173 239.579 276.266C240.275 265.955 248.617 257.561 258.92 256.813C271.528 255.893 281.891 265.946 281.487 278.442C281.134 289.519 271.958 298.54 260.872 298.73M260.52 236.586C237.893 236.586 219.36 255.11 219.36 277.746C219.36 300.381 237.885 318.905 260.52 318.905C283.155 318.905 301.679 300.544 301.843 277.918C301.679 255.128 283.155 236.595 260.52 236.595" fill="#009DFF"/>
<path d="M10.3286 319.06C4.59243 319.06 2.69396e-05 314.468 2.6338e-05 308.895L1.95061e-05 245.607C1.89036e-05 240.026 4.59242 235.606 10.3286 235.606C15.738 235.606 20.3304 240.035 20.3304 245.607L20.3304 308.895C20.3304 314.476 15.738 319.06 10.3286 319.06ZM10.3286 227.246C4.59242 227.246 1.70283e-05 222.654 1.64443e-05 217.245L1.63561e-05 216.428C1.57369e-05 210.691 4.59241 206.262 10.3286 206.262C15.738 206.262 20.3304 210.691 20.3304 216.428L20.3304 217.245C20.3304 222.654 15.738 227.246 10.3286 227.246Z" fill="#009DFF"/>
<path d="M112.471 277.909L112.471 308.895C112.471 314.304 108.205 318.733 102.796 318.733C97.3864 318.733 92.9574 314.304 92.9574 308.895L92.9574 277.909C92.9574 266.273 84.4262 256.925 74.0976 256.925C61.3094 256.925 54.7476 269.713 54.7476 281.031L54.7476 308.903C54.7476 314.313 50.3186 318.742 44.9092 318.742C39.4998 318.742 35.0708 314.313 35.0708 308.903L35.0708 246.27C35.0708 240.86 39.4998 236.431 44.9092 236.431C49.1748 236.431 52.7782 239.218 54.094 243.156C59.9936 239.381 66.7188 237.257 74.0976 237.257C95.2536 237.257 112.462 255.463 112.462 277.918" fill="#009DFF"/>
<path d="M188.555 281.848C188.555 273.162 180.196 265.62 170.684 265.62L144.944 265.62L144.944 300.054L172 300.054C180.686 300.054 188.564 291.368 188.564 281.848M161.499 214.295L144.936 214.295L144.936 246.27L163.624 246.27C171.656 245.126 178.054 238.237 178.054 229.869C178.054 221.02 171.002 214.295 161.491 214.295M207.905 281.848C207.905 302.178 191.505 319.395 172 319.395L136.129 319.395C130.479 319.395 125.655 316.196 125.655 309.815L125.603 205.282C125.603 198.995 129.92 194.953 135.527 194.953L161.508 194.953C181.675 194.953 197.413 210.201 197.413 229.878C197.413 237.91 194.627 245.453 190.034 251.524C200.69 257.914 207.905 269.232 207.905 281.856" fill="#FFC100"/>
<path d="M357.098 308.731C357.098 314.313 352.669 318.57 347.259 318.57C345.78 318.57 344.473 318.57 342.994 318.406C337.584 317.589 332.338 315.293 328.563 311.028C325.286 307.252 322.99 301.353 322.99 296.27L322.99 255.807C322.99 255.334 322.603 254.947 322.13 254.947L316.196 254.947C311.174 254.947 306.771 251.292 306.169 246.313C305.455 240.37 310.125 235.279 315.93 235.279L322.122 235.279C322.595 235.279 322.982 234.892 322.982 234.419L322.982 204.216C322.982 199.193 326.637 194.79 331.616 194.188C337.559 193.474 342.65 198.144 342.65 203.949L342.65 234.402C342.65 234.875 343.037 235.262 343.51 235.262L347.801 235.262C352.824 235.262 357.227 238.917 357.829 243.896C358.543 249.839 353.873 254.93 348.068 254.93L343.518 254.93C343.045 254.93 342.658 255.317 342.658 255.79L342.658 293.957C342.985 295.264 342.658 297.242 343.811 298.222C344.628 299.039 346.107 298.876 347.251 298.876C352.66 298.876 357.089 303.305 357.089 308.714" fill="#009DFF"/>
<path d="M397.922 319.387C387.43 319.387 376.938 315.121 371.529 310.047C367.59 306.444 367.263 300.209 371.03 296.279C374.633 292.185 380.868 292.013 384.807 295.625C387.757 298.411 398.739 302.178 404.974 298.085C406.617 297.096 407.597 295.298 407.597 293.492C407.597 291.196 405.628 289.553 403.994 288.9C402.514 288.083 399.9 288.083 396.95 288.083C393.011 288.083 388.591 287.919 383.999 286.277C375.467 283.49 368.587 274.641 367.934 266.11C367.117 255.781 371.537 249.383 375.313 245.779C383.508 238.237 395.48 237.093 404.166 238.564C410.719 239.708 415.647 242.004 419.74 245.779C423.679 249.383 424.006 255.618 420.394 259.557C418.261 261.853 415.148 262.997 412.035 262.67C410.555 262.506 409.085 262.016 407.769 261.191C405.473 259.548 403.83 258.404 400.88 257.914C395.961 257.097 386.776 257.424 387.439 264.467C387.602 265.284 389.081 267.417 390.388 267.907C392.031 268.397 394.482 268.397 397.114 268.397C401.379 268.561 406.789 268.561 412.198 271.02C421.219 275.123 427.119 283.972 427.119 293.484C427.119 301.843 422.853 309.712 415.801 314.468C410.22 318.071 404.166 319.387 397.931 319.387" fill="#009DFF"/>
</svg>
